<svg width="254" height="53" viewBox="0 0 254 53" fill="none" xmlns="http://www.w3.org/2000/svg">
<path d="M5.375 0V10H1.79167V0H5.375ZM1.79167 33.3333V23.3333H5.375V33.3333H1.79167ZM7.16667 16.6667C7.16667 18.5167 5.57208 20 3.58333 20C2.87462 20 2.18182 19.8045 1.59254 19.4382C1.00327 19.072 0.543981 18.5514 0.272767 17.9423C0.00155259 17.3332 -0.0694093 16.663 0.0688544 16.0164C0.207118 15.3698 0.548397 14.7758 1.04954 14.3096C1.55067 13.8435 2.18916 13.526 2.88426 13.3974C3.57936 13.2688 4.29985 13.3348 4.95462 13.5871C5.60939 13.8394 6.16903 14.2666 6.56277 14.8148C6.95651 15.3629 7.16667 16.0074 7.16667 16.6667ZM26.875 3.33333C34.7942 3.33333 41.2083 9.3 41.2083 16.6667C41.2083 24.0333 34.7942 30 26.875 30C20.425 30 14.9783 26.0333 13.1688 20.5833L8.95833 16.6667L13.1688 12.75C14.9783 7.3 20.425 3.33333 26.875 3.33333ZM26.875 6.66667C20.9446 6.66667 16.125 11.15 16.125 16.6667C16.125 22.1833 20.9446 26.6667 26.875 26.6667C32.8054 26.6667 37.625 22.1833 37.625 16.6667C37.625 11.15 32.8054 6.66667 26.875 6.66667ZM25.0833 18.3333V10H27.7708V17L33.1458 20L31.6767 22.1L25.0833 18.3333Z" fill="black"/>
<path d="M65.1591 15H63.0455C62.9205 14.392 62.7017 13.858 62.3892 13.3977C62.0824 12.9375 61.7074 12.5511 61.2642 12.2386C60.8267 11.9205 60.3409 11.6818 59.8068 11.5227C59.2727 11.3636 58.7159 11.2841 58.1364 11.2841C57.0795 11.2841 56.1222 11.5511 55.2642 12.0852C54.4119 12.6193 53.733 13.4062 53.2273 14.446C52.7273 15.4858 52.4773 16.7614 52.4773 18.2727C52.4773 19.7841 52.7273 21.0597 53.2273 22.0994C53.733 23.1392 54.4119 23.9261 55.2642 24.4602C56.1222 24.9943 57.0795 25.2614 58.1364 25.2614C58.7159 25.2614 59.2727 25.1818 59.8068 25.0227C60.3409 24.8636 60.8267 24.6278 61.2642 24.3153C61.7074 23.9972 62.0824 23.608 62.3892 23.1477C62.7017 22.6818 62.9205 22.1477 63.0455 21.5455H65.1591C65 22.4375 64.7102 23.2358 64.2898 23.9403C63.8693 24.6449 63.3466 25.2443 62.7216 25.7386C62.0966 26.2273 61.3949 26.5994 60.6165 26.8551C59.8438 27.1108 59.017 27.2386 58.1364 27.2386C56.6477 27.2386 55.3239 26.875 54.1648 26.1477C53.0057 25.4205 52.0938 24.3864 51.429 23.0455C50.7642 21.7045 50.4318 20.1136 50.4318 18.2727C50.4318 16.4318 50.7642 14.8409 51.429 13.5C52.0938 12.1591 53.0057 11.125 54.1648 10.3977C55.3239 9.67045 56.6477 9.30682 58.1364 9.30682C59.017 9.30682 59.8438 9.43466 60.6165 9.69034C61.3949 9.94602 62.0966 10.321 62.7216 10.8153C63.3466 11.304 63.8693 11.9006 64.2898 12.6051C64.7102 13.304 65 14.1023 65.1591 15ZM68.3018 27V13.9091H70.245V15.8864H70.3814C70.62 15.2386 71.0518 14.7131 71.6768 14.3097C72.3018 13.9062 73.0064 13.7045 73.7905 13.7045C73.9382 13.7045 74.1229 13.7074 74.3445 13.7131C74.5661 13.7187 74.7337 13.7273 74.8473 13.7386V15.7841C74.7791 15.767 74.6229 15.7415 74.3786 15.7074C74.1399 15.6676 73.8871 15.6477 73.62 15.6477C72.9837 15.6477 72.4155 15.7812 71.9155 16.0483C71.4212 16.3097 71.0291 16.6733 70.7393 17.1392C70.4553 17.5994 70.3132 18.125 70.3132 18.7159V27H68.3018ZM82.1513 27.2727C80.9695 27.2727 79.9325 26.9915 79.0405 26.429C78.1541 25.8665 77.4609 25.0795 76.9609 24.0682C76.4666 23.0568 76.2195 21.875 76.2195 20.5227C76.2195 19.1591 76.4666 17.9687 76.9609 16.9517C77.4609 15.9347 78.1541 15.1449 79.0405 14.5824C79.9325 14.0199 80.9695 13.7386 82.1513 13.7386C83.3331 13.7386 84.3672 14.0199 85.2536 14.5824C86.1456 15.1449 86.8388 15.9347 87.3331 16.9517C87.8331 17.9687 88.0831 19.1591 88.0831 20.5227C88.0831 21.875 87.8331 23.0568 87.3331 24.0682C86.8388 25.0795 86.1456 25.8665 85.2536 26.429C84.3672 26.9915 83.3331 27.2727 82.1513 27.2727ZM82.1513 25.4659C83.049 25.4659 83.7876 25.2358 84.3672 24.7756C84.9467 24.3153 85.3757 23.7102 85.6541 22.9602C85.9325 22.2102 86.0717 21.3977 86.0717 20.5227C86.0717 19.6477 85.9325 18.8324 85.6541 18.0767C85.3757 17.321 84.9467 16.7102 84.3672 16.2443C83.7876 15.7784 83.049 15.5455 82.1513 15.5455C81.2536 15.5455 80.5149 15.7784 79.9354 16.2443C79.3558 16.7102 78.9268 17.321 78.6484 18.0767C78.37 18.8324 78.2308 19.6477 78.2308 20.5227C78.2308 21.3977 78.37 22.2102 78.6484 22.9602C78.9268 23.7102 79.3558 24.3153 79.9354 24.7756C80.5149 25.2358 81.2536 25.4659 82.1513 25.4659ZM93.1648 19.125V27H91.1534V13.9091H93.0966V15.9545H93.267C93.5739 15.2898 94.0398 14.7557 94.6648 14.3523C95.2898 13.9432 96.0966 13.7386 97.0852 13.7386C97.9716 13.7386 98.7472 13.9205 99.4119 14.2841C100.077 14.642 100.594 15.1875 100.963 15.9205C101.332 16.6477 101.517 17.5682 101.517 18.6818V27H99.5057V18.8182C99.5057 17.7898 99.2386 16.9886 98.7045 16.4148C98.1705 15.8352 97.4375 15.5455 96.5057 15.5455C95.8636 15.5455 95.2898 15.6847 94.7841 15.9631C94.2841 16.2415 93.8892 16.6477 93.5994 17.1818C93.3097 17.7159 93.1648 18.3636 93.1648 19.125ZM110.511 27.2727C109.329 27.2727 108.292 26.9915 107.4 26.429C106.513 25.8665 105.82 25.0795 105.32 24.0682C104.826 23.0568 104.579 21.875 104.579 20.5227C104.579 19.1591 104.826 17.9687 105.32 16.9517C105.82 15.9347 106.513 15.1449 107.4 14.5824C108.292 14.0199 109.329 13.7386 110.511 13.7386C111.692 13.7386 112.727 14.0199 113.613 14.5824C114.505 15.1449 115.198 15.9347 115.692 16.9517C116.192 17.9687 116.442 19.1591 116.442 20.5227C116.442 21.875 116.192 23.0568 115.692 24.0682C115.198 25.0795 114.505 25.8665 113.613 26.429C112.727 26.9915 111.692 27.2727 110.511 27.2727ZM110.511 25.4659C111.408 25.4659 112.147 25.2358 112.727 24.7756C113.306 24.3153 113.735 23.7102 114.013 22.9602C114.292 22.2102 114.431 21.3977 114.431 20.5227C114.431 19.6477 114.292 18.8324 114.013 18.0767C113.735 17.321 113.306 16.7102 112.727 16.2443C112.147 15.7784 111.408 15.5455 110.511 15.5455C109.613 15.5455 108.874 15.7784 108.295 16.2443C107.715 16.7102 107.286 17.321 107.008 18.0767C106.729 18.8324 106.59 19.6477 106.59 20.5227C106.59 21.3977 106.729 22.2102 107.008 22.9602C107.286 23.7102 107.715 24.3153 108.295 24.7756C108.874 25.2358 109.613 25.4659 110.511 25.4659ZM124.797 32.1818C123.825 32.1818 122.99 32.0568 122.291 31.8068C121.592 31.5625 121.01 31.2386 120.544 30.8352C120.084 30.4375 119.717 30.0114 119.445 29.5568L121.047 28.4318C121.229 28.6705 121.459 28.9432 121.737 29.25C122.016 29.5625 122.396 29.8324 122.879 30.0597C123.368 30.2926 124.007 30.4091 124.797 30.4091C125.854 30.4091 126.726 30.1534 127.413 29.642C128.101 29.1307 128.445 28.3295 128.445 27.2386V24.5795H128.274C128.126 24.8182 127.916 25.1136 127.643 25.4659C127.376 25.8125 126.99 26.1222 126.484 26.3949C125.984 26.6619 125.308 26.7955 124.456 26.7955C123.399 26.7955 122.45 26.5455 121.609 26.0455C120.774 25.5455 120.112 24.8182 119.624 23.8636C119.141 22.9091 118.899 21.75 118.899 20.3864C118.899 19.0455 119.135 17.8778 119.607 16.8835C120.078 15.8835 120.734 15.1108 121.575 14.5653C122.416 14.0142 123.388 13.7386 124.49 13.7386C125.342 13.7386 126.018 13.8807 126.518 14.1648C127.024 14.4432 127.411 14.7614 127.678 15.1193C127.95 15.4716 128.161 15.7614 128.308 15.9886H128.513V13.9091H130.456V27.375C130.456 28.5 130.2 29.4148 129.689 30.1193C129.183 30.8295 128.501 31.3494 127.643 31.679C126.791 32.0142 125.842 32.1818 124.797 32.1818ZM124.729 24.9886C125.536 24.9886 126.217 24.804 126.774 24.4347C127.331 24.0653 127.754 23.5341 128.044 22.8409C128.334 22.1477 128.479 21.3182 128.479 20.3523C128.479 19.4091 128.337 18.5767 128.053 17.8551C127.768 17.1335 127.348 16.5682 126.791 16.1591C126.234 15.75 125.547 15.5455 124.729 15.5455C123.876 15.5455 123.166 15.7614 122.598 16.1932C122.036 16.625 121.612 17.2045 121.328 17.9318C121.05 18.6591 120.911 19.4659 120.911 20.3523C120.911 21.2614 121.053 22.0653 121.337 22.7642C121.626 23.4574 122.053 24.0028 122.615 24.4006C123.183 24.7926 123.888 24.9886 124.729 24.9886ZM134.138 27V13.9091H136.081V15.8864H136.217C136.456 15.2386 136.888 14.7131 137.513 14.3097C138.138 13.9062 138.842 13.7045 139.626 13.7045C139.774 13.7045 139.959 13.7074 140.18 13.7131C140.402 13.7187 140.57 13.7273 140.683 13.7386V15.7841C140.615 15.767 140.459 15.7415 140.214 15.7074C139.976 15.6676 139.723 15.6477 139.456 15.6477C138.82 15.6477 138.251 15.7812 137.751 16.0483C137.257 16.3097 136.865 16.6733 136.575 17.1392C136.291 17.5994 136.149 18.125 136.149 18.7159V27H134.138ZM146.92 27.3068C146.09 27.3068 145.337 27.1506 144.661 26.8381C143.985 26.5199 143.448 26.0625 143.05 25.4659C142.653 24.8636 142.454 24.1364 142.454 23.2841C142.454 22.5341 142.602 21.9261 142.897 21.4602C143.192 20.9886 143.587 20.6193 144.082 20.3523C144.576 20.0852 145.121 19.8864 145.718 19.7557C146.32 19.6193 146.925 19.5114 147.533 19.4318C148.329 19.3295 148.974 19.2528 149.468 19.2017C149.968 19.1449 150.332 19.0511 150.559 18.9205C150.792 18.7898 150.908 18.5625 150.908 18.2386V18.1705C150.908 17.3295 150.678 16.6761 150.218 16.2102C149.763 15.7443 149.073 15.5114 148.147 15.5114C147.187 15.5114 146.434 15.7216 145.888 16.142C145.343 16.5625 144.96 17.0114 144.738 17.4886L142.829 16.8068C143.17 16.0114 143.624 15.392 144.192 14.9489C144.766 14.5 145.391 14.1875 146.067 14.0114C146.749 13.8295 147.42 13.7386 148.079 13.7386C148.499 13.7386 148.982 13.7898 149.528 13.892C150.079 13.9886 150.61 14.1903 151.121 14.4972C151.638 14.804 152.067 15.267 152.408 15.8864C152.749 16.5057 152.92 17.3352 152.92 18.375V27H150.908V25.2273H150.806C150.67 25.5114 150.442 25.8153 150.124 26.1392C149.806 26.4631 149.383 26.7386 148.854 26.9659C148.326 27.1932 147.681 27.3068 146.92 27.3068ZM147.227 25.5C148.022 25.5 148.692 25.3438 149.238 25.0312C149.789 24.7188 150.204 24.3153 150.482 23.821C150.766 23.3267 150.908 22.8068 150.908 22.2614V20.4205C150.823 20.5227 150.636 20.6165 150.346 20.7017C150.062 20.7812 149.732 20.8523 149.357 20.9148C148.988 20.9716 148.627 21.0227 148.275 21.0682C147.928 21.108 147.647 21.142 147.431 21.1705C146.908 21.2386 146.42 21.3494 145.965 21.5028C145.516 21.6506 145.153 21.875 144.874 22.1761C144.602 22.4716 144.465 22.875 144.465 23.3864C144.465 24.0852 144.724 24.6136 145.241 24.9716C145.763 25.3239 146.425 25.5 147.227 25.5ZM156.591 27V13.9091H158.534V15.9545H158.705C158.977 15.2557 159.418 14.7131 160.026 14.3267C160.634 13.9347 161.364 13.7386 162.216 13.7386C163.08 13.7386 163.798 13.9347 164.372 14.3267C164.952 14.7131 165.403 15.2557 165.727 15.9545H165.864C166.199 15.2784 166.702 14.7415 167.372 14.3438C168.043 13.9403 168.847 13.7386 169.784 13.7386C170.955 13.7386 171.912 14.1051 172.656 14.8381C173.401 15.5653 173.773 16.6989 173.773 18.2386V27H171.761V18.2386C171.761 17.2727 171.497 16.5824 170.969 16.1676C170.44 15.7528 169.818 15.5455 169.102 15.5455C168.182 15.5455 167.469 15.8239 166.963 16.3807C166.457 16.9318 166.205 17.6307 166.205 18.4773V27H164.159V18.0341C164.159 17.2898 163.918 16.6903 163.435 16.2358C162.952 15.7756 162.33 15.5455 161.568 15.5455C161.045 15.5455 160.557 15.6847 160.102 15.9631C159.653 16.2415 159.29 16.6278 159.011 17.1222C158.739 17.6108 158.602 18.1761 158.602 18.8182V27H156.591ZM181.303 27.3068C180.473 27.3068 179.72 27.1506 179.044 26.8381C178.368 26.5199 177.831 26.0625 177.433 25.4659C177.036 24.8636 176.837 24.1364 176.837 23.2841C176.837 22.5341 176.984 21.9261 177.28 21.4602C177.575 20.9886 177.97 20.6193 178.464 20.3523C178.959 20.0852 179.504 19.8864 180.101 19.7557C180.703 19.6193 181.308 19.5114 181.916 19.4318C182.712 19.3295 183.357 19.2528 183.851 19.2017C184.351 19.1449 184.714 19.0511 184.942 18.9205C185.175 18.7898 185.291 18.5625 185.291 18.2386V18.1705C185.291 17.3295 185.061 16.6761 184.601 16.2102C184.146 15.7443 183.456 15.5114 182.53 15.5114C181.57 15.5114 180.817 15.7216 180.271 16.142C179.726 16.5625 179.342 17.0114 179.121 17.4886L177.212 16.8068C177.553 16.0114 178.007 15.392 178.575 14.9489C179.149 14.5 179.774 14.1875 180.45 14.0114C181.132 13.8295 181.803 13.7386 182.462 13.7386C182.882 13.7386 183.365 13.7898 183.911 13.892C184.462 13.9886 184.993 14.1903 185.504 14.4972C186.021 14.804 186.45 15.267 186.791 15.8864C187.132 16.5057 187.303 17.3352 187.303 18.375V27H185.291V25.2273H185.189C185.053 25.5114 184.825 25.8153 184.507 26.1392C184.189 26.4631 183.766 26.7386 183.237 26.9659C182.709 27.1932 182.064 27.3068 181.303 27.3068ZM181.609 25.5C182.405 25.5 183.075 25.3438 183.621 25.0312C184.172 24.7188 184.587 24.3153 184.865 23.821C185.149 23.3267 185.291 22.8068 185.291 22.2614V20.4205C185.206 20.5227 185.018 20.6165 184.729 20.7017C184.445 20.7812 184.115 20.8523 183.74 20.9148C183.371 20.9716 183.01 21.0227 182.658 21.0682C182.311 21.108 182.03 21.142 181.814 21.1705C181.291 21.2386 180.803 21.3494 180.348 21.5028C179.899 21.6506 179.536 21.875 179.257 22.1761C178.984 22.4716 178.848 22.875 178.848 23.3864C178.848 24.0852 179.107 24.6136 179.624 24.9716C180.146 25.3239 180.808 25.5 181.609 25.5Z" fill="black"/>
</svg>
