<svg width="271" height="84" viewBox="0 0 271 84" fill="none" xmlns="http://www.w3.org/2000/svg">
<path d="M19.776 54L8.496 23.952H8.304C8.368 24.592 8.416 25.408 8.448 26.4C8.512 27.392 8.56 28.48 8.592 29.664C8.624 30.816 8.64 32 8.64 33.216V54H4.656V19.728H11.04L21.6 47.808H21.792L32.544 19.728H38.88V54H34.608V32.928C34.608 31.808 34.624 30.704 34.656 29.616C34.688 28.496 34.736 27.456 34.8 26.496C34.864 25.504 34.912 24.672 34.944 24H34.752L23.328 54H19.776ZM67.3549 54H48.2029V19.728H67.3549V23.52H52.5229V34.224H66.4909V37.968H52.5229V50.208H67.3549V54ZM102.043 54H97.0028L78.6668 25.536H78.4748C78.5068 26.112 78.5388 26.752 78.5708 27.456C78.6348 28.16 78.6828 28.928 78.7148 29.76C78.7468 30.56 78.7788 31.392 78.8108 32.256C78.8428 33.12 78.8588 33.984 78.8588 34.848V54H74.8748V19.728H79.8668L98.1548 48.096H98.3468C98.3148 47.712 98.2828 47.184 98.2508 46.512C98.2188 45.808 98.1868 45.04 98.1548 44.208C98.1228 43.344 98.0908 42.464 98.0588 41.568C98.0268 40.672 98.0108 39.84 98.0108 39.072V19.728H102.043V54ZM137.408 41.904C137.408 44.272 136.928 46.416 135.968 48.336C135.008 50.224 133.536 51.728 131.552 52.848C129.6 53.936 127.104 54.48 124.064 54.48C119.808 54.48 116.56 53.328 114.32 51.024C112.112 48.688 111.008 45.616 111.008 41.808V19.728H115.328V41.952C115.328 44.736 116.064 46.896 117.536 48.432C119.04 49.968 121.296 50.736 124.304 50.736C126.384 50.736 128.064 50.368 129.344 49.632C130.656 48.864 131.616 47.824 132.224 46.512C132.832 45.168 133.135 43.632 133.135 41.904V19.728H137.408V41.904Z" fill="black"/>
<path d="M265.342 32.25H181.186C178.443 32.25 176.22 34.483 176.22 37.2375V37.7625C176.22 40.517 178.443 42.75 181.186 42.75H265.342C268.085 42.75 270.308 40.517 270.308 37.7625V37.2375C270.308 34.483 268.085 32.25 265.342 32.25Z" fill="black"/>
<path d="M265.342 58.5H181.186C178.443 58.5 176.22 60.733 176.22 63.4875V64.0125C176.22 66.767 178.443 69 181.186 69H265.342C268.085 69 270.308 66.767 270.308 64.0125V63.4875C270.308 60.733 268.085 58.5 265.342 58.5Z" fill="black"/>
<path d="M265.342 6H181.186C178.443 6 176.22 8.23298 176.22 10.9875V11.5125C176.22 14.267 178.443 16.5 181.186 16.5H265.342C268.085 16.5 270.308 14.267 270.308 11.5125V10.9875C270.308 8.23298 268.085 6 265.342 6Z" fill="black"/>
</svg>
