<svg width="110" height="47" viewBox="0 0 110 47" fill="none" xmlns="http://www.w3.org/2000/svg">
<path d="M51.9545 5.54545V23H49.9091L40.3977 9.29545H40.2273V23H38.1136V5.54545H40.1591L49.7045 19.2841H49.875V5.54545H51.9545ZM61.2294 23.2727C60.0476 23.2727 59.0107 22.9915 58.1186 22.429C57.2322 21.8665 56.5391 21.0795 56.0391 20.0682C55.5447 19.0568 55.2976 17.875 55.2976 16.5227C55.2976 15.1591 55.5447 13.9687 56.0391 12.9517C56.5391 11.9347 57.2322 11.1449 58.1186 10.5824C59.0107 10.0199 60.0476 9.73864 61.2294 9.73864C62.4112 9.73864 63.4453 10.0199 64.3317 10.5824C65.2237 11.1449 65.9169 11.9347 66.4112 12.9517C66.9112 13.9687 67.1612 15.1591 67.1612 16.5227C67.1612 17.875 66.9112 19.0568 66.4112 20.0682C65.9169 21.0795 65.2237 21.8665 64.3317 22.429C63.4453 22.9915 62.4112 23.2727 61.2294 23.2727ZM61.2294 21.4659C62.1271 21.4659 62.8658 21.2358 63.4453 20.7756C64.0249 20.3153 64.4538 19.7102 64.7322 18.9602C65.0107 18.2102 65.1499 17.3977 65.1499 16.5227C65.1499 15.6477 65.0107 14.8324 64.7322 14.0767C64.4538 13.321 64.0249 12.7102 63.4453 12.2443C62.8658 11.7784 62.1271 11.5455 61.2294 11.5455C60.3317 11.5455 59.593 11.7784 59.0135 12.2443C58.4339 12.7102 58.005 13.321 57.7266 14.0767C57.4482 14.8324 57.3089 15.6477 57.3089 16.5227C57.3089 17.3977 57.4482 18.2102 57.7266 18.9602C58.005 19.7102 58.4339 20.3153 59.0135 20.7756C59.593 21.2358 60.3317 21.4659 61.2294 21.4659ZM75.9247 9.90909V11.6136H69.1406V9.90909H75.9247ZM71.1179 6.77273H73.1293V19.25C73.1293 19.8182 73.2116 20.2443 73.3764 20.5284C73.5469 20.8068 73.7628 20.9943 74.0241 21.0909C74.2912 21.1818 74.5724 21.2273 74.8679 21.2273C75.0895 21.2273 75.2713 21.2159 75.4134 21.1932C75.5554 21.1648 75.669 21.142 75.7543 21.125L76.1634 22.9318C76.027 22.983 75.8366 23.0341 75.5923 23.0852C75.348 23.142 75.0384 23.1705 74.6634 23.1705C74.0952 23.1705 73.5384 23.0483 72.9929 22.804C72.4531 22.5597 72.0043 22.1875 71.6463 21.6875C71.294 21.1875 71.1179 20.5568 71.1179 19.7955V6.77273ZM82.8026 23.3068C81.973 23.3068 81.2202 23.1506 80.544 22.8381C79.8679 22.5199 79.331 22.0625 78.9332 21.4659C78.5355 20.8636 78.3366 20.1364 78.3366 19.2841C78.3366 18.5341 78.4844 17.9261 78.7798 17.4602C79.0753 16.9886 79.4702 16.6193 79.9645 16.3523C80.4588 16.0852 81.0043 15.8864 81.6009 15.7557C82.2031 15.6193 82.8082 15.5114 83.4162 15.4318C84.2116 15.3295 84.8565 15.2528 85.3509 15.2017C85.8509 15.1449 86.2145 15.0511 86.4418 14.9205C86.6747 14.7898 86.7912 14.5625 86.7912 14.2386V14.1705C86.7912 13.3295 86.5611 12.6761 86.1009 12.2102C85.6463 11.7443 84.956 11.5114 84.0298 11.5114C83.0696 11.5114 82.3168 11.7216 81.7713 12.142C81.2259 12.5625 80.8423 13.0114 80.6207 13.4886L78.7116 12.8068C79.0526 12.0114 79.5071 11.392 80.0753 10.9489C80.6491 10.5 81.2741 10.1875 81.9503 10.0114C82.6321 9.82955 83.3026 9.73864 83.9616 9.73864C84.3821 9.73864 84.8651 9.78977 85.4105 9.89204C85.9616 9.98864 86.4929 10.1903 87.0043 10.4972C87.5213 10.804 87.9503 11.267 88.2912 11.8864C88.6321 12.5057 88.8026 13.3352 88.8026 14.375V23H86.7912V21.2273H86.6889C86.5526 21.5114 86.3253 21.8153 86.0071 22.1392C85.6889 22.4631 85.2656 22.7386 84.7372 22.9659C84.2088 23.1932 83.5639 23.3068 82.8026 23.3068ZM83.1094 21.5C83.9048 21.5 84.5753 21.3438 85.1207 21.0312C85.6719 20.7188 86.0866 20.3153 86.3651 19.821C86.6491 19.3267 86.7912 18.8068 86.7912 18.2614V16.4205C86.706 16.5227 86.5185 16.6165 86.2287 16.7017C85.9446 16.7812 85.6151 16.8523 85.2401 16.9148C84.8707 16.9716 84.5099 17.0227 84.1577 17.0682C83.8111 17.108 83.5298 17.142 83.3139 17.1705C82.7912 17.2386 82.3026 17.3494 81.848 17.5028C81.3991 17.6506 81.0355 17.875 80.7571 18.1761C80.4844 18.4716 80.348 18.875 80.348 19.3864C80.348 20.0852 80.6065 20.6136 81.1236 20.9716C81.6463 21.3239 82.3082 21.5 83.1094 21.5ZM101.746 12.8409L99.9396 13.3523C99.826 13.0511 99.6584 12.7585 99.4368 12.4744C99.2209 12.1847 98.9254 11.946 98.5504 11.7585C98.1754 11.571 97.6953 11.4773 97.1101 11.4773C96.3089 11.4773 95.6413 11.6619 95.1072 12.0312C94.5788 12.3949 94.3146 12.858 94.3146 13.4205C94.3146 13.9205 94.4964 14.3153 94.8601 14.6051C95.2237 14.8949 95.7919 15.1364 96.5646 15.3295L98.5078 15.8068C99.6783 16.0909 100.55 16.5256 101.124 17.1108C101.698 17.6903 101.985 18.4375 101.985 19.3523C101.985 20.1023 101.769 20.7727 101.337 21.3636C100.911 21.9545 100.315 22.4205 99.5476 22.7614C98.7805 23.1023 97.8885 23.2727 96.8714 23.2727C95.5362 23.2727 94.4311 22.983 93.5561 22.4034C92.6811 21.8239 92.1271 20.9773 91.8942 19.8636L93.8033 19.3864C93.9851 20.0909 94.3288 20.6193 94.8345 20.9716C95.3459 21.3239 96.0135 21.5 96.8374 21.5C97.7749 21.5 98.5192 21.3011 99.0703 20.9034C99.6271 20.5 99.9055 20.017 99.9055 19.4545C99.9055 19 99.7464 18.6193 99.4283 18.3125C99.1101 18 98.6214 17.767 97.9624 17.6136L95.7805 17.1023C94.5817 16.8182 93.701 16.3778 93.1385 15.7812C92.5817 15.179 92.3033 14.4261 92.3033 13.5227C92.3033 12.7841 92.5107 12.1307 92.9254 11.5625C93.3459 10.9943 93.9169 10.5483 94.6385 10.2244C95.3658 9.90057 96.1896 9.73864 97.1101 9.73864C98.4055 9.73864 99.4226 10.0227 100.161 10.5909C100.906 11.1591 101.434 11.9091 101.746 12.8409Z" fill="black"/>
<path d="M27.4467 29.4949H3.43084V11.4702H27.4467M27.4467 3.27721H25.7313V0H22.3005V3.27721H8.5771V0H5.14626V3.27721H3.43084C2.52092 3.27721 1.64828 3.62249 1.00487 4.23708C0.361462 4.85168 0 5.68525 0 6.55442V29.4949C0 30.3641 0.361462 31.1976 1.00487 31.8122C1.64828 32.4268 2.52092 32.7721 3.43084 32.7721H27.4467C28.3566 32.7721 29.2293 32.4268 29.8727 31.8122C30.5161 31.1976 30.8776 30.3641 30.8776 29.4949V6.55442C30.8776 5.68525 30.5161 4.85168 29.8727 4.23708C29.2293 3.62249 28.3566 3.27721 27.4467 3.27721ZM23.2096 16.4844L21.3913 14.7474L13.02 22.7438L9.38335 19.27L7.565 21.0069L13.02 26.2177L23.2096 16.4844Z" fill="black"/>
</svg>
