<svg width="253" height="55" viewBox="0 0 253 55" fill="none" xmlns="http://www.w3.org/2000/svg">
<path d="M35.8333 13.9042V7.83333C35.8333 5.67917 34.2208 3.91667 32.25 3.91667H17.9167L14.3333 0H3.58333C1.6125 0 0 1.7625 0 3.91667V27.4167C0 29.5708 1.6125 31.3333 3.58333 31.3333H16.4833C18.6333 34.8583 22.575 37.2083 26.875 37.2083C33.8625 37.2083 39.4167 31.1375 39.4167 23.5C39.4167 19.7792 37.9833 16.45 35.8333 13.9042ZM14.8708 27.4167H3.58333V7.83333H32.25V11.1625C30.6375 10.1833 28.8458 9.79167 26.875 9.79167C19.8875 9.79167 14.3333 15.8625 14.3333 23.5C14.3333 24.8708 14.5125 26.2417 14.8708 27.4167ZM26.875 33.2917C21.8583 33.2917 17.9167 28.9833 17.9167 23.5C17.9167 18.0167 21.8583 13.7083 26.875 13.7083C31.8917 13.7083 35.8333 18.0167 35.8333 23.5C35.8333 28.9833 31.8917 33.2917 26.875 33.2917ZM28.6667 19.5833H25.0833V15.6667H28.6667V19.5833ZM28.6667 31.3333H25.0833V21.5417H28.6667V31.3333Z" fill="black"/>
<path d="M64.8409 20.2727C64.8409 22.1136 64.5085 23.7045 63.8438 25.0455C63.179 26.3864 62.267 27.4205 61.108 28.1477C59.9489 28.875 58.625 29.2386 57.1364 29.2386C55.6477 29.2386 54.3239 28.875 53.1648 28.1477C52.0057 27.4205 51.0938 26.3864 50.429 25.0455C49.7642 23.7045 49.4318 22.1136 49.4318 20.2727C49.4318 18.4318 49.7642 16.8409 50.429 15.5C51.0938 14.1591 52.0057 13.125 53.1648 12.3977C54.3239 11.6705 55.6477 11.3068 57.1364 11.3068C58.625 11.3068 59.9489 11.6705 61.108 12.3977C62.267 13.125 63.179 14.1591 63.8438 15.5C64.5085 16.8409 64.8409 18.4318 64.8409 20.2727ZM62.7955 20.2727C62.7955 18.7614 62.5426 17.4858 62.0369 16.446C61.5369 15.4062 60.858 14.6193 60 14.0852C59.1477 13.5511 58.1932 13.2841 57.1364 13.2841C56.0795 13.2841 55.1222 13.5511 54.2642 14.0852C53.4119 14.6193 52.733 15.4062 52.2273 16.446C51.7273 17.4858 51.4773 18.7614 51.4773 20.2727C51.4773 21.7841 51.7273 23.0597 52.2273 24.0994C52.733 25.1392 53.4119 25.9261 54.2642 26.4602C55.1222 26.9943 56.0795 27.2614 57.1364 27.2614C58.1932 27.2614 59.1477 26.9943 60 26.4602C60.858 25.9261 61.5369 25.1392 62.0369 24.0994C62.5426 23.0597 62.7955 21.7841 62.7955 20.2727ZM73.9517 15.9091V17.6136H66.8949V15.9091H73.9517ZM69.0085 29V14.1023C69.0085 13.3523 69.1847 12.7273 69.5369 12.2273C69.8892 11.7273 70.3466 11.3523 70.9091 11.1023C71.4716 10.8523 72.0653 10.7273 72.6903 10.7273C73.1847 10.7273 73.5881 10.767 73.9006 10.8466C74.2131 10.9261 74.446 11 74.5994 11.0682L74.0199 12.8068C73.9176 12.7727 73.7756 12.7301 73.5938 12.679C73.4176 12.6278 73.1847 12.6023 72.8949 12.6023C72.2301 12.6023 71.75 12.7699 71.4545 13.1051C71.1648 13.4403 71.0199 13.9318 71.0199 14.5795V29H69.0085ZM76.7706 29V15.9091H78.782V29H76.7706ZM77.7933 13.7273C77.4013 13.7273 77.0632 13.5938 76.7791 13.3267C76.5007 13.0597 76.3615 12.7386 76.3615 12.3636C76.3615 11.9886 76.5007 11.6676 76.7791 11.4006C77.0632 11.1335 77.4013 11 77.7933 11C78.1854 11 78.5206 11.1335 78.799 11.4006C79.0831 11.6676 79.2251 11.9886 79.2251 12.3636C79.2251 12.7386 79.0831 13.0597 78.799 13.3267C78.5206 13.5938 78.1854 13.7273 77.7933 13.7273ZM87.7841 29.2727C86.5568 29.2727 85.5 28.983 84.6136 28.4034C83.7273 27.8239 83.0455 27.0256 82.5682 26.0085C82.0909 24.9915 81.8523 23.8295 81.8523 22.5227C81.8523 21.1932 82.0966 20.0199 82.5852 19.0028C83.0795 17.9801 83.767 17.1818 84.6477 16.608C85.5341 16.0284 86.5682 15.7386 87.75 15.7386C88.6705 15.7386 89.5 15.9091 90.2386 16.25C90.9773 16.5909 91.5824 17.0682 92.054 17.6818C92.5256 18.2955 92.8182 19.0114 92.9318 19.8295H90.9205C90.767 19.233 90.4261 18.7045 89.8977 18.2443C89.375 17.7784 88.6705 17.5455 87.7841 17.5455C87 17.5455 86.3125 17.75 85.7216 18.1591C85.1364 18.5625 84.679 19.1335 84.3494 19.8722C84.0256 20.6051 83.8636 21.4659 83.8636 22.4545C83.8636 23.4659 84.0227 24.3466 84.3409 25.0966C84.6648 25.8466 85.1193 26.429 85.7045 26.8438C86.2955 27.2585 86.9886 27.4659 87.7841 27.4659C88.3068 27.4659 88.7812 27.375 89.2074 27.1932C89.6335 27.0114 89.9943 26.75 90.2898 26.4091C90.5852 26.0682 90.7955 25.6591 90.9205 25.1818H92.9318C92.8182 25.9545 92.5369 26.6506 92.0881 27.2699C91.6449 27.8835 91.0568 28.3722 90.3239 28.7358C89.5966 29.0938 88.75 29.2727 87.7841 29.2727ZM95.8722 29V15.9091H97.8835V29H95.8722ZM96.8949 13.7273C96.5028 13.7273 96.1648 13.5938 95.8807 13.3267C95.6023 13.0597 95.4631 12.7386 95.4631 12.3636C95.4631 11.9886 95.6023 11.6676 95.8807 11.4006C96.1648 11.1335 96.5028 11 96.8949 11C97.2869 11 97.6222 11.1335 97.9006 11.4006C98.1847 11.6676 98.3267 11.9886 98.3267 12.3636C98.3267 12.7386 98.1847 13.0597 97.9006 13.3267C97.6222 13.5938 97.2869 13.7273 96.8949 13.7273ZM103.579 21.125V29H101.567V15.9091H103.511V17.9545H103.681C103.988 17.2898 104.454 16.7557 105.079 16.3523C105.704 15.9432 106.511 15.7386 107.499 15.7386C108.386 15.7386 109.161 15.9205 109.826 16.2841C110.491 16.642 111.008 17.1875 111.377 17.9205C111.746 18.6477 111.931 19.5682 111.931 20.6818V29H109.92V20.8182C109.92 19.7898 109.653 18.9886 109.119 18.4148C108.585 17.8352 107.852 17.5455 106.92 17.5455C106.278 17.5455 105.704 17.6847 105.198 17.9631C104.698 18.2415 104.303 18.6477 104.013 19.1818C103.724 19.7159 103.579 20.3636 103.579 21.125ZM119.459 29.3068C118.629 29.3068 117.876 29.1506 117.2 28.8381C116.524 28.5199 115.987 28.0625 115.589 27.4659C115.192 26.8636 114.993 26.1364 114.993 25.2841C114.993 24.5341 115.141 23.9261 115.436 23.4602C115.732 22.9886 116.126 22.6193 116.621 22.3523C117.115 22.0852 117.661 21.8864 118.257 21.7557C118.859 21.6193 119.464 21.5114 120.072 21.4318C120.868 21.3295 121.513 21.2528 122.007 21.2017C122.507 21.1449 122.871 21.0511 123.098 20.9205C123.331 20.7898 123.447 20.5625 123.447 20.2386V20.1705C123.447 19.3295 123.217 18.6761 122.757 18.2102C122.303 17.7443 121.612 17.5114 120.686 17.5114C119.726 17.5114 118.973 17.7216 118.428 18.142C117.882 18.5625 117.499 19.0114 117.277 19.4886L115.368 18.8068C115.709 18.0114 116.163 17.392 116.732 16.9489C117.305 16.5 117.93 16.1875 118.607 16.0114C119.288 15.8295 119.959 15.7386 120.618 15.7386C121.038 15.7386 121.521 15.7898 122.067 15.892C122.618 15.9886 123.149 16.1903 123.661 16.4972C124.178 16.804 124.607 17.267 124.947 17.8864C125.288 18.5057 125.459 19.3352 125.459 20.375V29H123.447V27.2273H123.345C123.209 27.5114 122.982 27.8153 122.663 28.1392C122.345 28.4631 121.922 28.7386 121.393 28.9659C120.865 29.1932 120.22 29.3068 119.459 29.3068ZM119.766 27.5C120.561 27.5 121.232 27.3438 121.777 27.0312C122.328 26.7188 122.743 26.3153 123.021 25.821C123.305 25.3267 123.447 24.8068 123.447 24.2614V22.4205C123.362 22.5227 123.175 22.6165 122.885 22.7017C122.601 22.7812 122.271 22.8523 121.896 22.9148C121.527 22.9716 121.166 23.0227 120.814 23.0682C120.467 23.108 120.186 23.142 119.97 23.1705C119.447 23.2386 118.959 23.3494 118.504 23.5028C118.055 23.6506 117.692 23.875 117.413 24.1761C117.141 24.4716 117.004 24.875 117.004 25.3864C117.004 26.0852 117.263 26.6136 117.78 26.9716C118.303 27.3239 118.964 27.5 119.766 27.5ZM146.585 15.9091L141.744 29H139.698L134.857 15.9091H137.039L140.653 26.3409H140.789L144.403 15.9091H146.585ZM149.239 29V15.9091H151.251V29H149.239ZM150.262 13.7273C149.87 13.7273 149.532 13.5938 149.248 13.3267C148.969 13.0597 148.83 12.7386 148.83 12.3636C148.83 11.9886 148.969 11.6676 149.248 11.4006C149.532 11.1335 149.87 11 150.262 11C150.654 11 150.989 11.1335 151.268 11.4006C151.552 11.6676 151.694 11.9886 151.694 12.3636C151.694 12.7386 151.552 13.0597 151.268 13.3267C150.989 13.5938 150.654 13.7273 150.262 13.7273ZM154.935 29V15.9091H156.878V17.8864H157.014C157.253 17.2386 157.685 16.7131 158.31 16.3097C158.935 15.9062 159.639 15.7045 160.423 15.7045C160.571 15.7045 160.756 15.7074 160.977 15.7131C161.199 15.7187 161.366 15.7273 161.48 15.7386V17.7841C161.412 17.767 161.256 17.7415 161.011 17.7074C160.773 17.6676 160.52 17.6477 160.253 17.6477C159.616 17.6477 159.048 17.7812 158.548 18.0483C158.054 18.3097 157.662 18.6733 157.372 19.1392C157.088 19.5994 156.946 20.125 156.946 20.7159V29H154.935ZM170.378 15.9091V17.6136H163.594V15.9091H170.378ZM165.571 12.7727H167.582V25.25C167.582 25.8182 167.665 26.2443 167.83 26.5284C168 26.8068 168.216 26.9943 168.477 27.0909C168.744 27.1818 169.026 27.2273 169.321 27.2273C169.543 27.2273 169.724 27.2159 169.866 27.1932C170.009 27.1648 170.122 27.142 170.207 27.125L170.616 28.9318C170.48 28.983 170.29 29.0341 170.045 29.0852C169.801 29.142 169.491 29.1705 169.116 29.1705C168.548 29.1705 167.991 29.0483 167.446 28.804C166.906 28.5597 166.457 28.1875 166.099 27.6875C165.747 27.1875 165.571 26.5568 165.571 25.7955V12.7727ZM181.653 23.6477V15.9091H183.665V29H181.653V26.7841H181.517C181.21 27.4489 180.733 28.0142 180.085 28.4801C179.438 28.9403 178.619 29.1705 177.631 29.1705C176.812 29.1705 176.085 28.9915 175.449 28.6335C174.813 28.2699 174.313 27.7244 173.949 26.9972C173.585 26.2642 173.403 25.3409 173.403 24.2273V15.9091H175.415V24.0909C175.415 25.0455 175.682 25.8068 176.216 26.375C176.756 26.9432 177.443 27.2273 178.278 27.2273C178.778 27.2273 179.287 27.0994 179.804 26.8438C180.327 26.5881 180.764 26.196 181.116 25.6676C181.474 25.1392 181.653 24.4659 181.653 23.6477ZM191.201 29.3068C190.371 29.3068 189.619 29.1506 188.942 28.8381C188.266 28.5199 187.729 28.0625 187.332 27.4659C186.934 26.8636 186.735 26.1364 186.735 25.2841C186.735 24.5341 186.883 23.9261 187.178 23.4602C187.474 22.9886 187.869 22.6193 188.363 22.3523C188.857 22.0852 189.403 21.8864 189.999 21.7557C190.602 21.6193 191.207 21.5114 191.815 21.4318C192.61 21.3295 193.255 21.2528 193.749 21.2017C194.249 21.1449 194.613 21.0511 194.84 20.9205C195.073 20.7898 195.19 20.5625 195.19 20.2386V20.1705C195.19 19.3295 194.96 18.6761 194.499 18.2102C194.045 17.7443 193.354 17.5114 192.428 17.5114C191.468 17.5114 190.715 17.7216 190.17 18.142C189.624 18.5625 189.241 19.0114 189.019 19.4886L187.11 18.8068C187.451 18.0114 187.906 17.392 188.474 16.9489C189.048 16.5 189.673 16.1875 190.349 16.0114C191.031 15.8295 191.701 15.7386 192.36 15.7386C192.781 15.7386 193.263 15.7898 193.809 15.892C194.36 15.9886 194.891 16.1903 195.403 16.4972C195.92 16.804 196.349 17.267 196.69 17.8864C197.031 18.5057 197.201 19.3352 197.201 20.375V29H195.19V27.2273H195.087C194.951 27.5114 194.724 27.8153 194.406 28.1392C194.087 28.4631 193.664 28.7386 193.136 28.9659C192.607 29.1932 191.962 29.3068 191.201 29.3068ZM191.508 27.5C192.303 27.5 192.974 27.3438 193.519 27.0312C194.07 26.7188 194.485 26.3153 194.763 25.821C195.048 25.3267 195.19 24.8068 195.19 24.2614V22.4205C195.104 22.5227 194.917 22.6165 194.627 22.7017C194.343 22.7812 194.013 22.8523 193.638 22.9148C193.269 22.9716 192.908 23.0227 192.556 23.0682C192.21 23.108 191.928 23.142 191.712 23.1705C191.19 23.2386 190.701 23.3494 190.246 23.5028C189.798 23.6506 189.434 23.875 189.156 24.1761C188.883 24.4716 188.746 24.875 188.746 25.3864C188.746 26.0852 189.005 26.6136 189.522 26.9716C190.045 27.3239 190.707 27.5 191.508 27.5ZM202.884 11.5455V29H200.872V11.5455H202.884Z" fill="black"/>
</svg>
