<svg width="361" height="77" viewBox="0 0 361 77" fill="none" xmlns="http://www.w3.org/2000/svg">
<rect width="87" height="74" fill="#D9D9D9"/>
<path d="M109.795 30.5455H111.909V43.0227C111.909 44.1364 111.705 45.0824 111.295 45.8608C110.886 46.6392 110.31 47.2301 109.565 47.6335C108.821 48.0369 107.943 48.2386 106.932 48.2386C105.977 48.2386 105.128 48.0653 104.384 47.7188C103.639 47.3665 103.054 46.8665 102.628 46.2188C102.202 45.571 101.989 44.8011 101.989 43.9091H104.068C104.068 44.4034 104.19 44.8352 104.435 45.2045C104.685 45.5682 105.026 45.8523 105.457 46.0568C105.889 46.2614 106.381 46.3636 106.932 46.3636C107.54 46.3636 108.057 46.2358 108.483 45.9801C108.909 45.7244 109.233 45.3494 109.455 44.8551C109.682 44.3551 109.795 43.7443 109.795 43.0227V30.5455ZM115.872 48V34.9091H117.884V48H115.872ZM116.895 32.7273C116.503 32.7273 116.165 32.5938 115.881 32.3267C115.602 32.0597 115.463 31.7386 115.463 31.3636C115.463 30.9886 115.602 30.6676 115.881 30.4006C116.165 30.1335 116.503 30 116.895 30C117.287 30 117.622 30.1335 117.901 30.4006C118.185 30.6676 118.327 30.9886 118.327 31.3636C118.327 31.7386 118.185 32.0597 117.901 32.3267C117.622 32.5938 117.287 32.7273 116.895 32.7273ZM121.567 48V34.9091H123.511V36.9545H123.681C123.954 36.2557 124.394 35.7131 125.002 35.3267C125.61 34.9347 126.34 34.7386 127.192 34.7386C128.056 34.7386 128.775 34.9347 129.349 35.3267C129.928 35.7131 130.38 36.2557 130.704 36.9545H130.84C131.175 36.2784 131.678 35.7415 132.349 35.3438C133.019 34.9403 133.823 34.7386 134.761 34.7386C135.931 34.7386 136.888 35.1051 137.633 35.8381C138.377 36.5653 138.749 37.6989 138.749 39.2386V48H136.738V39.2386C136.738 38.2727 136.474 37.5824 135.945 37.1676C135.417 36.7528 134.795 36.5455 134.079 36.5455C133.158 36.5455 132.445 36.8239 131.94 37.3807C131.434 37.9318 131.181 38.6307 131.181 39.4773V48H129.136V39.0341C129.136 38.2898 128.894 37.6903 128.411 37.2358C127.928 36.7756 127.306 36.5455 126.545 36.5455C126.022 36.5455 125.533 36.6847 125.079 36.9631C124.63 37.2415 124.266 37.6278 123.988 38.1222C123.715 38.6108 123.579 39.1761 123.579 39.8182V48H121.567ZM142.427 48V34.9091H144.37V36.9545H144.54C144.813 36.2557 145.254 35.7131 145.862 35.3267C146.469 34.9347 147.2 34.7386 148.052 34.7386C148.915 34.7386 149.634 34.9347 150.208 35.3267C150.788 35.7131 151.239 36.2557 151.563 36.9545H151.7C152.035 36.2784 152.538 35.7415 153.208 35.3438C153.879 34.9403 154.683 34.7386 155.62 34.7386C156.79 34.7386 157.748 35.1051 158.492 35.8381C159.237 36.5653 159.609 37.6989 159.609 39.2386V48H157.597V39.2386C157.597 38.2727 157.333 37.5824 156.805 37.1676C156.276 36.7528 155.654 36.5455 154.938 36.5455C154.018 36.5455 153.305 36.8239 152.799 37.3807C152.293 37.9318 152.04 38.6307 152.04 39.4773V48H149.995V39.0341C149.995 38.2898 149.754 37.6903 149.271 37.2358C148.788 36.7756 148.165 36.5455 147.404 36.5455C146.881 36.5455 146.393 36.6847 145.938 36.9631C145.489 37.2415 145.126 37.6278 144.847 38.1222C144.575 38.6108 144.438 39.1761 144.438 39.8182V48H142.427ZM164.113 52.9091C163.772 52.9091 163.468 52.8807 163.201 52.8239C162.934 52.7727 162.749 52.7216 162.647 52.6705L163.158 50.8977C163.647 51.0227 164.079 51.0682 164.454 51.0341C164.829 51 165.161 50.8324 165.451 50.5312C165.746 50.2358 166.016 49.7557 166.261 49.0909L166.636 48.0682L161.795 34.9091H163.977L167.59 45.3409H167.727L171.34 34.9091H173.522L167.965 49.9091C167.715 50.5852 167.406 51.1449 167.036 51.5881C166.667 52.0369 166.238 52.3693 165.749 52.5852C165.266 52.8011 164.721 52.9091 164.113 52.9091ZM183.915 48H181.7L188.109 30.5455H190.29L196.7 48H194.484L189.268 33.3068H189.131L183.915 48ZM184.734 41.1818H193.665V43.0568H184.734V41.1818ZM201.157 30.5455V48H199.146V30.5455H201.157ZM210.33 48.2727C209.068 48.2727 207.98 47.9943 207.065 47.4375C206.156 46.875 205.455 46.0909 204.96 45.0852C204.472 44.0739 204.227 42.8977 204.227 41.5568C204.227 40.2159 204.472 39.0341 204.96 38.0114C205.455 36.983 206.142 36.1818 207.023 35.608C207.909 35.0284 208.943 34.7386 210.125 34.7386C210.807 34.7386 211.48 34.8523 212.145 35.0795C212.81 35.3068 213.415 35.6761 213.96 36.1875C214.506 36.6932 214.94 37.3636 215.264 38.1989C215.588 39.0341 215.75 40.0625 215.75 41.2841V42.1364H205.659V40.3977H213.705C213.705 39.6591 213.557 39 213.261 38.4205C212.972 37.8409 212.557 37.3835 212.017 37.0483C211.483 36.7131 210.852 36.5455 210.125 36.5455C209.324 36.5455 208.631 36.7443 208.045 37.142C207.466 37.5341 207.02 38.0455 206.707 38.6761C206.395 39.3068 206.239 39.983 206.239 40.7045V41.8636C206.239 42.8523 206.409 43.6903 206.75 44.3778C207.097 45.0597 207.577 45.5795 208.19 45.9375C208.804 46.2898 209.517 46.4659 210.33 46.4659C210.858 46.4659 211.335 46.392 211.761 46.2443C212.193 46.0909 212.565 45.8636 212.878 45.5625C213.19 45.2557 213.432 44.875 213.602 44.4205L215.545 44.9659C215.341 45.625 214.997 46.2045 214.514 46.7045C214.031 47.1989 213.435 47.5852 212.724 47.8636C212.014 48.1364 211.216 48.2727 210.33 48.2727ZM219.958 34.9091L223.094 40.2614L226.231 34.9091H228.549L224.322 41.4545L228.549 48H226.231L223.094 42.9205L219.958 48H217.64L221.799 41.4545L217.64 34.9091H219.958ZM235.271 48.3068C234.442 48.3068 233.689 48.1506 233.013 47.8381C232.337 47.5199 231.8 47.0625 231.402 46.4659C231.004 45.8636 230.805 45.1364 230.805 44.2841C230.805 43.5341 230.953 42.9261 231.249 42.4602C231.544 41.9886 231.939 41.6193 232.433 41.3523C232.928 41.0852 233.473 40.8864 234.07 40.7557C234.672 40.6193 235.277 40.5114 235.885 40.4318C236.68 40.3295 237.325 40.2528 237.82 40.2017C238.32 40.1449 238.683 40.0511 238.911 39.9205C239.143 39.7898 239.26 39.5625 239.26 39.2386V39.1705C239.26 38.3295 239.03 37.6761 238.57 37.2102C238.115 36.7443 237.425 36.5114 236.499 36.5114C235.538 36.5114 234.786 36.7216 234.24 37.142C233.695 37.5625 233.311 38.0114 233.089 38.4886L231.18 37.8068C231.521 37.0114 231.976 36.392 232.544 35.9489C233.118 35.5 233.743 35.1875 234.419 35.0114C235.101 34.8295 235.771 34.7386 236.43 34.7386C236.851 34.7386 237.334 34.7898 237.879 34.892C238.43 34.9886 238.962 35.1903 239.473 35.4972C239.99 35.804 240.419 36.267 240.76 36.8864C241.101 37.5057 241.271 38.3352 241.271 39.375V48H239.26V46.2273H239.158C239.021 46.5114 238.794 46.8153 238.476 47.1392C238.158 47.4631 237.734 47.7386 237.206 47.9659C236.678 48.1932 236.033 48.3068 235.271 48.3068ZM235.578 46.5C236.374 46.5 237.044 46.3438 237.589 46.0312C238.141 45.7188 238.555 45.3153 238.834 44.821C239.118 44.3267 239.26 43.8068 239.26 43.2614V41.4205C239.175 41.5227 238.987 41.6165 238.697 41.7017C238.413 41.7812 238.084 41.8523 237.709 41.9148C237.339 41.9716 236.979 42.0227 236.626 42.0682C236.28 42.108 235.999 42.142 235.783 42.1705C235.26 42.2386 234.771 42.3494 234.317 42.5028C233.868 42.6506 233.504 42.875 233.226 43.1761C232.953 43.4716 232.817 43.875 232.817 44.3864C232.817 45.0852 233.075 45.6136 233.592 45.9716C234.115 46.3239 234.777 46.5 235.578 46.5ZM246.954 40.125V48H244.942V34.9091H246.886V36.9545H247.056C247.363 36.2898 247.829 35.7557 248.454 35.3523C249.079 34.9432 249.886 34.7386 250.874 34.7386C251.761 34.7386 252.536 34.9205 253.201 35.2841C253.866 35.642 254.383 36.1875 254.752 36.9205C255.121 37.6477 255.306 38.5682 255.306 39.6818V48H253.295V39.8182C253.295 38.7898 253.028 37.9886 252.494 37.4148C251.96 36.8352 251.227 36.5455 250.295 36.5455C249.653 36.5455 249.079 36.6847 248.573 36.9631C248.073 37.2415 247.678 37.6477 247.388 38.1818C247.099 38.7159 246.954 39.3636 246.954 40.125ZM263.925 48.2727C262.834 48.2727 261.871 47.9972 261.036 47.446C260.2 46.8892 259.547 46.1051 259.075 45.0938C258.604 44.0767 258.368 42.875 258.368 41.4886C258.368 40.1136 258.604 38.9205 259.075 37.9091C259.547 36.8977 260.203 36.1165 261.044 35.5653C261.885 35.0142 262.857 34.7386 263.959 34.7386C264.811 34.7386 265.484 34.8807 265.979 35.1648C266.479 35.4432 266.859 35.7614 267.121 36.1193C267.388 36.4716 267.595 36.7614 267.743 36.9886H267.913V30.5455H269.925V48H267.982V45.9886H267.743C267.595 46.2273 267.385 46.5284 267.112 46.892C266.839 47.25 266.45 47.571 265.945 47.8551C265.439 48.1335 264.766 48.2727 263.925 48.2727ZM264.197 46.4659C265.004 46.4659 265.686 46.2557 266.243 45.8352C266.8 45.4091 267.223 44.821 267.513 44.071C267.803 43.3153 267.947 42.4432 267.947 41.4545C267.947 40.4773 267.805 39.6222 267.521 38.8892C267.237 38.1506 266.817 37.5767 266.26 37.1676C265.703 36.7528 265.016 36.5455 264.197 36.5455C263.345 36.5455 262.635 36.7642 262.067 37.2017C261.504 37.6335 261.081 38.2216 260.797 38.9659C260.518 39.7045 260.379 40.5341 260.379 41.4545C260.379 42.3864 260.521 43.233 260.805 43.9943C261.095 44.75 261.521 45.3523 262.084 45.8011C262.652 46.2443 263.357 46.4659 264.197 46.4659ZM279.376 48.2727C278.115 48.2727 277.027 47.9943 276.112 47.4375C275.203 46.875 274.501 46.0909 274.007 45.0852C273.518 44.0739 273.274 42.8977 273.274 41.5568C273.274 40.2159 273.518 39.0341 274.007 38.0114C274.501 36.983 275.189 36.1818 276.07 35.608C276.956 35.0284 277.99 34.7386 279.172 34.7386C279.854 34.7386 280.527 34.8523 281.192 35.0795C281.857 35.3068 282.462 35.6761 283.007 36.1875C283.553 36.6932 283.987 37.3636 284.311 38.1989C284.635 39.0341 284.797 40.0625 284.797 41.2841V42.1364H274.706V40.3977H282.751C282.751 39.6591 282.604 39 282.308 38.4205C282.018 37.8409 281.604 37.3835 281.064 37.0483C280.53 36.7131 279.899 36.5455 279.172 36.5455C278.371 36.5455 277.678 36.7443 277.092 37.142C276.513 37.5341 276.067 38.0455 275.754 38.6761C275.442 39.3068 275.286 39.983 275.286 40.7045V41.8636C275.286 42.8523 275.456 43.6903 275.797 44.3778C276.143 45.0597 276.624 45.5795 277.237 45.9375C277.851 46.2898 278.564 46.4659 279.376 46.4659C279.905 46.4659 280.382 46.392 280.808 46.2443C281.24 46.0909 281.612 45.8636 281.925 45.5625C282.237 45.2557 282.479 44.875 282.649 44.4205L284.592 44.9659C284.388 45.625 284.044 46.2045 283.561 46.7045C283.078 47.1989 282.482 47.5852 281.771 47.8636C281.061 48.1364 280.263 48.2727 279.376 48.2727ZM287.857 48V34.9091H289.8V36.8864H289.936C290.175 36.2386 290.607 35.7131 291.232 35.3097C291.857 34.9062 292.561 34.7045 293.345 34.7045C293.493 34.7045 293.678 34.7074 293.899 34.7131C294.121 34.7187 294.288 34.7273 294.402 34.7386V36.7841C294.334 36.767 294.178 36.7415 293.933 36.7074C293.695 36.6676 293.442 36.6477 293.175 36.6477C292.538 36.6477 291.97 36.7812 291.47 37.0483C290.976 37.3097 290.584 37.6733 290.294 38.1392C290.01 38.5994 289.868 39.125 289.868 39.7159V48H287.857ZM302.854 32.4205V30.5455H315.945V32.4205H310.457V48H308.343V32.4205H302.854ZM322.354 48.2727C321.173 48.2727 320.136 47.9915 319.244 47.429C318.357 46.8665 317.664 46.0795 317.164 45.0682C316.67 44.0568 316.423 42.875 316.423 41.5227C316.423 40.1591 316.67 38.9687 317.164 37.9517C317.664 36.9347 318.357 36.1449 319.244 35.5824C320.136 35.0199 321.173 34.7386 322.354 34.7386C323.536 34.7386 324.57 35.0199 325.457 35.5824C326.349 36.1449 327.042 36.9347 327.536 37.9517C328.036 38.9687 328.286 40.1591 328.286 41.5227C328.286 42.875 328.036 44.0568 327.536 45.0682C327.042 46.0795 326.349 46.8665 325.457 47.429C324.57 47.9915 323.536 48.2727 322.354 48.2727ZM322.354 46.4659C323.252 46.4659 323.991 46.2358 324.57 45.7756C325.15 45.3153 325.579 44.7102 325.857 43.9602C326.136 43.2102 326.275 42.3977 326.275 41.5227C326.275 40.6477 326.136 39.8324 325.857 39.0767C325.579 38.321 325.15 37.7102 324.57 37.2443C323.991 36.7784 323.252 36.5455 322.354 36.5455C321.457 36.5455 320.718 36.7784 320.138 37.2443C319.559 37.7102 319.13 38.321 318.852 39.0767C318.573 39.8324 318.434 40.6477 318.434 41.5227C318.434 42.3977 318.573 43.2102 318.852 43.9602C319.13 44.7102 319.559 45.3153 320.138 45.7756C320.718 46.2358 321.457 46.4659 322.354 46.4659ZM331.357 48V34.9091H333.3V36.8864H333.436C333.675 36.2386 334.107 35.7131 334.732 35.3097C335.357 34.9062 336.061 34.7045 336.845 34.7045C336.993 34.7045 337.178 34.7074 337.399 34.7131C337.621 34.7187 337.788 34.7273 337.902 34.7386V36.7841C337.834 36.767 337.678 36.7415 337.433 36.7074C337.195 36.6676 336.942 36.6477 336.675 36.6477C336.038 36.6477 335.47 36.7812 334.97 37.0483C334.476 37.3097 334.084 37.6733 333.794 38.1392C333.51 38.5994 333.368 39.125 333.368 39.7159V48H331.357ZM345.206 48.2727C344.024 48.2727 342.987 47.9915 342.095 47.429C341.209 46.8665 340.516 46.0795 340.016 45.0682C339.521 44.0568 339.274 42.875 339.274 41.5227C339.274 40.1591 339.521 38.9687 340.016 37.9517C340.516 36.9347 341.209 36.1449 342.095 35.5824C342.987 35.0199 344.024 34.7386 345.206 34.7386C346.388 34.7386 347.422 35.0199 348.308 35.5824C349.2 36.1449 349.893 36.9347 350.388 37.9517C350.888 38.9687 351.138 40.1591 351.138 41.5227C351.138 42.875 350.888 44.0568 350.388 45.0682C349.893 46.0795 349.2 46.8665 348.308 47.429C347.422 47.9915 346.388 48.2727 345.206 48.2727ZM345.206 46.4659C346.104 46.4659 346.842 46.2358 347.422 45.7756C348.001 45.3153 348.43 44.7102 348.709 43.9602C348.987 43.2102 349.126 42.3977 349.126 41.5227C349.126 40.6477 348.987 39.8324 348.709 39.0767C348.43 38.321 348.001 37.7102 347.422 37.2443C346.842 36.7784 346.104 36.5455 345.206 36.5455C344.308 36.5455 343.57 36.7784 342.99 37.2443C342.411 37.7102 341.982 38.321 341.703 39.0767C341.425 39.8324 341.286 40.6477 341.286 41.5227C341.286 42.3977 341.425 43.2102 341.703 43.9602C341.982 44.7102 342.411 45.3153 342.99 45.7756C343.57 46.2358 344.308 46.4659 345.206 46.4659Z" fill="black"/>
<path d="M70.424 64.1305C68.8766 60.3778 66.631 56.9691 63.8123 54.0943C61.0022 51.2112 57.6733 48.9125 54.0096 47.3252C53.9768 47.3084 53.944 47.3 53.9111 47.2832C59.0217 43.5039 62.344 37.3479 62.344 30.4023C62.344 18.8965 53.2385 9.57422 42.0002 9.57422C30.7619 9.57422 21.6565 18.8965 21.6565 30.4023C21.6565 37.3479 24.9787 43.5039 30.0893 47.2916C30.0565 47.3084 30.0236 47.3168 29.9908 47.3336C26.3158 48.9209 23.0182 51.1969 20.1881 54.1027C17.372 56.9798 15.1268 60.3879 13.5764 64.1389C12.0532 67.8111 11.2318 71.7482 11.1565 75.7371C11.1543 75.8267 11.1696 75.9159 11.2016 75.9994C11.2336 76.0828 11.2816 76.1589 11.3428 76.2231C11.4039 76.2873 11.477 76.3383 11.5577 76.3731C11.6384 76.4079 11.7251 76.4258 11.8127 76.4258H16.7346C17.0955 76.4258 17.3826 76.1318 17.3908 75.7707C17.5549 69.2871 20.0979 63.215 24.5932 58.6127C29.2443 53.8508 35.4213 51.2305 42.0002 51.2305C48.5791 51.2305 54.7561 53.8508 59.4072 58.6127C63.9025 63.215 66.4455 69.2871 66.6096 75.7707C66.6178 76.1402 66.9049 76.4258 67.2658 76.4258H72.1877C72.2753 76.4258 72.362 76.4079 72.4427 76.3731C72.5234 76.3383 72.5965 76.2873 72.6576 76.2231C72.7188 76.1589 72.7668 76.0828 72.7988 75.9994C72.8308 75.9159 72.8461 75.8267 72.844 75.7371C72.7619 71.7227 71.9498 67.8174 70.424 64.1305V64.1305ZM42.0002 44.8477C38.235 44.8477 34.6912 43.3443 32.0252 40.6148C29.3592 37.8854 27.8908 34.2572 27.8908 30.4023C27.8908 26.5475 29.3592 22.9193 32.0252 20.1898C34.6912 17.4604 38.235 15.957 42.0002 15.957C45.7654 15.957 49.3092 17.4604 51.9752 20.1898C54.6412 22.9193 56.1096 26.5475 56.1096 30.4023C56.1096 34.2572 54.6412 37.8854 51.9752 40.6148C49.3092 43.3443 45.7654 44.8477 42.0002 44.8477Z" fill="black"/>
</svg>
