<svg width="63" height="56" viewBox="0 0 63 56" fill="none" xmlns="http://www.w3.org/2000/svg">
<path d="M59.588 26.4532L32.7694 3.44602C32.4344 3.16035 31.9813 3 31.5089 3C31.0366 3 30.5835 3.16035 30.2485 3.44602L3.42991 26.4532C3.13701 26.7466 2.98395 27.124 3.00133 27.51C3.01871 27.8961 3.20525 28.2623 3.52367 28.5354C3.84208 28.8086 4.26892 28.9686 4.7189 28.9835C5.16887 28.9984 5.60883 28.8671 5.95086 28.6158L31.5 6.6977L57.0491 28.6312C57.3912 28.8825 57.8311 29.0138 58.2811 28.9989C58.7311 28.9839 59.1579 28.8239 59.4763 28.5508C59.7948 28.2776 59.9813 27.9114 59.9987 27.5254C60.016 27.1394 59.863 26.7619 59.5701 26.4685L59.588 26.4532Z" fill="black"/>
<path d="M49.4167 49.9212H40.4583V34.5271H22.5417V49.9212H13.5833V28.3695L10 31.4483V49.9212C10 50.7377 10.3775 51.5208 11.0495 52.0982C11.7215 52.6756 12.633 53 13.5833 53H26.125V37.6059H36.875V53H49.4167C50.367 53 51.2785 52.6756 51.9505 52.0982C52.6225 51.5208 53 50.7377 53 49.9212V31.0788L49.4167 28V49.9212Z" fill="black"/>
</svg>
