<svg width="266" height="49" viewBox="0 0 266 49" fill="none" xmlns="http://www.w3.org/2000/svg">
<path d="M13.0001 24.0625C12.8507 24.0625 12.7013 24.0864 12.5588 24.137C11.7488 24.4248 10.8969 24.6094 10.0001 24.6094C9.1032 24.6094 8.25133 24.4248 7.44071 24.137C7.29821 24.0864 7.14946 24.0625 7.00008 24.0625C3.12134 24.0625 -0.020524 27.5133 0.000100967 31.7611C0.00885095 33.5562 1.35822 35 3.00009 35H17.0001C18.6419 35 19.9913 33.5562 20.0001 31.7611C20.0207 27.5133 16.8788 24.0625 13.0001 24.0625ZM10.0001 21.875C13.3138 21.875 16.0001 18.9369 16.0001 15.3125C16.0001 11.6881 13.3138 8.75 10.0001 8.75C6.68633 8.75 4.00009 11.6881 4.00009 15.3125C4.00009 18.9369 6.68633 21.875 10.0001 21.875ZM37 0H13.0001C11.3457 0 10.0001 1.521 10.0001 3.38994V6.5625C11.4638 6.5625 12.8188 7.02598 14.0001 7.7793V4.375H36V24.0625H32V19.6875H24V24.0625H19.2351C20.4288 25.2034 21.305 26.7101 21.7157 28.4375H37C38.6544 28.4375 40 26.9165 40 25.0476V3.38994C40 1.521 38.6544 0 37 0Z" fill="black"/>
<path d="M62.1591 7.42045V5.54545H75.25V7.42045H69.7614V23H67.6477V7.42045H62.1591ZM84.7081 17.6477V9.90909H86.7195V23H84.7081V20.7841H84.5717C84.2649 21.4489 83.7876 22.0142 83.1399 22.4801C82.4922 22.9403 81.674 23.1705 80.6854 23.1705C79.8672 23.1705 79.1399 22.9915 78.5036 22.6335C77.8672 22.2699 77.3672 21.7244 77.0036 20.9972C76.6399 20.2642 76.4581 19.3409 76.4581 18.2273V9.90909H78.4695V18.0909C78.4695 19.0455 78.7365 19.8068 79.2706 20.375C79.8104 20.9432 80.4979 21.2273 81.3331 21.2273C81.8331 21.2273 82.3416 21.0994 82.8587 20.8438C83.3814 20.5881 83.8189 20.196 84.1712 19.6676C84.5291 19.1392 84.7081 18.4659 84.7081 17.6477ZM99.6761 12.8409L97.8693 13.3523C97.7557 13.0511 97.5881 12.7585 97.3665 12.4744C97.1506 12.1847 96.8551 11.946 96.4801 11.7585C96.1051 11.571 95.625 11.4773 95.0398 11.4773C94.2386 11.4773 93.571 11.6619 93.0369 12.0312C92.5085 12.3949 92.2443 12.858 92.2443 13.4205C92.2443 13.9205 92.4261 14.3153 92.7898 14.6051C93.1534 14.8949 93.7216 15.1364 94.4943 15.3295L96.4375 15.8068C97.608 16.0909 98.4801 16.5256 99.054 17.1108C99.6278 17.6903 99.9148 18.4375 99.9148 19.3523C99.9148 20.1023 99.6989 20.7727 99.267 21.3636C98.8409 21.9545 98.2443 22.4205 97.4773 22.7614C96.7102 23.1023 95.8182 23.2727 94.8011 23.2727C93.4659 23.2727 92.3608 22.983 91.4858 22.4034C90.6108 21.8239 90.0568 20.9773 89.8239 19.8636L91.733 19.3864C91.9148 20.0909 92.2585 20.6193 92.7642 20.9716C93.2756 21.3239 93.9432 21.5 94.767 21.5C95.7045 21.5 96.4489 21.3011 97 20.9034C97.5568 20.5 97.8352 20.017 97.8352 19.4545C97.8352 19 97.6761 18.6193 97.358 18.3125C97.0398 18 96.5511 17.767 95.892 17.6136L93.7102 17.1023C92.5114 16.8182 91.6307 16.3778 91.0682 15.7812C90.5114 15.179 90.233 14.4261 90.233 13.5227C90.233 12.7841 90.4403 12.1307 90.8551 11.5625C91.2756 10.9943 91.8466 10.5483 92.5682 10.2244C93.2955 9.90057 94.1193 9.73864 95.0398 9.73864C96.3352 9.73864 97.3523 10.0227 98.0909 10.5909C98.8352 11.1591 99.3636 11.9091 99.6761 12.8409ZM109.965 23V5.54545H115.863C117.232 5.54545 118.352 5.79261 119.221 6.28693C120.096 6.77557 120.744 7.4375 121.164 8.27273C121.585 9.10795 121.795 10.0398 121.795 11.0682C121.795 12.0966 121.585 13.0312 121.164 13.8722C120.749 14.7131 120.107 15.3835 119.238 15.8835C118.369 16.3778 117.255 16.625 115.897 16.625H111.67V14.75H115.829C116.766 14.75 117.519 14.5881 118.087 14.2642C118.656 13.9403 119.067 13.5028 119.323 12.9517C119.585 12.3949 119.715 11.767 119.715 11.0682C119.715 10.3693 119.585 9.74432 119.323 9.19318C119.067 8.64205 118.653 8.21023 118.079 7.89773C117.505 7.57955 116.744 7.42045 115.795 7.42045H112.079V23H109.965ZM124.927 23V9.90909H126.87V11.8864H127.006C127.245 11.2386 127.677 10.7131 128.302 10.3097C128.927 9.90625 129.631 9.70454 130.415 9.70454C130.563 9.70454 130.748 9.70739 130.969 9.71307C131.191 9.71875 131.359 9.72727 131.472 9.73864V11.7841C131.404 11.767 131.248 11.7415 131.004 11.7074C130.765 11.6676 130.512 11.6477 130.245 11.6477C129.609 11.6477 129.04 11.7812 128.54 12.0483C128.046 12.3097 127.654 12.6733 127.364 13.1392C127.08 13.5994 126.938 14.125 126.938 14.7159V23H124.927ZM138.776 23.2727C137.594 23.2727 136.558 22.9915 135.665 22.429C134.779 21.8665 134.086 21.0795 133.586 20.0682C133.092 19.0568 132.844 17.875 132.844 16.5227C132.844 15.1591 133.092 13.9687 133.586 12.9517C134.086 11.9347 134.779 11.1449 135.665 10.5824C136.558 10.0199 137.594 9.73864 138.776 9.73864C139.958 9.73864 140.992 10.0199 141.879 10.5824C142.771 11.1449 143.464 11.9347 143.958 12.9517C144.458 13.9687 144.708 15.1591 144.708 16.5227C144.708 17.875 144.458 19.0568 143.958 20.0682C143.464 21.0795 142.771 21.8665 141.879 22.429C140.992 22.9915 139.958 23.2727 138.776 23.2727ZM138.776 21.4659C139.674 21.4659 140.413 21.2358 140.992 20.7756C141.572 20.3153 142.001 19.7102 142.279 18.9602C142.558 18.2102 142.697 17.3977 142.697 16.5227C142.697 15.6477 142.558 14.8324 142.279 14.0767C142.001 13.321 141.572 12.7102 140.992 12.2443C140.413 11.7784 139.674 11.5455 138.776 11.5455C137.879 11.5455 137.14 11.7784 136.56 12.2443C135.981 12.7102 135.552 13.321 135.273 14.0767C134.995 14.8324 134.856 15.6477 134.856 16.5227C134.856 17.3977 134.995 18.2102 135.273 18.9602C135.552 19.7102 135.981 20.3153 136.56 20.7756C137.14 21.2358 137.879 21.4659 138.776 21.4659ZM153.608 9.90909V11.6136H146.551V9.90909H153.608ZM148.665 23V8.10227C148.665 7.35227 148.841 6.72727 149.193 6.22727C149.545 5.72727 150.003 5.35227 150.565 5.10227C151.128 4.85227 151.722 4.72727 152.347 4.72727C152.841 4.72727 153.244 4.76704 153.557 4.84659C153.869 4.92614 154.102 5 154.256 5.06818L153.676 6.80682C153.574 6.77273 153.432 6.73011 153.25 6.67898C153.074 6.62784 152.841 6.60227 152.551 6.60227C151.886 6.60227 151.406 6.76989 151.111 7.10511C150.821 7.44034 150.676 7.93182 150.676 8.57954V23H148.665ZM161.376 23.2727C160.115 23.2727 159.027 22.9943 158.112 22.4375C157.203 21.875 156.501 21.0909 156.007 20.0852C155.518 19.0739 155.274 17.8977 155.274 16.5568C155.274 15.2159 155.518 14.0341 156.007 13.0114C156.501 11.983 157.189 11.1818 158.07 10.608C158.956 10.0284 159.99 9.73864 161.172 9.73864C161.854 9.73864 162.527 9.85227 163.192 10.0795C163.857 10.3068 164.462 10.6761 165.007 11.1875C165.553 11.6932 165.987 12.3636 166.311 13.1989C166.635 14.0341 166.797 15.0625 166.797 16.2841V17.1364H156.706V15.3977H164.751C164.751 14.6591 164.604 14 164.308 13.4205C164.018 12.8409 163.604 12.3835 163.064 12.0483C162.53 11.7131 161.899 11.5455 161.172 11.5455C160.371 11.5455 159.678 11.7443 159.092 12.142C158.513 12.5341 158.067 13.0455 157.754 13.6761C157.442 14.3068 157.286 14.983 157.286 15.7045V16.8636C157.286 17.8523 157.456 18.6903 157.797 19.3778C158.143 20.0597 158.624 20.5795 159.237 20.9375C159.851 21.2898 160.564 21.4659 161.376 21.4659C161.905 21.4659 162.382 21.392 162.808 21.2443C163.24 21.0909 163.612 20.8636 163.925 20.5625C164.237 20.2557 164.479 19.875 164.649 19.4205L166.592 19.9659C166.388 20.625 166.044 21.2045 165.561 21.7045C165.078 22.1989 164.482 22.5852 163.771 22.8636C163.061 23.1364 162.263 23.2727 161.376 23.2727ZM179.129 12.8409L177.322 13.3523C177.209 13.0511 177.041 12.7585 176.82 12.4744C176.604 12.1847 176.308 11.946 175.933 11.7585C175.558 11.571 175.078 11.4773 174.493 11.4773C173.692 11.4773 173.024 11.6619 172.49 12.0312C171.962 12.3949 171.697 12.858 171.697 13.4205C171.697 13.9205 171.879 14.3153 172.243 14.6051C172.607 14.8949 173.175 15.1364 173.947 15.3295L175.891 15.8068C177.061 16.0909 177.933 16.5256 178.507 17.1108C179.081 17.6903 179.368 18.4375 179.368 19.3523C179.368 20.1023 179.152 20.7727 178.72 21.3636C178.294 21.9545 177.697 22.4205 176.93 22.7614C176.163 23.1023 175.271 23.2727 174.254 23.2727C172.919 23.2727 171.814 22.983 170.939 22.4034C170.064 21.8239 169.51 20.9773 169.277 19.8636L171.186 19.3864C171.368 20.0909 171.712 20.6193 172.217 20.9716C172.729 21.3239 173.396 21.5 174.22 21.5C175.158 21.5 175.902 21.3011 176.453 20.9034C177.01 20.5 177.288 20.017 177.288 19.4545C177.288 19 177.129 18.6193 176.811 18.3125C176.493 18 176.004 17.767 175.345 17.6136L173.163 17.1023C171.964 16.8182 171.084 16.3778 170.521 15.7812C169.964 15.179 169.686 14.4261 169.686 13.5227C169.686 12.7841 169.893 12.1307 170.308 11.5625C170.729 10.9943 171.3 10.5483 172.021 10.2244C172.749 9.90057 173.572 9.73864 174.493 9.73864C175.788 9.73864 176.805 10.0227 177.544 10.5909C178.288 11.1591 178.817 11.9091 179.129 12.8409ZM187.714 23.2727C186.532 23.2727 185.495 22.9915 184.603 22.429C183.717 21.8665 183.023 21.0795 182.523 20.0682C182.029 19.0568 181.782 17.875 181.782 16.5227C181.782 15.1591 182.029 13.9687 182.523 12.9517C183.023 11.9347 183.717 11.1449 184.603 10.5824C185.495 10.0199 186.532 9.73864 187.714 9.73864C188.896 9.73864 189.93 10.0199 190.816 10.5824C191.708 11.1449 192.401 11.9347 192.896 12.9517C193.396 13.9687 193.646 15.1591 193.646 16.5227C193.646 17.875 193.396 19.0568 192.896 20.0682C192.401 21.0795 191.708 21.8665 190.816 22.429C189.93 22.9915 188.896 23.2727 187.714 23.2727ZM187.714 21.4659C188.612 21.4659 189.35 21.2358 189.93 20.7756C190.509 20.3153 190.938 19.7102 191.217 18.9602C191.495 18.2102 191.634 17.3977 191.634 16.5227C191.634 15.6477 191.495 14.8324 191.217 14.0767C190.938 13.321 190.509 12.7102 189.93 12.2443C189.35 11.7784 188.612 11.5455 187.714 11.5455C186.816 11.5455 186.077 11.7784 185.498 12.2443C184.918 12.7102 184.489 13.321 184.211 14.0767C183.933 14.8324 183.793 15.6477 183.793 16.5227C183.793 17.3977 183.933 18.2102 184.211 18.9602C184.489 19.7102 184.918 20.3153 185.498 20.7756C186.077 21.2358 186.816 21.4659 187.714 21.4659ZM196.716 23V9.90909H198.659V11.8864H198.795C199.034 11.2386 199.466 10.7131 200.091 10.3097C200.716 9.90625 201.42 9.70454 202.205 9.70454C202.352 9.70454 202.537 9.70739 202.759 9.71307C202.98 9.71875 203.148 9.72727 203.261 9.73864V11.7841C203.193 11.767 203.037 11.7415 202.793 11.7074C202.554 11.6676 202.301 11.6477 202.034 11.6477C201.398 11.6477 200.83 11.7812 200.33 12.0483C199.835 12.3097 199.443 12.6733 199.153 13.1392C198.869 13.5994 198.727 14.125 198.727 14.7159V23H196.716ZM210.736 23.2727C209.474 23.2727 208.386 22.9943 207.472 22.4375C206.562 21.875 205.861 21.0909 205.366 20.0852C204.878 19.0739 204.634 17.8977 204.634 16.5568C204.634 15.2159 204.878 14.0341 205.366 13.0114C205.861 11.983 206.548 11.1818 207.429 10.608C208.315 10.0284 209.349 9.73864 210.531 9.73864C211.213 9.73864 211.886 9.85227 212.551 10.0795C213.216 10.3068 213.821 10.6761 214.366 11.1875C214.912 11.6932 215.347 12.3636 215.67 13.1989C215.994 14.0341 216.156 15.0625 216.156 16.2841V17.1364H206.065V15.3977H214.111C214.111 14.6591 213.963 14 213.668 13.4205C213.378 12.8409 212.963 12.3835 212.423 12.0483C211.889 11.7131 211.259 11.5455 210.531 11.5455C209.73 11.5455 209.037 11.7443 208.452 12.142C207.872 12.5341 207.426 13.0455 207.114 13.6761C206.801 14.3068 206.645 14.983 206.645 15.7045V16.8636C206.645 17.8523 206.815 18.6903 207.156 19.3778C207.503 20.0597 207.983 20.5795 208.597 20.9375C209.21 21.2898 209.923 21.4659 210.736 21.4659C211.264 21.4659 211.741 21.392 212.168 21.2443C212.599 21.0909 212.972 20.8636 213.284 20.5625C213.597 20.2557 213.838 19.875 214.009 19.4205L215.952 19.9659C215.747 20.625 215.403 21.2045 214.92 21.7045C214.438 22.1989 213.841 22.5852 213.131 22.8636C212.42 23.1364 211.622 23.2727 210.736 23.2727ZM228.489 12.8409L226.682 13.3523C226.568 13.0511 226.401 12.7585 226.179 12.4744C225.963 12.1847 225.668 11.946 225.293 11.7585C224.918 11.571 224.438 11.4773 223.852 11.4773C223.051 11.4773 222.384 11.6619 221.849 12.0312C221.321 12.3949 221.057 12.858 221.057 13.4205C221.057 13.9205 221.239 14.3153 221.602 14.6051C221.966 14.8949 222.534 15.1364 223.307 15.3295L225.25 15.8068C226.42 16.0909 227.293 16.5256 227.866 17.1108C228.44 17.6903 228.727 18.4375 228.727 19.3523C228.727 20.1023 228.511 20.7727 228.08 21.3636C227.653 21.9545 227.057 22.4205 226.29 22.7614C225.523 23.1023 224.631 23.2727 223.614 23.2727C222.278 23.2727 221.173 22.983 220.298 22.4034C219.423 21.8239 218.869 20.9773 218.636 19.8636L220.545 19.3864C220.727 20.0909 221.071 20.6193 221.577 20.9716C222.088 21.3239 222.756 21.5 223.58 21.5C224.517 21.5 225.261 21.3011 225.812 20.9034C226.369 20.5 226.648 20.017 226.648 19.4545C226.648 19 226.489 18.6193 226.17 18.3125C225.852 18 225.364 17.767 224.705 17.6136L222.523 17.1023C221.324 16.8182 220.443 16.3778 219.881 15.7812C219.324 15.179 219.045 14.4261 219.045 13.5227C219.045 12.7841 219.253 12.1307 219.668 11.5625C220.088 10.9943 220.659 10.5483 221.381 10.2244C222.108 9.90057 222.932 9.73864 223.852 9.73864C225.148 9.73864 226.165 10.0227 226.903 10.5909C227.648 11.1591 228.176 11.9091 228.489 12.8409Z" fill="black"/>
</svg>
