<svg width="1330" height="63" viewBox="0 0 1330 63" fill="none" xmlns="http://www.w3.org/2000/svg">
<path d="M3.52 62C1.824 62 0.976 61.152 0.976 59.456V2.672C0.976 0.975998 1.824 0.127998 3.52 0.127998C4.416 0.127998 5.28 0.623999 6.112 1.616L46.768 53.84H45.616V2.672C45.616 0.975998 46.464 0.127998 48.16 0.127998C49.824 0.127998 50.656 0.975998 50.656 2.672V59.456C50.656 61.152 49.824 62 48.16 62C47.232 62 46.368 61.504 45.568 60.512L4.864 8.288H6.016V59.456C6.016 61.152 5.184 62 3.52 62ZM87.2898 62C80.3458 62 75.2738 60.4 72.0738 57.2C68.8738 54 67.2738 48.928 67.2738 41.984V20.096C67.2738 13.088 68.8738 8 72.0738 4.832C75.2738 1.632 80.3138 0.0639992 87.1938 0.127998H98.8098C105.754 0.127998 110.81 1.728 113.978 4.928C117.178 8.128 118.778 13.2 118.778 20.144V41.984C118.778 48.928 117.178 54 113.978 57.2C110.81 60.4 105.754 62 98.8098 62H87.2898ZM87.2898 56.96H98.8098C102.49 56.96 105.418 56.48 107.594 55.52C109.77 54.56 111.338 52.992 112.298 50.816C113.258 48.64 113.738 45.696 113.738 41.984V20.144C113.738 16.464 113.258 13.536 112.298 11.36C111.338 9.184 109.77 7.616 107.594 6.656C105.418 5.664 102.49 5.168 98.8098 5.168H87.1938C83.5138 5.136 80.5858 5.6 78.4098 6.56C76.2658 7.488 74.7138 9.056 73.7538 11.264C72.7938 13.44 72.3138 16.384 72.3138 20.096V41.984C72.3138 45.696 72.7938 48.64 73.7538 50.816C74.7138 52.992 76.2818 54.56 78.4578 55.52C80.6338 56.48 83.5778 56.96 87.2898 56.96ZM149.858 62.048C149.09 62.048 148.466 61.824 147.986 61.376C147.538 60.928 147.314 60.32 147.314 59.552V5.12H126.914C126.146 5.12 125.522 4.896 125.042 4.448C124.594 4 124.37 3.392 124.37 2.62399C124.37 1.856 124.594 1.248 125.042 0.799995C125.522 0.319996 126.146 0.0799961 126.914 0.0799961H172.802C173.57 0.0799961 174.178 0.319996 174.626 0.799995C175.074 1.248 175.298 1.856 175.298 2.62399C175.298 3.392 175.074 4 174.626 4.448C174.178 4.896 173.57 5.12 172.802 5.12H152.354V59.552C152.354 60.288 152.114 60.896 151.634 61.376C151.186 61.824 150.594 62.048 149.858 62.048ZM188.583 62C187.783 62 187.159 61.776 186.711 61.328C186.263 60.88 186.039 60.256 186.039 59.456V2.62399C186.039 1.824 186.263 1.2 186.711 0.751999C187.159 0.303997 187.783 0.0799961 188.583 0.0799961C189.351 0.0799961 189.959 0.303997 190.407 0.751999C190.855 1.2 191.079 1.824 191.079 2.62399V59.456C191.079 60.256 190.855 60.88 190.407 61.328C189.959 61.776 189.351 62 188.583 62ZM227.727 62C220.783 62 215.711 60.4 212.511 57.2C209.311 54 207.711 48.928 207.711 41.984V20.144C207.711 13.136 209.295 8.048 212.463 4.88C215.663 1.712 220.719 0.127998 227.631 0.127998H239.247C245.135 0.127998 249.519 1.36 252.399 3.824C255.279 6.256 256.863 10.176 257.151 15.584C257.247 16.448 257.071 17.104 256.623 17.552C256.207 18 255.583 18.224 254.751 18.224C253.151 18.224 252.271 17.376 252.111 15.68C251.887 11.712 250.799 8.976 248.847 7.472C246.895 5.936 243.695 5.168 239.247 5.168H227.631C223.951 5.168 221.023 5.648 218.847 6.608C216.671 7.536 215.103 9.104 214.143 11.312C213.215 13.488 212.751 16.432 212.751 20.144V41.984C212.751 45.696 213.231 48.64 214.191 50.816C215.151 52.992 216.719 54.56 218.895 55.52C221.071 56.48 224.015 56.96 227.727 56.96H239.247C243.695 56.96 246.895 56.208 248.847 54.704C250.799 53.168 251.887 50.416 252.111 46.448C252.271 44.752 253.151 43.904 254.751 43.904C255.583 43.904 256.207 44.144 256.623 44.624C257.071 45.072 257.247 45.712 257.151 46.544C256.863 51.952 255.279 55.888 252.399 58.352C249.519 60.784 245.135 62 239.247 62H227.727ZM275.395 62C274.595 62 273.971 61.776 273.523 61.328C273.075 60.88 272.851 60.256 272.851 59.456V2.62399C272.851 1.824 273.075 1.2 273.523 0.751999C273.971 0.303997 274.595 0.0799961 275.395 0.0799961C276.163 0.0799961 276.771 0.303997 277.219 0.751999C277.667 1.2 277.891 1.824 277.891 2.62399V59.456C277.891 60.256 277.667 60.88 277.219 61.328C276.771 61.776 276.163 62 275.395 62ZM290.972 61.76C289.436 61.088 288.972 59.968 289.58 58.4L313.388 2.096C313.9 0.783998 314.844 0.127998 316.22 0.127998H316.508C317.82 0.159996 318.748 0.815996 319.292 2.096L343.1 58.4C343.74 59.968 343.292 61.088 341.756 61.76C340.188 62.4 339.1 61.952 338.492 60.416L332.108 45.296H300.668L294.284 60.416C293.644 61.952 292.54 62.4 290.972 61.76ZM302.732 40.256H329.996L316.364 8.096L302.732 40.256ZM367.77 61.904C362.042 61.904 357.786 60.64 355.002 58.112C352.25 55.552 350.778 51.536 350.586 46.064C350.554 45.296 350.762 44.688 351.21 44.24C351.69 43.76 352.314 43.52 353.082 43.52C353.85 43.52 354.458 43.744 354.906 44.192C355.354 44.64 355.61 45.248 355.674 46.016C355.802 50.048 356.762 52.864 358.554 54.464C360.346 56.064 363.418 56.864 367.77 56.864H381.594C386.138 56.864 389.29 55.984 391.05 54.224C392.842 52.432 393.738 49.296 393.738 44.816C393.738 40.272 392.842 37.12 391.05 35.36C389.29 33.568 386.138 32.672 381.594 32.672H368.442C362.81 32.672 358.682 31.36 356.058 28.736C353.434 26.112 352.122 22 352.122 16.4C352.122 10.8 353.418 6.688 356.01 4.064C358.634 1.44 362.746 0.127998 368.346 0.127998H381.786C387.162 0.127998 391.146 1.328 393.738 3.72799C396.362 6.128 397.77 9.904 397.962 15.056C398.026 15.824 397.818 16.448 397.338 16.928C396.89 17.376 396.266 17.6 395.466 17.6C394.73 17.6 394.138 17.376 393.69 16.928C393.242 16.48 392.986 15.872 392.922 15.104C392.794 11.424 391.898 8.848 390.234 7.376C388.57 5.904 385.754 5.168 381.786 5.168H368.346C364.154 5.168 361.242 6 359.61 7.664C357.978 9.296 357.162 12.208 357.162 16.4C357.162 20.592 357.978 23.52 359.61 25.184C361.274 26.816 364.218 27.632 368.442 27.632H381.594C387.546 27.632 391.898 29.024 394.65 31.808C397.402 34.56 398.778 38.896 398.778 44.816C398.778 50.736 397.402 55.072 394.65 57.824C391.898 60.544 387.546 61.904 381.594 61.904H367.77ZM434.691 61.76C433.155 61.088 432.691 59.968 433.299 58.4L457.107 2.096C457.619 0.783998 458.563 0.127998 459.939 0.127998H460.227C461.539 0.159996 462.467 0.815996 463.011 2.096L486.819 58.4C487.459 59.968 487.011 61.088 485.475 61.76C483.907 62.4 482.819 61.952 482.211 60.416L475.827 45.296H444.387L438.003 60.416C437.363 61.952 436.259 62.4 434.691 61.76ZM446.451 40.256H473.715L460.083 8.096L446.451 40.256ZM509.108 62.048C508.34 62.048 507.716 61.824 507.236 61.376C506.788 60.928 506.564 60.32 506.564 59.552V5.12H486.164C485.396 5.12 484.772 4.896 484.292 4.448C483.844 4 483.62 3.392 483.62 2.62399C483.62 1.856 483.844 1.248 484.292 0.799995C484.772 0.319996 485.396 0.0799961 486.164 0.0799961H532.052C532.82 0.0799961 533.428 0.319996 533.876 0.799995C534.324 1.248 534.548 1.856 534.548 2.62399C534.548 3.392 534.324 4 533.876 4.448C533.428 4.896 532.82 5.12 532.052 5.12H511.604V59.552C511.604 60.288 511.364 60.896 510.884 61.376C510.436 61.824 509.844 62.048 509.108 62.048ZM532.753 61.76C531.217 61.088 530.753 59.968 531.361 58.4L555.169 2.096C555.681 0.783998 556.625 0.127998 558.001 0.127998H558.289C559.601 0.159996 560.529 0.815996 561.073 2.096L584.881 58.4C585.521 59.968 585.073 61.088 583.537 61.76C581.969 62.4 580.881 61.952 580.273 60.416L573.889 45.296H542.449L536.065 60.416C535.425 61.952 534.321 62.4 532.753 61.76ZM544.513 40.256H571.777L558.145 8.096L544.513 40.256ZM599.114 62C597.418 62 596.57 61.152 596.57 59.456V2.672C596.57 0.975998 597.418 0.127998 599.114 0.127998C600.01 0.127998 600.874 0.623999 601.706 1.616L642.362 53.84H641.21V2.672C641.21 0.975998 642.058 0.127998 643.754 0.127998C645.418 0.127998 646.25 0.975998 646.25 2.672V59.456C646.25 61.152 645.418 62 643.754 62C642.826 62 641.962 61.504 641.162 60.512L600.458 8.288H601.61V59.456C601.61 61.152 600.778 62 599.114 62ZM659.316 61.76C657.78 61.088 657.316 59.968 657.924 58.4L681.732 2.096C682.244 0.783998 683.188 0.127998 684.564 0.127998H684.852C686.164 0.159996 687.092 0.815996 687.636 2.096L711.444 58.4C712.084 59.968 711.636 61.088 710.1 61.76C708.532 62.4 707.444 61.952 706.836 60.416L700.452 45.296H669.012L662.628 60.416C661.988 61.952 660.884 62.4 659.316 61.76ZM671.076 40.256H698.34L684.708 8.096L671.076 40.256ZM736.114 61.904C730.386 61.904 726.13 60.64 723.346 58.112C720.594 55.552 719.122 51.536 718.93 46.064C718.898 45.296 719.106 44.688 719.554 44.24C720.034 43.76 720.658 43.52 721.426 43.52C722.194 43.52 722.802 43.744 723.25 44.192C723.698 44.64 723.954 45.248 724.018 46.016C724.146 50.048 725.106 52.864 726.898 54.464C728.69 56.064 731.762 56.864 736.114 56.864H749.938C754.482 56.864 757.634 55.984 759.394 54.224C761.186 52.432 762.082 49.296 762.082 44.816C762.082 40.272 761.186 37.12 759.394 35.36C757.634 33.568 754.482 32.672 749.938 32.672H736.786C731.154 32.672 727.026 31.36 724.402 28.736C721.778 26.112 720.466 22 720.466 16.4C720.466 10.8 721.762 6.688 724.354 4.064C726.978 1.44 731.09 0.127998 736.69 0.127998H750.13C755.506 0.127998 759.49 1.328 762.082 3.72799C764.706 6.128 766.114 9.904 766.306 15.056C766.37 15.824 766.162 16.448 765.682 16.928C765.234 17.376 764.61 17.6 763.81 17.6C763.074 17.6 762.482 17.376 762.034 16.928C761.586 16.48 761.33 15.872 761.266 15.104C761.138 11.424 760.242 8.848 758.578 7.376C756.914 5.904 754.098 5.168 750.13 5.168H736.69C732.498 5.168 729.586 6 727.954 7.664C726.322 9.296 725.506 12.208 725.506 16.4C725.506 20.592 726.322 23.52 727.954 25.184C729.618 26.816 732.562 27.632 736.786 27.632H749.938C755.89 27.632 760.242 29.024 762.994 31.808C765.746 34.56 767.122 38.896 767.122 44.816C767.122 50.736 765.746 55.072 762.994 57.824C760.242 60.544 755.89 61.904 749.938 61.904H736.114ZM786.333 62C785.533 62 784.909 61.776 784.461 61.328C784.013 60.88 783.789 60.256 783.789 59.456V2.62399C783.789 1.824 784.013 1.2 784.461 0.751999C784.909 0.303997 785.533 0.0799961 786.333 0.0799961C787.101 0.0799961 787.709 0.303997 788.157 0.751999C788.605 1.2 788.829 1.824 788.829 2.62399V59.456C788.829 60.256 788.605 60.88 788.157 61.328C787.709 61.776 787.101 62 786.333 62ZM825.477 62C818.533 62 813.461 60.4 810.261 57.2C807.061 54 805.461 48.928 805.461 41.984V20.096C805.461 13.088 807.061 8 810.261 4.832C813.461 1.632 818.501 0.0639992 825.381 0.127998H836.997C843.941 0.127998 848.997 1.728 852.165 4.928C855.365 8.128 856.965 13.2 856.965 20.144V41.984C856.965 48.928 855.365 54 852.165 57.2C848.997 60.4 843.941 62 836.997 62H825.477ZM825.477 56.96H836.997C840.677 56.96 843.605 56.48 845.781 55.52C847.957 54.56 849.525 52.992 850.485 50.816C851.445 48.64 851.925 45.696 851.925 41.984V20.144C851.925 16.464 851.445 13.536 850.485 11.36C849.525 9.184 847.957 7.616 845.781 6.656C843.605 5.664 840.677 5.168 836.997 5.168H825.381C821.701 5.136 818.773 5.6 816.597 6.56C814.453 7.488 812.901 9.056 811.941 11.264C810.981 13.44 810.501 16.384 810.501 20.096V41.984C810.501 45.696 810.981 48.64 811.941 50.816C812.901 52.992 814.469 54.56 816.645 55.52C818.821 56.48 821.765 56.96 825.477 56.96ZM916.415 62C909.471 62 904.399 60.4 901.199 57.2C897.999 54 896.399 48.928 896.399 41.984V20.144C896.399 13.136 897.983 8.048 901.151 4.88C904.351 1.712 909.407 0.127998 916.319 0.127998H927.935C933.823 0.127998 938.207 1.36 941.087 3.824C943.967 6.256 945.551 10.176 945.839 15.584C945.935 16.448 945.759 17.104 945.311 17.552C944.895 18 944.271 18.224 943.439 18.224C941.839 18.224 940.959 17.376 940.799 15.68C940.575 11.712 939.487 8.976 937.535 7.472C935.583 5.936 932.383 5.168 927.935 5.168H916.319C912.639 5.168 909.711 5.648 907.535 6.608C905.359 7.536 903.791 9.104 902.831 11.312C901.903 13.488 901.439 16.432 901.439 20.144V41.984C901.439 45.696 901.919 48.64 902.879 50.816C903.839 52.992 905.407 54.56 907.583 55.52C909.759 56.48 912.703 56.96 916.415 56.96H927.935C931.199 56.96 933.775 56.56 935.663 55.76C937.583 54.96 938.943 53.616 939.743 51.728C940.543 49.84 940.943 47.232 940.943 43.904V37.904L930.431 37.808C928.767 37.808 927.935 36.96 927.935 35.264C927.935 33.6 928.767 32.768 930.431 32.768L943.487 32.864C945.151 32.864 945.983 33.696 945.983 35.36V43.904C945.983 50.24 944.559 54.848 941.711 57.728C938.863 60.576 934.271 62 927.935 62H916.415ZM964.176 62C963.376 62 962.752 61.776 962.304 61.328C961.856 60.88 961.632 60.256 961.632 59.456V2.62399C961.632 1.824 961.856 1.2 962.304 0.751999C962.752 0.303997 963.376 0.0799961 964.176 0.0799961C964.944 0.0799961 965.552 0.303997 966 0.751999C966.448 1.2 966.672 1.824 966.672 2.62399V59.456C966.672 60.256 966.448 60.88 966 61.328C965.552 61.776 964.944 62 964.176 62ZM1026.46 62.096C1025.75 62.512 1025.11 62.656 1024.54 62.528C1023.96 62.4 1023.45 62 1023 61.328L1007.26 36.272H989.641V59.456C989.641 61.152 988.809 62 987.145 62C985.449 62 984.601 61.152 984.601 59.456V2.672C984.601 0.975998 985.449 0.127998 987.145 0.127998H1009.61C1015.08 0.127998 1019.21 1.536 1021.99 4.352C1024.81 7.168 1026.22 11.312 1026.22 16.784V19.664C1026.22 24.496 1025.11 28.288 1022.91 31.04C1020.7 33.792 1017.43 35.472 1013.11 36.08L1027.27 58.64C1028.17 60.112 1027.9 61.264 1026.46 62.096ZM989.641 31.232H1009.61C1013.64 31.232 1016.57 30.32 1018.39 28.496C1020.25 26.64 1021.18 23.696 1021.18 19.664V16.784C1021.18 12.72 1020.25 9.776 1018.39 7.952C1016.57 6.096 1013.64 5.168 1009.61 5.168H989.641V31.232ZM1036.66 61.76C1035.12 61.088 1034.66 59.968 1035.27 58.4L1059.08 2.096C1059.59 0.783998 1060.53 0.127998 1061.91 0.127998H1062.2C1063.51 0.159996 1064.44 0.815996 1064.98 2.096L1088.79 58.4C1089.43 59.968 1088.98 61.088 1087.44 61.76C1085.88 62.4 1084.79 61.952 1084.18 60.416L1077.8 45.296H1046.36L1039.97 60.416C1039.33 61.952 1038.23 62.4 1036.66 61.76ZM1048.42 40.256H1075.68L1062.05 8.096L1048.42 40.256ZM1142.33 62.096C1141.63 62.512 1140.99 62.656 1140.41 62.528C1139.84 62.4 1139.32 62 1138.88 61.328L1123.13 36.272H1105.52V59.456C1105.52 61.152 1104.68 62 1103.02 62C1101.32 62 1100.48 61.152 1100.48 59.456V2.672C1100.48 0.975998 1101.32 0.127998 1103.02 0.127998H1125.48C1130.96 0.127998 1135.08 1.536 1137.87 4.352C1140.68 7.168 1142.09 11.312 1142.09 16.784V19.664C1142.09 24.496 1140.99 28.288 1138.78 31.04C1136.57 33.792 1133.31 35.472 1128.99 36.08L1143.15 58.64C1144.04 60.112 1143.77 61.264 1142.33 62.096ZM1105.52 31.232H1125.48C1129.52 31.232 1132.44 30.32 1134.27 28.496C1136.12 26.64 1137.05 23.696 1137.05 19.664V16.784C1137.05 12.72 1136.12 9.776 1134.27 7.952C1132.44 6.096 1129.52 5.168 1125.48 5.168H1105.52V31.232ZM1159.93 62C1158.23 62 1157.38 61.152 1157.38 59.456V2.672C1157.38 0.975998 1158.23 0.127998 1159.93 0.127998H1183.06C1191.03 0.127998 1196.82 1.952 1200.44 5.6C1204.09 9.248 1205.91 15.056 1205.91 23.024V39.104C1205.91 47.072 1204.09 52.88 1200.44 56.528C1196.82 60.176 1191.03 62 1183.06 62H1159.93ZM1162.42 56.96H1183.06C1187.41 56.96 1190.89 56.384 1193.48 55.232C1196.1 54.08 1197.99 52.208 1199.14 49.616C1200.29 46.992 1200.87 43.488 1200.87 39.104V23.024C1200.87 18.672 1200.29 15.2 1199.14 12.608C1197.99 9.984 1196.1 8.096 1193.48 6.944C1190.89 5.76 1187.41 5.168 1183.06 5.168H1162.42V56.96ZM1241.26 62C1234.31 62 1229.24 60.4 1226.04 57.2C1222.84 54 1221.24 48.928 1221.24 41.984V20.096C1221.24 13.088 1222.84 8 1226.04 4.832C1229.24 1.632 1234.28 0.0639992 1241.16 0.127998H1252.78C1259.72 0.127998 1264.78 1.728 1267.95 4.928C1271.15 8.128 1272.75 13.2 1272.75 20.144V41.984C1272.75 48.928 1271.15 54 1267.95 57.2C1264.78 60.4 1259.72 62 1252.78 62H1241.26ZM1241.26 56.96H1252.78C1256.46 56.96 1259.39 56.48 1261.56 55.52C1263.74 54.56 1265.31 52.992 1266.27 50.816C1267.23 48.64 1267.71 45.696 1267.71 41.984V20.144C1267.71 16.464 1267.23 13.536 1266.27 11.36C1265.31 9.184 1263.74 7.616 1261.56 6.656C1259.39 5.664 1256.46 5.168 1252.78 5.168H1241.16C1237.48 5.136 1234.55 5.6 1232.38 6.56C1230.23 7.488 1228.68 9.056 1227.72 11.264C1226.76 13.44 1226.28 16.384 1226.28 20.096V41.984C1226.28 45.696 1226.76 48.64 1227.72 50.816C1228.68 52.992 1230.25 54.56 1232.43 55.52C1234.6 56.48 1237.55 56.96 1241.26 56.96ZM1303.83 62.048C1303.06 62.048 1302.43 61.824 1301.95 61.376C1301.51 60.928 1301.28 60.32 1301.28 59.552V5.12H1280.88C1280.11 5.12 1279.49 4.896 1279.01 4.448C1278.56 4 1278.34 3.392 1278.34 2.62399C1278.34 1.856 1278.56 1.248 1279.01 0.799995C1279.49 0.319996 1280.11 0.0799961 1280.88 0.0799961H1326.77C1327.54 0.0799961 1328.15 0.319996 1328.59 0.799995C1329.04 1.248 1329.27 1.856 1329.27 2.62399C1329.27 3.392 1329.04 4 1328.59 4.448C1328.15 4.896 1327.54 5.12 1326.77 5.12H1306.32V59.552C1306.32 60.288 1306.08 60.896 1305.6 61.376C1305.15 61.824 1304.56 62.048 1303.83 62.048Z" fill="#54925E"/>
<path d="M6.112 1.616L6.90108 1.00171L6.88989 0.987339L6.87819 0.973387L6.112 1.616ZM46.768 53.84V54.84H48.8138L47.5571 53.2257L46.768 53.84ZM45.616 53.84H44.616V54.84H45.616V53.84ZM45.568 60.512L44.7793 61.1267L44.7844 61.1333L44.7896 61.1398L45.568 60.512ZM4.864 8.28799V7.28799H2.81672L4.07527 8.90274L4.864 8.28799ZM6.016 8.28799H7.016V7.28799H6.016V8.28799ZM3.52 61C2.82615 61 2.48943 60.8272 2.31911 60.6569C2.14879 60.4866 1.976 60.1499 1.976 59.456H-0.0239997C-0.0239997 60.4581 0.227214 61.3934 0.904894 62.0711C1.58257 62.7488 2.51786 63 3.52 63V61ZM1.976 59.456V2.672H-0.0239997V59.456H1.976ZM1.976 2.672C1.976 1.97814 2.14879 1.64143 2.31911 1.4711C2.48943 1.30079 2.82615 1.128 3.52 1.128V-0.872002C2.51786 -0.872002 1.58257 -0.620789 0.904894 0.0568905C0.227214 0.734571 -0.0239997 1.66985 -0.0239997 2.672H1.976ZM3.52 1.128C4.00718 1.128 4.61657 1.38914 5.34581 2.25861L6.87819 0.973387C5.94343 -0.141138 4.82482 -0.872002 3.52 -0.872002V1.128ZM5.32292 2.23029L45.9789 54.4543L47.5571 53.2257L6.90108 1.00171L5.32292 2.23029ZM46.768 52.84H45.616V54.84H46.768V52.84ZM46.616 53.84V2.672H44.616V53.84H46.616ZM46.616 2.672C46.616 1.97814 46.7888 1.64143 46.9591 1.4711C47.1294 1.30079 47.4661 1.128 48.16 1.128V-0.872002C47.1579 -0.872002 46.2226 -0.620789 45.5449 0.0568905C44.8672 0.734571 44.616 1.66985 44.616 2.672H46.616ZM48.16 1.128C48.833 1.128 49.1551 1.29814 49.3182 1.46434C49.4847 1.63406 49.656 1.97341 49.656 2.672H51.656C51.656 1.67459 51.4113 0.741941 50.7458 0.0636578C50.0769 -0.618147 49.151 -0.872002 48.16 -0.872002V1.128ZM49.656 2.672V59.456H51.656V2.672H49.656ZM49.656 59.456C49.656 60.1546 49.4847 60.4939 49.3182 60.6637C49.1551 60.8299 48.833 61 48.16 61V63C49.151 63 50.0769 62.7461 50.7458 62.0643C51.4113 61.3861 51.656 60.4534 51.656 59.456H49.656ZM48.16 61C47.6366 61 47.0316 60.7339 46.3464 59.8842L44.7896 61.1398C45.7044 62.2741 46.8274 63 48.16 63V61ZM46.3567 59.8973L5.65273 7.67325L4.07527 8.90274L44.7793 61.1267L46.3567 59.8973ZM4.864 9.28799H6.016V7.28799H4.864V9.28799ZM5.016 8.28799V59.456H7.016V8.28799H5.016ZM5.016 59.456C5.016 60.1546 4.84471 60.4939 4.67819 60.6637C4.51513 60.8299 4.19298 61 3.52 61V63C4.51102 63 5.43687 62.7461 6.10581 62.0643C6.7713 61.3861 7.016 60.4534 7.016 59.456H5.016ZM72.0738 57.2L72.7809 56.4929L72.0738 57.2ZM72.0738 4.83199L72.7773 5.54266L72.7809 5.5391L72.0738 4.83199ZM87.1938 0.127998L87.1844 1.128H87.1938V0.127998ZM113.978 4.928L113.267 5.63155L113.271 5.63511L113.978 4.928ZM113.978 57.2L113.271 56.4929L113.267 56.4965L113.978 57.2ZM107.594 55.52L107.19 54.6051L107.594 55.52ZM112.298 50.816L113.213 51.2196L112.298 50.816ZM112.298 11.36L113.213 10.9564L112.298 11.36ZM107.594 6.656L107.179 7.56598L107.19 7.57092L107.594 6.656ZM87.1938 5.168L87.1851 6.168H87.1938V5.168ZM78.4098 6.56L78.807 7.47774L78.8134 7.47491L78.4098 6.56ZM73.7538 11.264L74.6687 11.6676L74.6708 11.6627L73.7538 11.264ZM73.7538 50.816L72.8388 51.2196L73.7538 50.816ZM78.4577 55.52L78.0541 56.4349L78.4577 55.52ZM87.2897 61C80.4722 61 75.7139 59.4259 72.7809 56.4929L71.3666 57.9071C74.8336 61.3741 80.2193 63 87.2897 63V61ZM72.7809 56.4929C69.8478 53.5599 68.2738 48.8016 68.2738 41.984H66.2738C66.2738 49.0544 67.8997 54.4401 71.3666 57.9071L72.7809 56.4929ZM68.2738 41.984V20.096H66.2738V41.984H68.2738ZM68.2738 20.096C68.2738 13.2102 69.8498 8.44091 72.7773 5.54264L71.3702 4.12135C67.8977 7.55908 66.2738 12.9658 66.2738 20.096H68.2738ZM72.7809 5.5391C75.7119 2.60809 80.4352 1.06517 87.1844 1.12796L87.2031 -0.871958C80.1923 -0.937174 74.8356 0.655907 71.3666 4.12489L72.7809 5.5391ZM87.1938 1.128H98.8098V-0.872002H87.1938V1.128ZM98.8098 1.128C105.628 1.128 110.367 2.70255 113.267 5.63154L114.688 4.22446C111.252 0.753447 105.879 -0.872002 98.8098 -0.872002V1.128ZM113.271 5.63511C116.204 8.56812 117.778 13.3264 117.778 20.144H119.778C119.778 13.0736 118.152 7.68788 114.685 4.22089L113.271 5.63511ZM117.778 20.144V41.984H119.778V20.144H117.778ZM117.778 41.984C117.778 48.8016 116.204 53.5599 113.271 56.4929L114.685 57.9071C118.152 54.4401 119.778 49.0544 119.778 41.984H117.778ZM113.267 56.4965C110.367 59.4254 105.628 61 98.8098 61V63C105.879 63 111.252 61.3745 114.688 57.9035L113.267 56.4965ZM98.8098 61H87.2897V63H98.8098V61ZM87.2897 57.96H98.8098V55.96H87.2897V57.96ZM98.8098 57.96C102.56 57.96 105.644 57.4732 107.997 56.4349L107.19 54.6051C105.192 55.4868 102.419 55.96 98.8098 55.96V57.96ZM107.997 56.4349C110.402 55.3742 112.152 53.6239 113.213 51.2196L111.383 50.4124C110.524 52.3601 109.138 53.7458 107.19 54.6051L107.997 56.4349ZM113.213 51.2196C114.251 48.8653 114.738 45.7653 114.738 41.984H112.738C112.738 45.6267 112.264 48.4147 111.383 50.4124L113.213 51.2196ZM114.738 41.984V20.144H112.738V41.984H114.738ZM114.738 20.144C114.738 16.3933 114.251 13.3099 113.213 10.9564L111.383 11.7636C112.265 13.7621 112.738 16.5347 112.738 20.144H114.738ZM113.213 10.9564C112.152 8.55213 110.402 6.80177 107.997 5.74108L107.19 7.57092C109.138 8.43023 110.524 9.81587 111.383 11.7636L113.213 10.9564ZM108.009 5.74609C105.651 4.67142 102.563 4.168 98.8098 4.168V6.168C102.416 6.168 105.184 6.65657 107.179 7.56591L108.009 5.74609ZM98.8098 4.168H87.1938V6.168H98.8098V4.168ZM87.2024 4.16804C83.4503 4.13541 80.3634 4.60508 78.0061 5.64508L78.8134 7.47491C80.8081 6.59491 83.5772 6.13659 87.1851 6.16796L87.2024 4.16804ZM78.0125 5.64227C75.6279 6.67442 73.8944 8.43246 72.8367 10.8653L74.6708 11.6627C75.5331 9.67953 76.9036 8.30157 78.807 7.47772L78.0125 5.64227ZM72.8388 10.8604C71.8001 13.2147 71.3138 16.3147 71.3138 20.096H73.3138C73.3138 16.4533 73.7874 13.6653 74.6687 11.6676L72.8388 10.8604ZM71.3138 20.096V41.984H73.3138V20.096H71.3138ZM71.3138 41.984C71.3138 45.7653 71.8001 48.8653 72.8388 51.2196L74.6687 50.4124C73.7874 48.4147 73.3138 45.6267 73.3138 41.984H71.3138ZM72.8388 51.2196C73.8995 53.6239 75.6499 55.3742 78.0541 56.4349L78.8614 54.6051C76.9136 53.7458 75.528 52.3601 74.6687 50.4124L72.8388 51.2196ZM78.0541 56.4349C80.4085 57.4736 83.5085 57.96 87.2897 57.96V55.96C83.647 55.96 80.859 55.4864 78.8614 54.6051L78.0541 56.4349ZM147.986 61.376L147.279 62.0831L147.291 62.0953L147.303 62.1071L147.986 61.376ZM147.314 5.12H148.314V4.12H147.314V5.12ZM125.042 4.448L124.335 5.15511L124.347 5.16729L124.359 5.17906L125.042 4.448ZM125.042 0.799995L124.335 0.0928879V0.0928898L125.042 0.799995ZM174.626 0.799995L173.895 1.48232L173.906 1.49492L173.919 1.5071L174.626 0.799995ZM174.626 4.448L175.333 5.15511L175.333 5.15511L174.626 4.448ZM152.354 5.12V4.12H151.354V5.12H152.354ZM151.634 61.376L152.341 62.0831L151.634 61.376ZM149.858 61.048C149.297 61.048 148.932 60.8912 148.668 60.6449L147.303 62.1071C148 62.7568 148.882 63.048 149.858 63.048V61.048ZM148.693 60.6689C148.471 60.447 148.314 60.1148 148.314 59.552H146.314C146.314 60.5252 146.605 61.409 147.279 62.0831L148.693 60.6689ZM148.314 59.552V5.12H146.314V59.552H148.314ZM147.314 4.12H126.914V6.12H147.314V4.12ZM126.914 4.12C126.353 4.12 125.988 3.96316 125.724 3.71694L124.359 5.17906C125.056 5.82883 125.938 6.12 126.914 6.12V4.12ZM125.749 3.74089C125.527 3.519 125.37 3.18682 125.37 2.62399H123.37C123.37 3.59718 123.661 4.481 124.335 5.15511L125.749 3.74089ZM125.37 2.62399C125.37 2.06118 125.527 1.729 125.749 1.5071L124.335 0.0928898C123.661 0.766996 123.37 1.65082 123.37 2.62399H125.37ZM125.749 1.5071C126.016 1.23988 126.373 1.07999 126.914 1.07999V-0.920004C125.919 -0.920004 125.027 -0.59989 124.335 0.0928879L125.749 1.5071ZM126.914 1.07999H172.802V-0.920004H126.914V1.07999ZM172.802 1.07999C173.344 1.07999 173.668 1.23964 173.895 1.48232L175.357 0.117676C174.687 -0.599646 173.796 -0.920004 172.802 -0.920004V1.07999ZM173.919 1.5071C174.141 1.729 174.298 2.06118 174.298 2.62399H176.298C176.298 1.65082 176.007 0.766998 175.333 0.0928917L173.919 1.5071ZM174.298 2.62399C174.298 3.18682 174.141 3.519 173.919 3.74089L175.333 5.15511C176.007 4.481 176.298 3.59717 176.298 2.62399H174.298ZM173.919 3.74089C173.697 3.96278 173.365 4.12 172.802 4.12V6.12C173.775 6.12 174.659 5.82921 175.333 5.15511L173.919 3.74089ZM172.802 4.12H152.354V6.12H172.802V4.12ZM151.354 5.12V59.552H153.354V5.12H151.354ZM151.354 59.552C151.354 60.0474 151.202 60.3932 150.927 60.6689L152.341 62.0831C153.025 61.3988 153.354 60.5286 153.354 59.552H151.354ZM150.927 60.6689C150.697 60.8989 150.375 61.048 149.858 61.048V63.048C150.813 63.048 151.675 62.7491 152.341 62.0831L150.927 60.6689ZM186.71 61.328L187.418 60.6209L186.71 61.328ZM186.71 0.751999L187.418 1.45911V1.4591L186.71 0.751999ZM190.406 0.751999L189.699 1.45911H189.699L190.406 0.751999ZM190.406 61.328L191.114 62.0351L190.406 61.328ZM188.583 61C187.974 61 187.632 60.8352 187.418 60.6209L186.003 62.0351C186.685 62.7168 187.591 63 188.583 63V61ZM187.418 60.6209C187.203 60.4066 187.038 60.0641 187.038 59.456H185.038C185.038 60.4479 185.322 61.3534 186.003 62.0351L187.418 60.6209ZM187.038 59.456V2.62399H185.038V59.456H187.038ZM187.038 2.62399C187.038 2.01587 187.203 1.67339 187.418 1.45911L186.003 0.0448914C185.322 0.726599 185.038 1.63212 185.038 2.62399H187.038ZM187.418 1.4591C187.632 1.24481 187.974 1.07999 188.583 1.07999V-0.920004C187.591 -0.920004 186.685 -0.63682 186.003 0.0448933L187.418 1.4591ZM188.583 1.07999C189.145 1.07999 189.477 1.23721 189.699 1.45911L191.114 0.0448933C190.439 -0.629215 189.556 -0.920004 188.583 -0.920004V1.07999ZM189.699 1.45911C189.914 1.67339 190.079 2.01587 190.079 2.62399H192.079C192.079 1.63212 191.795 0.726599 191.114 0.0448914L189.699 1.45911ZM190.079 2.62399V59.456H192.079V2.62399H190.079ZM190.079 59.456C190.079 60.0641 189.914 60.4066 189.699 60.6209L191.114 62.0351C191.795 61.3534 192.079 60.4479 192.079 59.456H190.079ZM189.699 60.6209C189.477 60.8428 189.145 61 188.583 61V63C189.556 63 190.439 62.7092 191.114 62.0351L189.699 60.6209ZM212.511 57.2L213.218 56.4929L212.511 57.2ZM212.463 4.88L211.76 4.16934L211.756 4.17289L212.463 4.88ZM252.399 3.824L251.749 4.58387L251.754 4.58803L252.399 3.824ZM257.151 15.584L256.153 15.6372L256.154 15.6659L256.157 15.6944L257.151 15.584ZM256.623 17.552L255.916 16.8449L255.903 16.858L255.89 16.8715L256.623 17.552ZM252.111 15.68L251.113 15.7364L251.114 15.7552L251.116 15.7739L252.111 15.68ZM248.847 7.472L248.229 8.25791L248.237 8.26414L248.847 7.472ZM218.847 6.608L219.24 7.52791L219.251 7.52291L218.847 6.608ZM214.143 11.312L213.226 10.9133L213.223 10.9197L214.143 11.312ZM214.191 50.816L213.276 51.2196L214.191 50.816ZM218.895 55.52L218.492 56.4349L218.895 55.52ZM248.847 54.704L249.458 55.4962L249.466 55.4899L248.847 54.704ZM252.111 46.448L251.116 46.3541L251.114 46.3728L251.113 46.3916L252.111 46.448ZM256.623 44.624L255.868 45.2789L255.891 45.3059L255.916 45.3311L256.623 44.624ZM257.151 46.544L256.158 46.4294L256.154 46.46L256.153 46.4908L257.151 46.544ZM252.399 58.352L253.044 59.116L253.049 59.1119L252.399 58.352ZM227.727 61C220.91 61 216.151 59.4259 213.218 56.4929L211.804 57.9071C215.271 61.3741 220.657 63 227.727 63V61ZM213.218 56.4929C210.285 53.5599 208.711 48.8016 208.711 41.984H206.711C206.711 49.0544 208.337 54.4401 211.804 57.9071L213.218 56.4929ZM208.711 41.984V20.144H206.711V41.984H208.711ZM208.711 20.144C208.711 13.2558 210.272 8.48511 213.17 5.5871L211.756 4.17289C208.318 7.61088 206.711 13.0162 206.711 20.144H208.711ZM213.167 5.59065C216.1 2.68649 220.845 1.128 227.631 1.128V-0.872002C220.594 -0.872002 215.226 0.737509 211.76 4.16935L213.167 5.59065ZM227.631 1.128H239.247V-0.872002H227.631V1.128ZM239.247 1.128C245.023 1.128 249.127 2.3406 251.749 4.58385L253.049 3.06415C249.911 0.379395 245.248 -0.872002 239.247 -0.872002V1.128ZM251.754 4.58803C254.345 6.77605 255.873 10.3826 256.153 15.6372L258.15 15.5308C257.854 9.96938 256.213 5.73595 253.044 3.05997L251.754 4.58803ZM256.157 15.6944C256.233 16.3757 256.077 16.6842 255.916 16.8449L257.33 18.2591C258.066 17.5238 258.261 16.5203 258.145 15.4736L256.157 15.6944ZM255.89 16.8715C255.724 17.0503 255.409 17.224 254.751 17.224V19.224C255.757 19.224 256.69 18.9497 257.356 18.2324L255.89 16.8715ZM254.751 17.224C254.127 17.224 253.787 17.0621 253.585 16.8679C253.375 16.665 253.173 16.2893 253.107 15.5861L251.116 15.7739C251.209 16.7667 251.528 17.663 252.197 18.3081C252.876 18.9619 253.775 19.224 254.751 19.224V17.224ZM253.11 15.6236C252.879 11.54 251.749 8.4454 249.458 6.67986L248.237 8.26414C249.849 9.50659 250.895 11.8839 251.113 15.7364L253.11 15.6236ZM249.466 6.68613C247.244 4.93826 243.762 4.168 239.247 4.168V6.168C243.628 6.168 246.546 6.93374 248.229 8.25787L249.466 6.68613ZM239.247 4.168H227.631V6.168H239.247V4.168ZM227.631 4.168C223.881 4.168 220.797 4.65477 218.444 5.69308L219.251 7.52291C221.249 6.64123 224.022 6.168 227.631 6.168V4.168ZM218.455 5.68816C216.039 6.71838 214.286 8.47552 213.226 10.9133L215.06 11.7107C215.92 9.73248 217.303 8.35361 219.24 7.52784L218.455 5.68816ZM213.223 10.9197C212.221 13.2701 211.751 16.3655 211.751 20.144H213.751C213.751 16.4985 214.209 13.7059 215.063 11.7043L213.223 10.9197ZM211.751 20.144V41.984H213.751V20.144H211.751ZM211.751 41.984C211.751 45.7653 212.238 48.8653 213.276 51.2196L215.106 50.4124C214.225 48.4147 213.751 45.6267 213.751 41.984H211.751ZM213.276 51.2196C214.337 53.6239 216.087 55.3742 218.492 56.4349L219.299 54.6051C217.351 53.7458 215.965 52.3601 215.106 50.4124L213.276 51.2196ZM218.492 56.4349C220.846 57.4736 223.946 57.96 227.727 57.96V55.96C224.085 55.96 221.297 55.4864 219.299 54.6051L218.492 56.4349ZM227.727 57.96H239.247V55.96H227.727V57.96ZM239.247 57.96C243.759 57.96 247.238 57.2066 249.458 55.4961L248.237 53.9119C246.553 55.2094 243.631 55.96 239.247 55.96V57.96ZM249.466 55.4899C251.748 53.6936 252.879 50.5901 253.11 46.5044L251.113 46.3916C250.895 50.2419 249.85 52.6424 248.229 53.9181L249.466 55.4899ZM253.107 46.5419C253.173 45.8387 253.375 45.463 253.585 45.2601C253.787 45.0659 254.127 44.904 254.751 44.904V42.904C253.775 42.904 252.876 43.1661 252.197 43.8199C251.528 44.465 251.209 45.3613 251.116 46.3541L253.107 46.5419ZM254.751 44.904C255.389 44.904 255.696 45.0813 255.868 45.2789L257.379 43.9691C256.718 43.2067 255.778 42.904 254.751 42.904V44.904ZM255.916 45.3311C256.083 45.4981 256.231 45.7955 256.158 46.4294L258.145 46.6586C258.264 45.6285 258.059 44.6459 257.33 43.9169L255.916 45.3311ZM256.153 46.4908C255.873 51.7445 254.345 55.371 251.749 57.5921L253.049 59.1119C256.213 56.405 257.854 52.1595 258.15 46.5972L256.153 46.4908ZM251.754 57.588C249.132 59.8024 245.025 61 239.247 61V63C245.245 63 249.907 61.7656 253.044 59.116L251.754 57.588ZM239.247 61H227.727V63H239.247V61ZM273.523 61.328L274.23 60.6209L273.523 61.328ZM273.523 0.751999L274.23 1.45911V1.4591L273.523 0.751999ZM277.219 0.751999L276.512 1.45911L277.219 0.751999ZM277.219 61.328L277.926 62.0351L277.219 61.328ZM275.395 61C274.787 61 274.444 60.8352 274.23 60.6209L272.816 62.0351C273.498 62.7168 274.403 63 275.395 63V61ZM274.23 60.6209C274.016 60.4066 273.851 60.0641 273.851 59.456H271.851C271.851 60.4479 272.134 61.3534 272.816 62.0351L274.23 60.6209ZM273.851 59.456V2.62399H271.851V59.456H273.851ZM273.851 2.62399C273.851 2.01587 274.016 1.67339 274.23 1.45911L272.816 0.0448914C272.134 0.726599 271.851 1.63212 271.851 2.62399H273.851ZM274.23 1.4591C274.444 1.24481 274.787 1.07999 275.395 1.07999V-0.920004C274.403 -0.920004 273.498 -0.63682 272.816 0.0448933L274.23 1.4591ZM275.395 1.07999C275.958 1.07999 276.29 1.23721 276.512 1.45911L277.926 0.0448933C277.252 -0.629215 276.368 -0.920004 275.395 -0.920004V1.07999ZM276.512 1.45911C276.726 1.67339 276.891 2.01587 276.891 2.62399H278.891C278.891 1.63212 278.608 0.726599 277.926 0.0448914L276.512 1.45911ZM276.891 2.62399V59.456H278.891V2.62399H276.891ZM276.891 59.456C276.891 60.0641 276.726 60.4066 276.512 60.6209L277.926 62.0351C278.608 61.3534 278.891 60.4479 278.891 59.456H276.891ZM276.512 60.6209C276.29 60.8428 275.958 61 275.395 61V63C276.368 63 277.252 62.7092 277.926 62.0351L276.512 60.6209ZM290.972 61.76L290.571 62.6762L290.582 62.6811L290.594 62.6858L290.972 61.76ZM289.58 58.4L288.659 58.0105L288.653 58.0244L288.647 58.0385L289.58 58.4ZM313.388 2.096L314.309 2.48546L314.314 2.47257L314.319 2.45954L313.388 2.096ZM316.508 0.127998L316.532 -0.871704L316.52 -0.872002H316.508V0.127998ZM319.292 2.096L320.213 1.70654L320.212 1.70486L319.292 2.096ZM343.1 58.4L344.026 58.0221L344.021 58.0105L343.1 58.4ZM341.756 61.76L342.134 62.6858L342.145 62.6811L342.157 62.6762L341.756 61.76ZM338.492 60.416L339.422 60.048L339.417 60.0374L339.413 60.027L338.492 60.416ZM332.108 45.296L333.029 44.907L332.771 44.296H332.108V45.296ZM300.668 45.296V44.296H300.004L299.746 44.907L300.668 45.296ZM294.284 60.416L293.362 60.027L293.361 60.0314L294.284 60.416ZM302.732 40.256L301.811 39.8657L301.222 41.256H302.732V40.256ZM329.996 40.256V41.256H331.506L330.916 39.8657L329.996 40.256ZM316.364 8.096L317.284 7.70573L316.364 5.53365L315.443 7.70573L316.364 8.096ZM291.373 60.8438C290.749 60.5712 290.496 60.2757 290.396 60.0333C290.295 59.7902 290.265 59.3996 290.512 58.7615L288.647 58.0385C288.287 58.9684 288.185 59.9218 288.548 60.7987C288.911 61.6763 289.658 62.2768 290.571 62.6762L291.373 60.8438ZM290.501 58.7895L314.309 2.48546L312.467 1.70654L288.659 58.0105L290.501 58.7895ZM314.319 2.45954C314.52 1.94651 314.775 1.6326 315.05 1.44119C315.324 1.25099 315.695 1.128 316.22 1.128V-0.872002C315.369 -0.872002 314.579 -0.666996 313.909 -0.201191C313.241 0.263403 312.768 0.933483 312.456 1.73246L314.319 2.45954ZM316.22 1.128H316.508V-0.872002H316.22V1.128ZM316.483 1.1277C316.973 1.13963 317.333 1.26407 317.611 1.46058C317.892 1.65966 318.156 1.97977 318.371 2.48714L320.212 1.70486C319.884 0.93223 319.411 0.284338 318.765 -0.172581C318.115 -0.63208 317.355 -0.851637 316.532 -0.871704L316.483 1.1277ZM318.371 2.48546L342.179 58.7895L344.021 58.0105L320.213 1.70654L318.371 2.48546ZM342.174 58.7779C342.436 59.4197 342.41 59.8081 342.315 60.0446C342.222 60.2788 341.978 60.5714 341.355 60.8438L342.157 62.6762C343.07 62.2766 343.818 61.6732 344.172 60.7874C344.526 59.9039 344.404 58.9483 344.026 58.0221L342.174 58.7779ZM341.378 60.8342C340.73 61.0986 340.356 61.0665 340.145 60.9793C339.939 60.8946 339.667 60.6675 339.422 60.048L337.562 60.784C337.925 61.7005 338.501 62.4654 339.383 62.8287C340.259 63.1895 341.214 63.0614 342.134 62.6858L341.378 60.8342ZM339.413 60.027L333.029 44.907L331.186 45.685L337.57 60.805L339.413 60.027ZM332.108 44.296H300.668V46.296H332.108V44.296ZM299.746 44.907L293.362 60.027L295.205 60.805L301.589 45.685L299.746 44.907ZM293.361 60.0314C293.102 60.6524 292.82 60.8881 292.6 60.9774C292.376 61.0684 291.994 61.0973 291.35 60.8342L290.594 62.6858C291.517 63.0627 292.472 63.1877 293.352 62.8306C294.236 62.4719 294.826 61.7156 295.207 60.8006L293.361 60.0314ZM302.732 41.256H329.996V39.256H302.732V41.256ZM330.916 39.8657L317.284 7.70573L315.443 8.48627L329.075 40.6463L330.916 39.8657ZM315.443 7.70573L301.811 39.8657L303.652 40.6463L317.284 8.48627L315.443 7.70573ZM355.002 58.112L354.321 58.8442L354.33 58.8523L355.002 58.112ZM350.586 46.064L351.586 46.0289L351.585 46.0224L350.586 46.064ZM351.21 44.24L351.917 44.9471L351.21 44.24ZM354.906 44.192L354.199 44.8991L354.906 44.192ZM355.674 46.016L356.674 45.9843L356.673 45.9586L356.671 45.933L355.674 46.016ZM358.554 54.464L357.888 55.2099L358.554 54.464ZM391.05 54.224L390.343 53.5169L391.05 54.224ZM391.05 35.36L390.337 36.0607L390.343 36.0671L390.35 36.0734L391.05 35.36ZM356.058 28.736L356.765 28.0289L356.058 28.736ZM356.01 4.064L355.303 3.35688L355.299 3.36124L356.01 4.064ZM393.738 3.728L393.059 4.46177L393.063 4.4659L393.738 3.728ZM397.962 15.056L396.963 15.0932L396.964 15.1162L396.966 15.139L397.962 15.056ZM397.338 16.928L398.045 17.6351L397.338 16.928ZM393.69 16.928L394.397 16.2209L393.69 16.928ZM392.922 15.104L391.923 15.1388L391.924 15.1629L391.926 15.187L392.922 15.104ZM359.61 7.66399L360.317 8.37114L360.324 8.3642L359.61 7.66399ZM359.61 25.184L358.896 25.8842L358.903 25.8911L358.91 25.8979L359.61 25.184ZM394.65 31.808L393.939 32.511L393.943 32.5151L394.65 31.808ZM394.65 57.824L395.353 58.5352L395.357 58.5311L394.65 57.824ZM367.77 60.904C362.165 60.904 358.199 59.6638 355.674 57.3717L354.33 58.8523C357.374 61.6162 361.92 62.904 367.77 62.904V60.904ZM355.683 57.3798C353.2 55.0693 351.773 51.3567 351.586 46.0289L349.587 46.0991C349.784 51.7153 351.301 56.0347 354.321 58.8442L355.683 57.3798ZM351.585 46.0224C351.562 45.4694 351.709 45.1559 351.917 44.9471L350.503 43.5329C349.816 44.2201 349.546 45.1226 349.587 46.1056L351.585 46.0224ZM351.917 44.9471C352.185 44.6799 352.542 44.52 353.082 44.52V42.52C352.087 42.52 351.196 42.8401 350.503 43.5329L351.917 44.9471ZM353.082 44.52C353.645 44.52 353.977 44.6772 354.199 44.8991L355.613 43.4849C354.939 42.8108 354.055 42.52 353.082 42.52V44.52ZM354.199 44.8991C354.446 45.1457 354.629 45.5137 354.678 46.099L356.671 45.933C356.592 44.9823 356.263 44.1343 355.613 43.4849L354.199 44.8991ZM354.675 46.0477C354.806 50.1769 355.79 53.3363 357.888 55.2099L359.22 53.7181C357.735 52.3917 356.799 49.9191 356.674 45.9843L354.675 46.0477ZM357.888 55.2099C359.963 57.0626 363.351 57.864 367.77 57.864V55.864C363.485 55.864 360.729 55.0654 359.22 53.7181L357.888 55.2099ZM367.77 57.864H381.594V55.864H367.77V57.864ZM381.594 57.864C386.205 57.864 389.705 56.9834 391.757 54.9311L390.343 53.5169C388.875 54.9846 386.072 55.864 381.594 55.864V57.864ZM391.757 54.9311C393.837 52.8512 394.738 49.3737 394.738 44.816H392.738C392.738 49.2183 391.847 52.0128 390.343 53.5169L391.757 54.9311ZM394.738 44.816C394.738 40.202 393.84 36.6987 391.751 34.6466L390.35 36.0734C391.844 37.5413 392.738 40.342 392.738 44.816H394.738ZM391.764 34.6593C389.712 32.5699 386.208 31.672 381.594 31.672V33.672C386.068 33.672 388.869 34.5661 390.337 36.0607L391.764 34.6593ZM381.594 31.672H368.442V33.672H381.594V31.672ZM368.442 31.672C362.94 31.672 359.124 30.3876 356.765 28.0289L355.351 29.4431C358.24 32.3324 362.68 33.672 368.442 33.672V31.672ZM356.765 28.0289C354.406 25.6692 353.122 21.8679 353.122 16.4H351.122C351.122 22.1321 352.463 26.5548 355.351 29.4431L356.765 28.0289ZM353.122 16.4C353.122 10.9292 354.391 7.1261 356.722 4.76675L355.299 3.36124C352.445 6.2499 351.122 10.6708 351.122 16.4H353.122ZM356.717 4.77111C359.077 2.41145 362.878 1.128 368.346 1.128V-0.872002C362.614 -0.872002 358.191 0.468548 355.303 3.35689L356.717 4.77111ZM368.346 1.128H381.786V-0.872002H368.346V1.128ZM381.786 1.128C387.038 1.128 390.728 2.30343 393.059 4.46176L394.418 2.99423C391.565 0.352562 387.286 -0.872002 381.786 -0.872002V1.128ZM393.063 4.4659C395.416 6.6173 396.776 10.088 396.963 15.0932L398.962 15.0188C398.764 9.72 397.309 5.63869 394.413 2.99009L393.063 4.4659ZM396.966 15.139C397.009 15.6583 396.874 15.9784 396.631 16.2209L398.045 17.6351C398.763 16.9175 399.044 15.9897 398.959 14.973L396.966 15.139ZM396.631 16.2209C396.417 16.4352 396.074 16.6 395.466 16.6V18.6C396.458 18.6 397.364 18.3168 398.045 17.6351L396.631 16.2209ZM395.466 16.6C394.949 16.6 394.627 16.4509 394.397 16.2209L392.983 17.6351C393.649 18.3011 394.511 18.6 395.466 18.6V16.6ZM394.397 16.2209C394.151 15.9743 393.968 15.6063 393.919 15.021L391.926 15.187C392.005 16.1377 392.334 16.9857 392.983 17.6351L394.397 16.2209ZM393.922 15.0692C393.79 11.2873 392.867 8.36991 390.897 6.627L389.572 8.125C390.929 9.32609 391.798 11.5607 391.923 15.1388L393.922 15.0692ZM390.897 6.627C388.952 4.907 385.826 4.168 381.786 4.168V6.168C385.683 6.168 388.188 6.901 389.572 8.125L390.897 6.627ZM381.786 4.168H368.346V6.168H381.786V4.168ZM368.346 4.168C364.082 4.168 360.82 5.00267 358.896 6.96379L360.324 8.3642C361.665 6.99733 364.226 6.168 368.346 6.168V4.168ZM358.903 6.95689C356.98 8.8805 356.162 12.1397 356.162 16.4H358.162C358.162 12.2763 358.977 9.71149 360.317 8.3711L358.903 6.95689ZM356.162 16.4C356.162 20.6634 356.981 23.9311 358.896 25.8842L360.324 24.4838C358.976 23.1089 358.162 20.5206 358.162 16.4H356.162ZM358.91 25.8979C360.864 27.8145 364.149 28.632 368.442 28.632V26.632C364.287 26.632 361.684 25.8175 360.31 24.4701L358.91 25.8979ZM368.442 28.632H381.594V26.632H368.442V28.632ZM381.594 28.632C387.416 28.632 391.453 29.9962 393.939 32.511L395.361 31.105C392.343 28.0518 387.677 26.632 381.594 26.632V28.632ZM393.943 32.5151C396.43 35.0015 397.778 39.0254 397.778 44.816H399.778C399.778 38.7666 398.375 34.1185 395.357 31.1009L393.943 32.5151ZM397.778 44.816C397.778 50.6066 396.43 54.6305 393.943 57.1169L395.357 58.5311C398.375 55.5135 399.778 50.8654 399.778 44.816H397.778ZM393.947 57.1128C391.462 59.5691 387.421 60.904 381.594 60.904V62.904C387.671 62.904 392.334 61.5189 395.353 58.5352L393.947 57.1128ZM381.594 60.904H367.77V62.904H381.594V60.904ZM434.69 61.76L434.29 62.6762L434.301 62.6811L434.313 62.6858L434.69 61.76ZM433.298 58.4L432.377 58.0105L432.372 58.0244L432.366 58.0385L433.298 58.4ZM457.107 2.096L458.028 2.48546L458.033 2.47257L458.038 2.45954L457.107 2.096ZM460.227 0.127998L460.251 -0.871704L460.239 -0.872002H460.227V0.127998ZM463.01 2.096L463.932 1.70654L463.931 1.70486L463.01 2.096ZM486.819 58.4L487.744 58.0221L487.74 58.0105L486.819 58.4ZM485.474 61.76L485.852 62.6858L485.864 62.6811L485.875 62.6762L485.474 61.76ZM482.211 60.416L483.14 60.048L483.136 60.0374L483.132 60.027L482.211 60.416ZM475.827 45.296L476.748 44.907L476.49 44.296H475.827V45.296ZM444.387 45.296V44.296H443.723L443.465 44.907L444.387 45.296ZM438.003 60.416L437.081 60.027L437.079 60.0314L438.003 60.416ZM446.451 40.256L445.53 39.8657L444.94 41.256H446.451V40.256ZM473.715 40.256V41.256H475.225L474.635 39.8657L473.715 40.256ZM460.082 8.096L461.003 7.70573L460.082 5.53365L459.162 7.70573L460.082 8.096ZM435.091 60.8438C434.468 60.5712 434.215 60.2757 434.114 60.0333C434.014 59.7902 433.983 59.3996 434.231 58.7615L432.366 58.0385C432.006 58.9684 431.903 59.9218 432.267 60.7987C432.63 61.6763 433.377 62.2768 434.29 62.6762L435.091 60.8438ZM434.22 58.7895L458.028 2.48546L456.185 1.70654L432.377 58.0105L434.22 58.7895ZM458.038 2.45954C458.238 1.94651 458.494 1.6326 458.769 1.44119C459.043 1.25099 459.414 1.128 459.939 1.128V-0.872002C459.087 -0.872002 458.298 -0.666996 457.628 -0.201191C456.959 0.263403 456.487 0.933483 456.175 1.73246L458.038 2.45954ZM459.939 1.128H460.227V-0.872002H459.939V1.128ZM460.202 1.1277C460.691 1.13963 461.051 1.26407 461.329 1.46058C461.611 1.65966 461.875 1.97977 462.09 2.48714L463.931 1.70486C463.602 0.93223 463.13 0.284338 462.484 -0.172581C461.834 -0.63208 461.074 -0.851637 460.251 -0.871704L460.202 1.1277ZM462.089 2.48546L485.897 58.7895L487.74 58.0105L463.932 1.70654L462.089 2.48546ZM485.893 58.7779C486.155 59.4197 486.129 59.8081 486.034 60.0446C485.94 60.2788 485.696 60.5714 485.074 60.8438L485.875 62.6762C486.789 62.2766 487.537 61.6732 487.891 60.7874C488.244 59.9039 488.122 58.9483 487.744 58.0221L485.893 58.7779ZM485.097 60.8342C484.449 61.0986 484.075 61.0665 483.863 60.9793C483.658 60.8946 483.386 60.6675 483.14 60.048L481.281 60.784C481.643 61.7005 482.219 62.4654 483.102 62.8287C483.978 63.1895 484.932 63.0614 485.852 62.6858L485.097 60.8342ZM483.132 60.027L476.748 44.907L474.905 45.685L481.289 60.805L483.132 60.027ZM475.827 44.296H444.387V46.296H475.827V44.296ZM443.465 44.907L437.081 60.027L438.924 60.805L445.308 45.685L443.465 44.907ZM437.079 60.0314C436.821 60.6524 436.538 60.8881 436.318 60.9774C436.094 61.0684 435.713 61.0973 435.068 60.8342L434.313 62.6858C435.236 63.0627 436.191 63.1877 437.071 62.8306C437.954 62.4719 438.544 61.7156 438.926 60.8006L437.079 60.0314ZM446.451 41.256H473.715V39.256H446.451V41.256ZM474.635 39.8657L461.003 7.70573L459.162 8.48627L472.794 40.6463L474.635 39.8657ZM459.162 7.70573L445.53 39.8657L447.371 40.6463L461.003 8.48627L459.162 7.70573ZM507.236 61.376L506.529 62.0831L506.541 62.0953L506.553 62.1071L507.236 61.376ZM506.564 5.12H507.564V4.12H506.564V5.12ZM484.292 4.448L483.585 5.15511L483.597 5.16729L483.609 5.17906L484.292 4.448ZM484.292 0.799995L483.585 0.0928879V0.0928898L484.292 0.799995ZM533.876 0.799995L533.145 1.48232L533.156 1.49492L533.169 1.5071L533.876 0.799995ZM533.876 4.448L534.583 5.15511V5.15511L533.876 4.448ZM511.604 5.12V4.12H510.604V5.12H511.604ZM510.884 61.376L511.591 62.0831L510.884 61.376ZM509.108 61.048C508.547 61.048 508.182 60.8912 507.918 60.6449L506.553 62.1071C507.25 62.7568 508.132 63.048 509.108 63.048V61.048ZM507.943 60.6689C507.721 60.447 507.564 60.1148 507.564 59.552H505.564C505.564 60.5252 505.855 61.409 506.529 62.0831L507.943 60.6689ZM507.564 59.552V5.12H505.564V59.552H507.564ZM506.564 4.12H486.164V6.12H506.564V4.12ZM486.164 4.12C485.603 4.12 485.238 3.96316 484.974 3.71694L483.609 5.17906C484.306 5.82883 485.188 6.12 486.164 6.12V4.12ZM484.999 3.74089C484.777 3.519 484.62 3.18682 484.62 2.62399H482.62C482.62 3.59718 482.911 4.481 483.585 5.15511L484.999 3.74089ZM484.62 2.62399C484.62 2.06118 484.777 1.729 484.999 1.5071L483.585 0.0928898C482.911 0.766996 482.62 1.65082 482.62 2.62399H484.62ZM484.999 1.5071C485.266 1.23988 485.623 1.07999 486.164 1.07999V-0.920004C485.168 -0.920004 484.277 -0.59989 483.585 0.0928879L484.999 1.5071ZM486.164 1.07999H532.052V-0.920004H486.164V1.07999ZM532.052 1.07999C532.594 1.07999 532.918 1.23964 533.145 1.48232L534.607 0.117676C533.937 -0.599646 533.046 -0.920004 532.052 -0.920004V1.07999ZM533.169 1.5071C533.391 1.729 533.548 2.06118 533.548 2.62399H535.548C535.548 1.65082 535.257 0.766998 534.583 0.0928917L533.169 1.5071ZM533.548 2.62399C533.548 3.18682 533.391 3.519 533.169 3.74089L534.583 5.15511C535.257 4.481 535.548 3.59717 535.548 2.62399H533.548ZM533.169 3.74089C532.947 3.96278 532.615 4.12 532.052 4.12V6.12C533.025 6.12 533.909 5.82921 534.583 5.15511L533.169 3.74089ZM532.052 4.12H511.604V6.12H532.052V4.12ZM510.604 5.12V59.552H512.604V5.12H510.604ZM510.604 59.552C510.604 60.0474 510.452 60.3932 510.177 60.6689L511.591 62.0831C512.275 61.3988 512.604 60.5286 512.604 59.552H510.604ZM510.177 60.6689C509.947 60.8989 509.625 61.048 509.108 61.048V63.048C510.063 63.048 510.925 62.7491 511.591 62.0831L510.177 60.6689ZM532.753 61.76L532.352 62.6762L532.364 62.6811L532.375 62.6858L532.753 61.76ZM531.361 58.4L530.44 58.0105L530.434 58.0244L530.429 58.0385L531.361 58.4ZM555.169 2.096L556.09 2.48546L556.096 2.47257L556.101 2.45954L555.169 2.096ZM558.289 0.127998L558.313 -0.871704L558.301 -0.872002H558.289V0.127998ZM561.073 2.096L561.994 1.70654L561.993 1.70486L561.073 2.096ZM584.881 58.4L585.807 58.0221L585.802 58.0105L584.881 58.4ZM583.537 61.76L583.915 62.6858L583.926 62.6811L583.938 62.6762L583.537 61.76ZM580.273 60.416L581.203 60.048L581.199 60.0374L581.194 60.027L580.273 60.416ZM573.889 45.296L574.81 44.907L574.552 44.296H573.889V45.296ZM542.449 45.296V44.296H541.786L541.528 44.907L542.449 45.296ZM536.065 60.416L535.144 60.027L535.142 60.0314L536.065 60.416ZM544.513 40.256L543.592 39.8657L543.003 41.256H544.513V40.256ZM571.777 40.256V41.256H573.287L572.698 39.8657L571.777 40.256ZM558.145 8.096L559.066 7.70573L558.145 5.53365L557.224 7.70573L558.145 8.096ZM533.154 60.8438C532.531 60.5712 532.277 60.2757 532.177 60.0333C532.076 59.7902 532.046 59.3996 532.293 58.7615L530.429 58.0385C530.068 58.9684 529.966 59.9218 530.329 60.7987C530.693 61.6763 531.439 62.2768 532.352 62.6762L533.154 60.8438ZM532.282 58.7895L556.09 2.48546L554.248 1.70654L530.44 58.0105L532.282 58.7895ZM556.101 2.45954C556.301 1.94651 556.556 1.6326 556.832 1.44119C557.105 1.25099 557.476 1.128 558.001 1.128V-0.872002C557.15 -0.872002 556.361 -0.666996 555.69 -0.201191C555.022 0.263403 554.549 0.933483 554.237 1.73246L556.101 2.45954ZM558.001 1.128H558.289V-0.872002H558.001V1.128ZM558.265 1.1277C558.754 1.13963 559.114 1.26407 559.392 1.46058C559.673 1.65966 559.937 1.97977 560.153 2.48714L561.993 1.70486C561.665 0.93223 561.193 0.284338 560.546 -0.172581C559.896 -0.63208 559.136 -0.851637 558.313 -0.871704L558.265 1.1277ZM560.152 2.48546L583.96 58.7895L585.802 58.0105L561.994 1.70654L560.152 2.48546ZM583.955 58.7779C584.217 59.4197 584.191 59.8081 584.096 60.0446C584.003 60.2788 583.759 60.5714 583.136 60.8438L583.938 62.6762C584.851 62.2766 585.599 61.6732 585.953 60.7874C586.307 59.9039 586.185 58.9483 585.807 58.0221L583.955 58.7779ZM583.159 60.8342C582.511 61.0986 582.138 61.0665 581.926 60.9793C581.72 60.8946 581.448 60.6675 581.203 60.048L579.343 60.784C579.706 61.7005 580.282 62.4654 581.164 62.8287C582.04 63.1895 582.995 63.0614 583.915 62.6858L583.159 60.8342ZM581.194 60.027L574.81 44.907L572.968 45.685L579.352 60.805L581.194 60.027ZM573.889 44.296H542.449V46.296H573.889V44.296ZM541.528 44.907L535.144 60.027L536.986 60.805L543.37 45.685L541.528 44.907ZM535.142 60.0314C534.883 60.6524 534.601 60.8881 534.381 60.9774C534.157 61.0684 533.776 61.0973 533.131 60.8342L532.375 62.6858C533.298 63.0627 534.253 63.1877 535.133 62.8306C536.017 62.4719 536.607 61.7156 536.988 60.8006L535.142 60.0314ZM544.513 41.256H571.777V39.256H544.513V41.256ZM572.698 39.8657L559.066 7.70573L557.224 8.48627L570.856 40.6463L572.698 39.8657ZM557.224 7.70573L543.592 39.8657L545.434 40.6463L559.066 8.48627L557.224 7.70573ZM601.706 1.616L602.495 1.00171L602.484 0.987339L602.472 0.973387L601.706 1.616ZM642.362 53.84V54.84H644.408L643.151 53.2257L642.362 53.84ZM641.21 53.84H640.21V54.84H641.21V53.84ZM641.162 60.512L640.373 61.1267L640.378 61.1333L640.383 61.1398L641.162 60.512ZM600.458 8.28799V7.28799H598.41L599.669 8.90274L600.458 8.28799ZM601.61 8.28799H602.61V7.28799H601.61V8.28799ZM599.114 61C598.42 61 598.083 60.8272 597.913 60.6569C597.743 60.4866 597.57 60.1499 597.57 59.456H595.57C595.57 60.4581 595.821 61.3934 596.499 62.0711C597.176 62.7488 598.112 63 599.114 63V61ZM597.57 59.456V2.672H595.57V59.456H597.57ZM597.57 2.672C597.57 1.97814 597.743 1.64143 597.913 1.4711C598.083 1.30079 598.42 1.128 599.114 1.128V-0.872002C598.112 -0.872002 597.176 -0.620789 596.499 0.0568905C595.821 0.734571 595.57 1.66985 595.57 2.672H597.57ZM599.114 1.128C599.601 1.128 600.21 1.38914 600.94 2.25861L602.472 0.973387C601.537 -0.141138 600.419 -0.872002 599.114 -0.872002V1.128ZM600.917 2.23029L641.573 54.4543L643.151 53.2257L602.495 1.00171L600.917 2.23029ZM642.362 52.84H641.21V54.84H642.362V52.84ZM642.21 53.84V2.672H640.21V53.84H642.21ZM642.21 2.672C642.21 1.97814 642.383 1.64143 642.553 1.4711C642.723 1.30079 643.06 1.128 643.754 1.128V-0.872002C642.752 -0.872002 641.816 -0.620789 641.139 0.0568905C640.461 0.734571 640.21 1.66985 640.21 2.672H642.21ZM643.754 1.128C644.427 1.128 644.749 1.29814 644.912 1.46434C645.078 1.63406 645.25 1.97341 645.25 2.672H647.25C647.25 1.67459 647.005 0.741941 646.34 0.0636578C645.671 -0.618147 644.745 -0.872002 643.754 -0.872002V1.128ZM645.25 2.672V59.456H647.25V2.672H645.25ZM645.25 59.456C645.25 60.1546 645.078 60.4939 644.912 60.6637C644.749 60.8299 644.427 61 643.754 61V63C644.745 63 645.671 62.7461 646.34 62.0643C647.005 61.3861 647.25 60.4534 647.25 59.456H645.25ZM643.754 61C643.23 61 642.625 60.7339 641.94 59.8842L640.383 61.1398C641.298 62.2741 642.421 63 643.754 63V61ZM641.951 59.8973L601.246 7.67325L599.669 8.90274L640.373 61.1267L641.951 59.8973ZM600.458 9.28799H601.61V7.28799H600.458V9.28799ZM600.61 8.28799V59.456H602.61V8.28799H600.61ZM600.61 59.456C600.61 60.1546 600.438 60.4939 600.272 60.6637C600.109 60.8299 599.787 61 599.114 61V63C600.105 63 601.031 62.7461 601.7 62.0643C602.365 61.3861 602.61 60.4534 602.61 59.456H600.61ZM659.315 61.76L658.915 62.6762L658.926 62.6811L658.938 62.6858L659.315 61.76ZM657.924 58.4L657.002 58.0105L656.997 58.0244L656.991 58.0385L657.924 58.4ZM681.732 2.096L682.653 2.48546L682.658 2.47257L682.663 2.45954L681.732 2.096ZM684.852 0.127998L684.876 -0.871704L684.864 -0.872002H684.852V0.127998ZM687.635 2.096L688.557 1.70654L688.556 1.70486L687.635 2.096ZM711.443 58.4L712.369 58.0221L712.365 58.0105L711.443 58.4ZM710.099 61.76L710.477 62.6858L710.489 62.6811L710.5 62.6762L710.099 61.76ZM706.836 60.416L707.765 60.048L707.761 60.0374L707.757 60.027L706.836 60.416ZM700.451 45.296L701.373 44.907L701.115 44.296H700.451V45.296ZM669.011 45.296V44.296H668.348L668.09 44.907L669.011 45.296ZM662.628 60.416L661.706 60.027L661.704 60.0314L662.628 60.416ZM671.076 40.256L670.155 39.8657L669.565 41.256H671.076V40.256ZM698.339 40.256V41.256H699.849L699.26 39.8657L698.339 40.256ZM684.708 8.096L685.628 7.70573L684.708 5.53365L683.787 7.70573L684.708 8.096ZM659.716 60.8438C659.093 60.5712 658.84 60.2757 658.739 60.0333C658.639 59.7902 658.608 59.3996 658.856 58.7615L656.991 58.0385C656.631 58.9684 656.528 59.9218 656.892 60.7987C657.255 61.6763 658.002 62.2768 658.915 62.6762L659.716 60.8438ZM658.845 58.7895L682.653 2.48546L680.81 1.70654L657.002 58.0105L658.845 58.7895ZM682.663 2.45954C682.863 1.94651 683.119 1.6326 683.394 1.44119C683.668 1.25099 684.039 1.128 684.563 1.128V-0.872002C683.713 -0.872002 682.923 -0.666996 682.253 -0.201191C681.584 0.263403 681.112 0.933483 680.8 1.73246L682.663 2.45954ZM684.563 1.128H684.852V-0.872002H684.563V1.128ZM684.827 1.1277C685.316 1.13963 685.676 1.26407 685.954 1.46058C686.236 1.65966 686.5 1.97977 686.715 2.48714L688.556 1.70486C688.227 0.93223 687.755 0.284338 687.109 -0.172581C686.459 -0.63208 685.699 -0.851637 684.876 -0.871704L684.827 1.1277ZM686.714 2.48546L710.522 58.7895L712.365 58.0105L688.557 1.70654L686.714 2.48546ZM710.518 58.7779C710.78 59.4197 710.754 59.8081 710.659 60.0446C710.565 60.2788 710.321 60.5714 709.699 60.8438L710.5 62.6762C711.414 62.2766 712.162 61.6732 712.516 60.7874C712.869 59.9039 712.747 58.9483 712.369 58.0221L710.518 58.7779ZM709.722 60.8342C709.074 61.0986 708.7 61.0665 708.488 60.9793C708.283 60.8946 708.011 60.6675 707.765 60.048L705.906 60.784C706.268 61.7005 706.844 62.4654 707.727 62.8287C708.603 63.1895 709.557 63.0614 710.477 62.6858L709.722 60.8342ZM707.757 60.027L701.373 44.907L699.53 45.685L705.914 60.805L707.757 60.027ZM700.451 44.296H669.011V46.296H700.451V44.296ZM668.09 44.907L661.706 60.027L663.549 60.805L669.933 45.685L668.09 44.907ZM661.704 60.0314C661.446 60.6524 661.164 60.8881 660.943 60.9774C660.719 61.0684 660.338 61.0973 659.693 60.8342L658.938 62.6858C659.861 63.0627 660.816 63.1877 661.695 62.8306C662.58 62.4719 663.169 61.7156 663.551 60.8006L661.704 60.0314ZM671.076 41.256H698.339V39.256H671.076V41.256ZM699.26 39.8657L685.628 7.70573L683.787 8.48627L697.419 40.6463L699.26 39.8657ZM683.787 7.70573L670.155 39.8657L671.996 40.6463L685.628 8.48627L683.787 7.70573ZM723.346 58.112L722.665 58.8442L722.674 58.8523L723.346 58.112ZM718.93 46.064L719.929 46.0289L719.929 46.0224L718.93 46.064ZM719.554 44.24L720.261 44.9471L719.554 44.24ZM723.25 44.192L722.543 44.8991L723.25 44.192ZM724.018 46.016L725.018 45.9843L725.017 45.9586L725.015 45.933L724.018 46.016ZM726.898 54.464L726.232 55.2099L726.898 54.464ZM759.394 54.224L758.687 53.5169L759.394 54.224ZM759.394 35.36L758.681 36.0607L758.687 36.0671L758.693 36.0734L759.394 35.36ZM724.402 28.736L725.109 28.0289L724.402 28.736ZM724.354 4.064L723.647 3.35688L723.643 3.36124L724.354 4.064ZM762.082 3.728L761.403 4.46177L761.407 4.4659L762.082 3.728ZM766.306 15.056L765.307 15.0932L765.308 15.1162L765.309 15.139L766.306 15.056ZM765.682 16.928L766.389 17.6351L765.682 16.928ZM762.034 16.928L762.741 16.2209L762.034 16.928ZM761.266 15.104L760.267 15.1388L760.267 15.1629L760.269 15.187L761.266 15.104ZM727.954 7.66399L728.661 8.37114L728.668 8.3642L727.954 7.66399ZM727.954 25.184L727.24 25.8842L727.247 25.8911L727.254 25.8979L727.954 25.184ZM762.994 31.808L762.283 32.511L762.287 32.5151L762.994 31.808ZM762.994 57.824L763.697 58.5352L763.701 58.5311L762.994 57.824ZM736.114 60.904C730.509 60.904 726.542 59.6638 724.018 57.3717L722.674 58.8523C725.718 61.6162 730.263 62.904 736.114 62.904V60.904ZM724.027 57.3798C721.543 55.0693 720.116 51.3567 719.929 46.0289L717.931 46.0991C718.128 51.7153 719.645 56.0347 722.665 58.8442L724.027 57.3798ZM719.929 46.0224C719.906 45.4694 720.052 45.1559 720.261 44.9471L718.847 43.5329C718.16 44.2201 717.89 45.1226 717.931 46.1056L719.929 46.0224ZM720.261 44.9471C720.528 44.6799 720.885 44.52 721.426 44.52V42.52C720.431 42.52 719.54 42.8401 718.847 43.5329L720.261 44.9471ZM721.426 44.52C721.989 44.52 722.321 44.6772 722.543 44.8991L723.957 43.4849C723.283 42.8108 722.399 42.52 721.426 42.52V44.52ZM722.543 44.8991C722.789 45.1457 722.973 45.5137 723.021 46.099L725.015 45.933C724.935 44.9823 724.607 44.1343 723.957 43.4849L722.543 44.8991ZM723.018 46.0477C723.15 50.1769 724.134 53.3363 726.232 55.2099L727.564 53.7181C726.078 52.3917 725.142 49.9191 725.018 45.9843L723.018 46.0477ZM726.232 55.2099C728.307 57.0626 731.695 57.864 736.114 57.864V55.864C731.829 55.864 729.073 55.0654 727.564 53.7181L726.232 55.2099ZM736.114 57.864H749.938V55.864H736.114V57.864ZM749.938 57.864C754.549 57.864 758.049 56.9834 760.101 54.9311L758.687 53.5169C757.219 54.9846 754.415 55.864 749.938 55.864V57.864ZM760.101 54.9311C762.181 52.8512 763.082 49.3737 763.082 44.816H761.082C761.082 49.2183 760.191 52.0128 758.687 53.5169L760.101 54.9311ZM763.082 44.816C763.082 40.202 762.184 36.6987 760.095 34.6466L758.693 36.0734C760.188 37.5413 761.082 40.342 761.082 44.816H763.082ZM760.107 34.6593C758.055 32.5699 754.552 31.672 749.938 31.672V33.672C754.412 33.672 757.213 34.5661 758.681 36.0607L760.107 34.6593ZM749.938 31.672H736.786V33.672H749.938V31.672ZM736.786 31.672C731.284 31.672 727.468 30.3876 725.109 28.0289L723.695 29.4431C726.584 32.3324 731.024 33.672 736.786 33.672V31.672ZM725.109 28.0289C722.749 25.6692 721.466 21.8679 721.466 16.4H719.466C719.466 22.1321 720.807 26.5548 723.695 29.4431L725.109 28.0289ZM721.466 16.4C721.466 10.9292 722.735 7.1261 725.065 4.76675L723.643 3.36124C720.789 6.2499 719.466 10.6708 719.466 16.4H721.466ZM725.061 4.77111C727.421 2.41145 731.222 1.128 736.69 1.128V-0.872002C730.958 -0.872002 726.535 0.468548 723.647 3.35689L725.061 4.77111ZM736.69 1.128H750.13V-0.872002H736.69V1.128ZM750.13 1.128C755.382 1.128 759.072 2.30343 761.403 4.46176L762.761 2.99423C759.908 0.352562 755.63 -0.872002 750.13 -0.872002V1.128ZM761.407 4.4659C763.759 6.6173 765.12 10.088 765.307 15.0932L767.305 15.0188C767.108 9.72 765.653 5.63869 762.757 2.99009L761.407 4.4659ZM765.309 15.139C765.353 15.6583 765.217 15.9784 764.975 16.2209L766.389 17.6351C767.107 16.9175 767.387 15.9897 767.303 14.973L765.309 15.139ZM764.975 16.2209C764.761 16.4352 764.418 16.6 763.81 16.6V18.6C764.802 18.6 765.707 18.3168 766.389 17.6351L764.975 16.2209ZM763.81 16.6C763.293 16.6 762.971 16.4509 762.741 16.2209L761.327 17.6351C761.993 18.3011 762.855 18.6 763.81 18.6V16.6ZM762.741 16.2209C762.495 15.9743 762.311 15.6063 762.263 15.021L760.269 15.187C760.349 16.1377 760.677 16.9857 761.327 17.6351L762.741 16.2209ZM762.265 15.0692C762.134 11.2873 761.211 8.36991 759.241 6.627L757.915 8.125C759.273 9.32609 760.142 11.5607 760.267 15.1388L762.265 15.0692ZM759.241 6.627C757.296 4.907 754.169 4.168 750.13 4.168V6.168C754.027 6.168 756.532 6.901 757.915 8.125L759.241 6.627ZM750.13 4.168H736.69V6.168H750.13V4.168ZM736.69 4.168C732.426 4.168 729.163 5.00267 727.24 6.96379L728.668 8.3642C730.009 6.99733 732.57 6.168 736.69 6.168V4.168ZM727.247 6.95689C725.323 8.8805 724.506 12.1397 724.506 16.4H726.506C726.506 12.2763 727.321 9.71149 728.661 8.3711L727.247 6.95689ZM724.506 16.4C724.506 20.6634 725.325 23.9311 727.24 25.8842L728.668 24.4838C727.319 23.1089 726.506 20.5206 726.506 16.4H724.506ZM727.254 25.8979C729.208 27.8145 732.493 28.632 736.786 28.632V26.632C732.631 26.632 730.028 25.8175 728.654 24.4701L727.254 25.8979ZM736.786 28.632H749.938V26.632H736.786V28.632ZM749.938 28.632C755.76 28.632 759.797 29.9962 762.283 32.511L763.705 31.105C760.687 28.0518 756.02 26.632 749.938 26.632V28.632ZM762.287 32.5151C764.773 35.0015 766.122 39.0254 766.122 44.816H768.122C768.122 38.7666 766.719 34.1185 763.701 31.1009L762.287 32.5151ZM766.122 44.816C766.122 50.6066 764.773 54.6305 762.287 57.1169L763.701 58.5311C766.719 55.5135 768.122 50.8654 768.122 44.816H766.122ZM762.291 57.1128C759.806 59.5691 755.765 60.904 749.938 60.904V62.904C756.015 62.904 760.678 61.5189 763.697 58.5352L762.291 57.1128ZM749.938 60.904H736.114V62.904H749.938V60.904ZM784.461 61.328L785.168 60.6209L784.461 61.328ZM784.461 0.751999L785.168 1.45911V1.4591L784.461 0.751999ZM788.156 0.751999L787.449 1.45911L788.156 0.751999ZM788.156 61.328L788.864 62.0351L788.156 61.328ZM786.333 61C785.724 61 785.382 60.8352 785.168 60.6209L783.753 62.0351C784.435 62.7168 785.341 63 786.333 63V61ZM785.168 60.6209C784.953 60.4066 784.789 60.0641 784.789 59.456H782.789C782.789 60.4479 783.072 61.3534 783.753 62.0351L785.168 60.6209ZM784.789 59.456V2.62399H782.789V59.456H784.789ZM784.789 2.62399C784.789 2.01587 784.953 1.67339 785.168 1.45911L783.753 0.0448914C783.072 0.726599 782.789 1.63212 782.789 2.62399H784.789ZM785.168 1.4591C785.382 1.24481 785.724 1.07999 786.333 1.07999V-0.920004C785.341 -0.920004 784.435 -0.63682 783.753 0.0448933L785.168 1.4591ZM786.333 1.07999C786.895 1.07999 787.227 1.23721 787.449 1.45911L788.864 0.0448933C788.19 -0.629215 787.306 -0.920004 786.333 -0.920004V1.07999ZM787.449 1.45911C787.664 1.67339 787.828 2.01587 787.828 2.62399H789.828C789.828 1.63212 789.545 0.726599 788.864 0.0448914L787.449 1.45911ZM787.828 2.62399V59.456H789.828V2.62399H787.828ZM787.828 59.456C787.828 60.0641 787.664 60.4066 787.449 60.6209L788.864 62.0351C789.545 61.3534 789.828 60.4479 789.828 59.456H787.828ZM787.449 60.6209C787.227 60.8428 786.895 61 786.333 61V63C787.306 63 788.19 62.7092 788.864 62.0351L787.449 60.6209ZM810.261 57.2L810.968 56.4929L810.261 57.2ZM810.261 4.83199L810.965 5.54266L810.968 5.5391L810.261 4.83199ZM825.381 0.127998L825.372 1.128H825.381V0.127998ZM852.165 4.928L851.455 5.63155L851.458 5.63511L852.165 4.928ZM852.165 57.2L851.458 56.4929L851.455 56.4965L852.165 57.2ZM845.781 55.52L845.378 54.6051L845.781 55.52ZM850.485 50.816L851.4 51.2196L850.485 50.816ZM850.485 11.36L851.4 10.9564L850.485 11.36ZM845.781 6.656L845.366 7.56598L845.378 7.57092L845.781 6.656ZM825.381 5.168L825.373 6.168H825.381V5.168ZM816.597 6.56L816.995 7.47774L817.001 7.47491L816.597 6.56ZM811.941 11.264L812.856 11.6676L812.858 11.6627L811.941 11.264ZM811.941 50.816L811.026 51.2196L811.941 50.816ZM816.645 55.52L816.242 56.4349L816.645 55.52ZM825.477 61C818.66 61 813.901 59.4259 810.968 56.4929L809.554 57.9071C813.021 61.3741 818.407 63 825.477 63V61ZM810.968 56.4929C808.035 53.5599 806.461 48.8016 806.461 41.984H804.461C804.461 49.0544 806.087 54.4401 809.554 57.9071L810.968 56.4929ZM806.461 41.984V20.096H804.461V41.984H806.461ZM806.461 20.096C806.461 13.2102 808.037 8.44091 810.965 5.54264L809.558 4.12135C806.085 7.55908 804.461 12.9658 804.461 20.096H806.461ZM810.968 5.5391C813.899 2.60809 818.623 1.06517 825.372 1.12796L825.391 -0.871958C818.38 -0.937174 813.023 0.655907 809.554 4.12489L810.968 5.5391ZM825.381 1.128H836.997V-0.872002H825.381V1.128ZM836.997 1.128C843.816 1.128 848.555 2.70255 851.455 5.63154L852.876 4.22446C849.44 0.753447 844.067 -0.872002 836.997 -0.872002V1.128ZM851.458 5.63511C854.391 8.56812 855.965 13.3264 855.965 20.144H857.965C857.965 13.0736 856.339 7.68788 852.872 4.22089L851.458 5.63511ZM855.965 20.144V41.984H857.965V20.144H855.965ZM855.965 41.984C855.965 48.8016 854.391 53.5599 851.458 56.4929L852.872 57.9071C856.339 54.4401 857.965 49.0544 857.965 41.984H855.965ZM851.455 56.4965C848.555 59.4254 843.816 61 836.997 61V63C844.067 63 849.44 61.3745 852.876 57.9035L851.455 56.4965ZM836.997 61H825.477V63H836.997V61ZM825.477 57.96H836.997V55.96H825.477V57.96ZM836.997 57.96C840.748 57.96 843.831 57.4732 846.185 56.4349L845.378 54.6051C843.379 55.4868 840.607 55.96 836.997 55.96V57.96ZM846.185 56.4349C848.589 55.3742 850.339 53.6239 851.4 51.2196L849.57 50.4124C848.711 52.3601 847.325 53.7458 845.378 54.6051L846.185 56.4349ZM851.4 51.2196C852.439 48.8653 852.925 45.7653 852.925 41.984H850.925C850.925 45.6267 850.452 48.4147 849.57 50.4124L851.4 51.2196ZM852.925 41.984V20.144H850.925V41.984H852.925ZM852.925 20.144C852.925 16.3933 852.438 13.3099 851.4 10.9564L849.57 11.7636C850.452 13.7621 850.925 16.5347 850.925 20.144H852.925ZM851.4 10.9564C850.339 8.55213 848.589 6.80177 846.185 5.74108L845.378 7.57092C847.325 8.43023 848.711 9.81587 849.57 11.7636L851.4 10.9564ZM846.196 5.74609C843.839 4.67142 840.751 4.168 836.997 4.168V6.168C840.604 6.168 843.372 6.65657 845.366 7.56591L846.196 5.74609ZM836.997 4.168H825.381V6.168H836.997V4.168ZM825.39 4.16804C821.638 4.13541 818.551 4.60508 816.194 5.64508L817.001 7.47491C818.996 6.59491 821.765 6.13659 825.373 6.16796L825.39 4.16804ZM816.2 5.64227C813.815 6.67442 812.082 8.43246 811.024 10.8653L812.858 11.6627C813.721 9.67953 815.091 8.30157 816.994 7.47772L816.2 5.64227ZM811.026 10.8604C809.988 13.2147 809.501 16.3147 809.501 20.096H811.501C811.501 16.4533 811.975 13.6653 812.856 11.6676L811.026 10.8604ZM809.501 20.096V41.984H811.501V20.096H809.501ZM809.501 41.984C809.501 45.7653 809.988 48.8653 811.026 51.2196L812.856 50.4124C811.975 48.4147 811.501 45.6267 811.501 41.984H809.501ZM811.026 51.2196C812.087 53.6239 813.837 55.3742 816.242 56.4349L817.049 54.6051C815.101 53.7458 813.715 52.3601 812.856 50.4124L811.026 51.2196ZM816.242 56.4349C818.596 57.4736 821.696 57.96 825.477 57.96V55.96C821.835 55.96 819.047 55.4864 817.049 54.6051L816.242 56.4349ZM901.199 57.2L901.906 56.4929L901.199 57.2ZM901.151 4.88L900.447 4.16934L900.444 4.17289L901.151 4.88ZM941.087 3.824L940.437 4.58387L940.442 4.58803L941.087 3.824ZM945.839 15.584L944.84 15.6372L944.842 15.6659L944.845 15.6944L945.839 15.584ZM945.311 17.552L944.604 16.8449L944.591 16.858L944.578 16.8715L945.311 17.552ZM940.799 15.68L939.8 15.7364L939.801 15.7552L939.803 15.7739L940.799 15.68ZM937.535 7.472L936.916 8.25791L936.924 8.26414L937.535 7.472ZM907.535 6.608L907.927 7.52791L907.938 7.52291L907.535 6.608ZM902.831 11.312L901.914 10.9133L901.911 10.9197L902.831 11.312ZM902.879 50.816L901.964 51.2196L902.879 50.816ZM907.583 55.52L907.179 56.4349L907.583 55.52ZM935.663 55.76L935.278 54.8369L935.273 54.8392L935.663 55.76ZM939.743 51.728L938.822 51.3379L939.743 51.728ZM940.943 37.904H941.943V36.9131L940.952 36.904L940.943 37.904ZM930.431 37.808L930.44 36.808H930.431V37.808ZM930.431 32.768L930.438 31.768H930.431V32.768ZM943.487 32.864L943.479 33.864H943.487V32.864ZM941.711 57.728L942.418 58.4351L942.422 58.4311L941.711 57.728ZM916.415 61C909.597 61 904.839 59.4259 901.906 56.4929L900.492 57.9071C903.959 61.3741 909.344 63 916.415 63V61ZM901.906 56.4929C898.973 53.5599 897.399 48.8016 897.399 41.984H895.399C895.399 49.0544 897.025 54.4401 900.492 57.9071L901.906 56.4929ZM897.399 41.984V20.144H895.399V41.984H897.399ZM897.399 20.144C897.399 13.2558 898.96 8.48511 901.858 5.5871L900.444 4.17289C897.006 7.61088 895.399 13.0162 895.399 20.144H897.399ZM901.854 5.59065C904.788 2.68649 909.532 1.128 916.319 1.128V-0.872002C909.281 -0.872002 903.914 0.737509 900.447 4.16935L901.854 5.59065ZM916.319 1.128H927.935V-0.872002H916.319V1.128ZM927.935 1.128C933.71 1.128 937.815 2.3406 940.437 4.58385L941.737 3.06415C938.599 0.379395 933.935 -0.872002 927.935 -0.872002V1.128ZM940.442 4.58803C943.033 6.77605 944.56 10.3826 944.84 15.6372L946.837 15.5308C946.541 9.96938 944.901 5.73595 941.732 3.05997L940.442 4.58803ZM944.845 15.6944C944.921 16.3757 944.764 16.6842 944.604 16.8449L946.018 18.2591C946.753 17.5238 946.949 16.5203 946.833 15.4736L944.845 15.6944ZM944.578 16.8715C944.412 17.0503 944.097 17.224 943.439 17.224V19.224C944.445 19.224 945.378 18.9497 946.044 18.2324L944.578 16.8715ZM943.439 17.224C942.815 17.224 942.474 17.0621 942.273 16.8679C942.062 16.665 941.861 16.2893 941.794 15.5861L939.803 15.7739C939.897 16.7667 940.215 17.663 940.885 18.3081C941.563 18.9619 942.463 19.224 943.439 19.224V17.224ZM941.797 15.6236C941.567 11.54 940.437 8.4454 938.145 6.67986L936.924 8.26414C938.537 9.50659 939.583 11.8839 939.8 15.7364L941.797 15.6236ZM938.153 6.68613C935.932 4.93826 932.45 4.168 927.935 4.168V6.168C932.316 6.168 935.234 6.93374 936.916 8.25787L938.153 6.68613ZM927.935 4.168H916.319V6.168H927.935V4.168ZM916.319 4.168C912.568 4.168 909.485 4.65477 907.131 5.69308L907.938 7.52291C909.937 6.64123 912.709 6.168 916.319 6.168V4.168ZM907.142 5.68816C904.727 6.71838 902.974 8.47552 901.914 10.9133L903.748 11.7107C904.608 9.73248 905.991 8.35361 907.927 7.52784L907.142 5.68816ZM901.911 10.9197C900.909 13.2701 900.439 16.3655 900.439 20.144H902.439C902.439 16.4985 902.897 13.7059 903.751 11.7043L901.911 10.9197ZM900.439 20.144V41.984H902.439V20.144H900.439ZM900.439 41.984C900.439 45.7653 900.925 48.8653 901.964 51.2196L903.794 50.4124C902.912 48.4147 902.439 45.6267 902.439 41.984H900.439ZM901.964 51.2196C903.025 53.6239 904.775 55.3742 907.179 56.4349L907.986 54.6051C906.039 53.7458 904.653 52.3601 903.794 50.4124L901.964 51.2196ZM907.179 56.4349C909.533 57.4736 912.633 57.96 916.415 57.96V55.96C912.772 55.96 909.984 55.4864 907.986 54.6051L907.179 56.4349ZM916.415 57.96H927.935V55.96H916.415V57.96ZM927.935 57.96C931.263 57.96 933.99 57.5548 936.053 56.6807L935.273 54.8392C933.559 55.5652 931.135 55.96 927.935 55.96V57.96ZM936.047 56.6831C938.205 55.784 939.76 54.251 940.664 52.1181L938.822 51.3379C938.126 52.981 936.96 54.1359 935.278 54.8369L936.047 56.6831ZM940.664 52.1181C941.538 50.0535 941.943 47.2927 941.943 43.904H939.943C939.943 47.1713 939.547 49.6265 938.822 51.3379L940.664 52.1181ZM941.943 43.904V37.904H939.943V43.904H941.943ZM940.952 36.904L930.44 36.808L930.422 38.808L940.934 38.904L940.952 36.904ZM930.431 36.808C929.758 36.808 929.436 36.6379 929.273 36.4717C929.106 36.3019 928.935 35.9626 928.935 35.264H926.935C926.935 36.2614 927.179 37.1941 927.845 37.8723C928.514 38.5541 929.44 38.808 930.431 38.808V36.808ZM928.935 35.264C928.935 34.5861 929.104 34.2614 929.266 34.0991C929.428 33.9368 929.753 33.768 930.431 33.768V31.768C929.445 31.768 928.521 32.0152 927.852 32.6849C927.182 33.3546 926.935 34.2779 926.935 35.264H928.935ZM930.423 33.768L943.479 33.864L943.494 31.864L930.438 31.768L930.423 33.768ZM943.487 33.864C944.165 33.864 944.489 34.0328 944.652 34.1951C944.814 34.3574 944.983 34.6821 944.983 35.36H946.983C946.983 34.3739 946.736 33.4506 946.066 32.7809C945.396 32.1112 944.473 31.864 943.487 31.864V33.864ZM944.983 35.36V43.904H946.983V35.36H944.983ZM944.983 43.904C944.983 50.1208 943.581 54.4142 941 57.0249L942.422 58.4311C945.536 55.2818 946.983 50.3592 946.983 43.904H944.983ZM941.004 57.0209C938.427 59.598 934.153 61 927.935 61V63C934.389 63 939.299 61.554 942.418 58.4351L941.004 57.0209ZM927.935 61H916.415V63H927.935V61ZM962.304 61.328L963.011 60.6209L962.304 61.328ZM962.304 0.751999L963.011 1.45911V1.4591L962.304 0.751999ZM966 0.751999L965.293 1.45911L966 0.751999ZM966 61.328L966.707 62.0351L966 61.328ZM964.176 61C963.568 61 963.226 60.8352 963.011 60.6209L961.597 62.0351C962.279 62.7168 963.184 63 964.176 63V61ZM963.011 60.6209C962.797 60.4066 962.632 60.0641 962.632 59.456H960.632C960.632 60.4479 960.915 61.3534 961.597 62.0351L963.011 60.6209ZM962.632 59.456V2.62399H960.632V59.456H962.632ZM962.632 2.62399C962.632 2.01587 962.797 1.67339 963.011 1.45911L961.597 0.0448914C960.915 0.726599 960.632 1.63212 960.632 2.62399H962.632ZM963.011 1.4591C963.226 1.24481 963.568 1.07999 964.176 1.07999V-0.920004C963.184 -0.920004 962.279 -0.63682 961.597 0.0448933L963.011 1.4591ZM964.176 1.07999C964.739 1.07999 965.071 1.23721 965.293 1.45911L966.707 0.0448933C966.033 -0.629215 965.149 -0.920004 964.176 -0.920004V1.07999ZM965.293 1.45911C965.507 1.67339 965.672 2.01587 965.672 2.62399H967.672C967.672 1.63212 967.389 0.726599 966.707 0.0448914L965.293 1.45911ZM965.672 2.62399V59.456H967.672V2.62399H965.672ZM965.672 59.456C965.672 60.0641 965.507 60.4066 965.293 60.6209L966.707 62.0351C967.389 61.3534 967.672 60.4479 967.672 59.456H965.672ZM965.293 60.6209C965.071 60.8428 964.739 61 964.176 61V63C965.149 63 966.033 62.7092 966.707 62.0351L965.293 60.6209ZM1026.46 62.096L1025.96 61.2301L1025.95 61.2351L1026.46 62.096ZM1024.54 62.528L1024.32 63.5042L1024.54 62.528ZM1023 61.328L1022.15 61.86L1022.16 61.8715L1022.17 61.8827L1023 61.328ZM1007.26 36.272L1008.1 35.74L1007.81 35.272H1007.26V36.272ZM989.641 36.272V35.272H988.641V36.272H989.641ZM1021.99 4.352L1021.28 5.05506L1021.29 5.0591L1021.99 4.352ZM1022.91 31.04L1023.68 31.6658L1022.91 31.04ZM1013.11 36.08L1012.97 35.0898L1011.45 35.3048L1012.27 36.6116L1013.11 36.08ZM1027.27 58.64L1028.13 58.12L1028.12 58.1084L1027.27 58.64ZM989.641 31.232H988.641V32.232H989.641V31.232ZM1018.39 7.952L1017.68 8.65293L1017.69 8.65913L1017.69 8.66523L1018.39 7.952ZM989.641 5.168V4.168H988.641V5.168H989.641ZM1025.95 61.2351C1025.38 61.5722 1025 61.6065 1024.75 61.5518L1024.32 63.5042C1025.23 63.7055 1026.13 63.4518 1026.97 62.9569L1025.95 61.2351ZM1024.75 61.5518C1024.51 61.4977 1024.19 61.3112 1023.83 60.7733L1022.17 61.8827C1022.71 62.6888 1023.41 63.3023 1024.32 63.5042L1024.75 61.5518ZM1023.85 60.796L1008.1 35.74L1006.41 36.804L1022.15 61.86L1023.85 60.796ZM1007.26 35.272H989.641V37.272H1007.26V35.272ZM988.641 36.272V59.456H990.641V36.272H988.641ZM988.641 59.456C988.641 60.1546 988.47 60.4939 988.303 60.6637C988.14 60.8299 987.818 61 987.145 61V63C988.136 63 989.062 62.7461 989.731 62.0643C990.396 61.3861 990.641 60.4534 990.641 59.456H988.641ZM987.145 61C986.451 61 986.114 60.8272 985.944 60.6569C985.774 60.4866 985.601 60.1499 985.601 59.456H983.601C983.601 60.4581 983.852 61.3934 984.53 62.0711C985.208 62.7488 986.143 63 987.145 63V61ZM985.601 59.456V2.672H983.601V59.456H985.601ZM985.601 2.672C985.601 1.97814 985.774 1.64143 985.944 1.4711C986.114 1.30079 986.451 1.128 987.145 1.128V-0.872002C986.143 -0.872002 985.208 -0.620789 984.53 0.0568905C983.852 0.734571 983.601 1.66985 983.601 2.672H985.601ZM987.145 1.128H1009.61V-0.872002H987.145V1.128ZM1009.61 1.128C1014.92 1.128 1018.75 2.4922 1021.28 5.05505L1022.7 3.64894C1019.67 0.57979 1015.24 -0.872002 1009.61 -0.872002V1.128ZM1021.29 5.0591C1023.85 7.62634 1025.22 11.4758 1025.22 16.784H1027.22C1027.22 11.1482 1025.76 6.70966 1022.7 3.64489L1021.29 5.0591ZM1025.22 16.784V19.664H1027.22V16.784H1025.22ZM1025.22 19.664C1025.22 24.3518 1024.15 27.8953 1022.12 30.4142L1023.68 31.6658C1026.08 28.6807 1027.22 24.6402 1027.22 19.664H1025.22ZM1022.12 30.4142C1020.11 32.9232 1017.1 34.5084 1012.97 35.0898L1013.25 37.0702C1017.76 36.4356 1021.28 34.6608 1023.68 31.6658L1022.12 30.4142ZM1012.27 36.6116L1026.43 59.1716L1028.12 58.1084L1013.96 35.5484L1012.27 36.6116ZM1026.42 59.16C1026.79 59.7735 1026.82 60.1547 1026.77 60.3782C1026.72 60.5922 1026.54 60.8949 1025.96 61.2301L1026.96 62.9619C1027.82 62.4651 1028.49 61.7758 1028.71 60.8378C1028.93 59.9093 1028.65 58.9785 1028.13 58.1201L1026.42 59.16ZM989.641 32.232H1009.61V30.232H989.641V32.232ZM1009.61 32.232C1013.76 32.232 1017.01 31.297 1019.1 29.2031L1017.69 27.7889C1016.13 29.343 1013.52 30.232 1009.61 30.232V32.232ZM1019.1 29.2031C1021.22 27.0799 1022.18 23.822 1022.18 19.664H1020.18C1020.18 23.57 1019.27 26.2001 1017.69 27.7889L1019.1 29.2031ZM1022.18 19.664V16.784H1020.18V19.664H1022.18ZM1022.18 16.784C1022.18 12.5986 1021.23 9.33342 1019.09 7.23877L1017.69 8.66523C1019.27 10.2186 1020.18 12.8414 1020.18 16.784H1022.18ZM1019.11 7.25106C1017.01 5.12093 1013.77 4.168 1009.61 4.168V6.168C1013.52 6.168 1016.13 7.07107 1017.68 8.65293L1019.11 7.25106ZM1009.61 4.168H989.641V6.168H1009.61V4.168ZM988.641 5.168V31.232H990.641V5.168H988.641ZM1036.66 61.76L1036.26 62.6762L1036.27 62.6811L1036.28 62.6858L1036.66 61.76ZM1035.27 58.4L1034.35 58.0105L1034.34 58.0244L1034.33 58.0385L1035.27 58.4ZM1059.08 2.096L1060 2.48546L1060 2.47257L1060.01 2.45954L1059.08 2.096ZM1062.2 0.127998L1062.22 -0.871704L1062.21 -0.872002H1062.2V0.127998ZM1064.98 2.096L1065.9 1.70654L1065.9 1.70486L1064.98 2.096ZM1088.79 58.4L1089.71 58.0221L1089.71 58.0105L1088.79 58.4ZM1087.44 61.76L1087.82 62.6858L1087.83 62.6811L1087.84 62.6762L1087.44 61.76ZM1084.18 60.416L1085.11 60.048L1085.1 60.0374L1085.1 60.027L1084.18 60.416ZM1077.8 45.296L1078.72 44.907L1078.46 44.296H1077.8V45.296ZM1046.36 45.296V44.296H1045.69L1045.43 44.907L1046.36 45.296ZM1039.97 60.416L1039.05 60.027L1039.05 60.0314L1039.97 60.416ZM1048.42 40.256L1047.5 39.8657L1046.91 41.256H1048.42V40.256ZM1075.68 40.256V41.256H1077.19L1076.6 39.8657L1075.68 40.256ZM1062.05 8.096L1062.97 7.70573L1062.05 5.53365L1061.13 7.70573L1062.05 8.096ZM1037.06 60.8438C1036.44 60.5712 1036.18 60.2757 1036.08 60.0333C1035.98 59.7902 1035.95 59.3996 1036.2 58.7615L1034.33 58.0385C1033.97 58.9684 1033.87 59.9218 1034.24 60.7987C1034.6 61.6763 1035.35 62.2768 1036.26 62.6762L1037.06 60.8438ZM1036.19 58.7895L1060 2.48546L1058.15 1.70654L1034.35 58.0105L1036.19 58.7895ZM1060.01 2.45954C1060.21 1.94651 1060.46 1.6326 1060.74 1.44119C1061.01 1.25099 1061.38 1.128 1061.91 1.128V-0.872002C1061.06 -0.872002 1060.27 -0.666996 1059.6 -0.201191C1058.93 0.263403 1058.46 0.933483 1058.14 1.73246L1060.01 2.45954ZM1061.91 1.128H1062.2V-0.872002H1061.91V1.128ZM1062.17 1.1277C1062.66 1.13963 1063.02 1.26407 1063.3 1.46058C1063.58 1.65966 1063.84 1.97977 1064.06 2.48714L1065.9 1.70486C1065.57 0.93223 1065.1 0.284338 1064.45 -0.172581C1063.8 -0.63208 1063.04 -0.851637 1062.22 -0.871704L1062.17 1.1277ZM1064.06 2.48546L1087.87 58.7895L1089.71 58.0105L1065.9 1.70654L1064.06 2.48546ZM1087.86 58.7779C1088.12 59.4197 1088.1 59.8081 1088 60.0446C1087.91 60.2788 1087.67 60.5714 1087.04 60.8438L1087.84 62.6762C1088.76 62.2766 1089.51 61.6732 1089.86 60.7874C1090.21 59.9039 1090.09 58.9483 1089.71 58.0221L1087.86 58.7779ZM1087.07 60.8342C1086.42 61.0986 1086.04 61.0665 1085.83 60.9793C1085.63 60.8946 1085.35 60.6675 1085.11 60.048L1083.25 60.784C1083.61 61.7005 1084.19 62.4654 1085.07 62.8287C1085.95 63.1895 1086.9 63.0614 1087.82 62.6858L1087.07 60.8342ZM1085.1 60.027L1078.72 44.907L1076.87 45.685L1083.26 60.805L1085.1 60.027ZM1077.8 44.296H1046.36V46.296H1077.8V44.296ZM1045.43 44.907L1039.05 60.027L1040.89 60.805L1047.28 45.685L1045.43 44.907ZM1039.05 60.0314C1038.79 60.6524 1038.51 60.8881 1038.29 60.9774C1038.06 61.0684 1037.68 61.0973 1037.04 60.8342L1036.28 62.6858C1037.2 63.0627 1038.16 63.1877 1039.04 62.8306C1039.92 62.4719 1040.51 61.7156 1040.89 60.8006L1039.05 60.0314ZM1048.42 41.256H1075.68V39.256H1048.42V41.256ZM1076.6 39.8657L1062.97 7.70573L1061.13 8.48627L1074.76 40.6463L1076.6 39.8657ZM1061.13 7.70573L1047.5 39.8657L1049.34 40.6463L1062.97 8.48627L1061.13 7.70573ZM1142.33 62.096L1141.83 61.2301L1141.82 61.2351L1142.33 62.096ZM1140.41 62.528L1140.2 63.5042L1140.41 62.528ZM1138.88 61.328L1138.03 61.86L1138.04 61.8715L1138.04 61.8827L1138.88 61.328ZM1123.13 36.272L1123.98 35.74L1123.68 35.272H1123.13V36.272ZM1105.52 36.272V35.272H1104.52V36.272H1105.52ZM1137.87 4.352L1137.16 5.05506L1137.16 5.0591L1137.87 4.352ZM1138.78 31.04L1139.56 31.6658L1138.78 31.04ZM1128.99 36.08L1128.85 35.0898L1127.32 35.3048L1128.14 36.6116L1128.99 36.08ZM1143.15 58.64L1144 58.12L1143.99 58.1084L1143.15 58.64ZM1105.52 31.232H1104.52V32.232H1105.52V31.232ZM1134.27 7.952L1133.55 8.65293L1133.56 8.65913L1133.57 8.66523L1134.27 7.952ZM1105.52 5.168V4.168H1104.52V5.168H1105.52ZM1141.82 61.2351C1141.25 61.5722 1140.88 61.6065 1140.63 61.5518L1140.2 63.5042C1141.1 63.7055 1142 63.4518 1142.84 62.9569L1141.82 61.2351ZM1140.63 61.5518C1140.39 61.4977 1140.07 61.3112 1139.71 60.7733L1138.04 61.8827C1138.58 62.6888 1139.29 63.3023 1140.2 63.5042L1140.63 61.5518ZM1139.72 60.796L1123.98 35.74L1122.29 36.804L1138.03 61.86L1139.72 60.796ZM1123.13 35.272H1105.52V37.272H1123.13V35.272ZM1104.52 36.272V59.456H1106.52V36.272H1104.52ZM1104.52 59.456C1104.52 60.1546 1104.34 60.4939 1104.18 60.6637C1104.02 60.8299 1103.69 61 1103.02 61V63C1104.01 63 1104.94 62.7461 1105.61 62.0643C1106.27 61.3861 1106.52 60.4534 1106.52 59.456H1104.52ZM1103.02 61C1102.33 61 1101.99 60.8272 1101.82 60.6569C1101.65 60.4866 1101.48 60.1499 1101.48 59.456H1099.48C1099.48 60.4581 1099.73 61.3934 1100.4 62.0711C1101.08 62.7488 1102.02 63 1103.02 63V61ZM1101.48 59.456V2.672H1099.48V59.456H1101.48ZM1101.48 2.672C1101.48 1.97814 1101.65 1.64143 1101.82 1.4711C1101.99 1.30079 1102.33 1.128 1103.02 1.128V-0.872002C1102.02 -0.872002 1101.08 -0.620789 1100.4 0.0568905C1099.73 0.734571 1099.48 1.66985 1099.48 2.672H1101.48ZM1103.02 1.128H1125.48V-0.872002H1103.02V1.128ZM1125.48 1.128C1130.79 1.128 1134.62 2.4922 1137.16 5.05505L1138.58 3.64894C1135.54 0.57979 1131.12 -0.872002 1125.48 -0.872002V1.128ZM1137.16 5.0591C1139.73 7.62634 1141.09 11.4758 1141.09 16.784H1143.09C1143.09 11.1482 1141.64 6.70966 1138.58 3.64489L1137.16 5.0591ZM1141.09 16.784V19.664H1143.09V16.784H1141.09ZM1141.09 19.664C1141.09 24.3518 1140.02 27.8953 1138 30.4142L1139.56 31.6658C1141.96 28.6807 1143.09 24.6402 1143.09 19.664H1141.09ZM1138 30.4142C1135.99 32.9232 1132.98 34.5084 1128.85 35.0898L1129.13 37.0702C1133.64 36.4356 1137.16 34.6608 1139.56 31.6658L1138 30.4142ZM1128.14 36.6116L1142.3 59.1716L1143.99 58.1084L1129.83 35.5484L1128.14 36.6116ZM1142.29 59.16C1142.67 59.7735 1142.7 60.1547 1142.64 60.3782C1142.59 60.5922 1142.41 60.8949 1141.83 61.2301L1142.83 62.9619C1143.69 62.4651 1144.37 61.7758 1144.59 60.8378C1144.81 59.9093 1144.52 58.9785 1144 58.1201L1142.29 59.16ZM1105.52 32.232H1125.48V30.232H1105.52V32.232ZM1125.48 32.232C1129.64 32.232 1132.88 31.297 1134.98 29.2031L1133.56 27.7889C1132.01 29.343 1129.4 30.232 1125.48 30.232V32.232ZM1134.98 29.2031C1137.1 27.0799 1138.05 23.822 1138.05 19.664H1136.05C1136.05 23.57 1135.15 26.2001 1133.56 27.7889L1134.98 29.2031ZM1138.05 19.664V16.784H1136.05V19.664H1138.05ZM1138.05 16.784C1138.05 12.5986 1137.1 9.33342 1134.97 7.23877L1133.57 8.66523C1135.15 10.2186 1136.05 12.8414 1136.05 16.784H1138.05ZM1134.98 7.25106C1132.89 5.12093 1129.64 4.168 1125.48 4.168V6.168C1129.39 6.168 1132 7.07107 1133.55 8.65293L1134.98 7.25106ZM1125.48 4.168H1105.52V6.168H1125.48V4.168ZM1104.52 5.168V31.232H1106.52V5.168H1104.52ZM1200.44 5.6L1199.73 6.30399L1199.73 6.3071L1200.44 5.6ZM1200.44 56.528L1199.73 55.8209L1199.73 55.824L1200.44 56.528ZM1162.42 56.96H1161.42V57.96H1162.42V56.96ZM1193.48 55.232L1193.08 54.3163L1193.07 54.3182L1193.48 55.232ZM1199.14 49.616L1200.06 50.0221L1200.06 50.018L1199.14 49.616ZM1199.14 12.608L1198.23 13.01L1198.23 13.0141L1199.14 12.608ZM1193.48 6.944L1193.06 7.85359L1193.07 7.85667L1193.08 7.85964L1193.48 6.944ZM1162.42 5.168V4.168H1161.42V5.168H1162.42ZM1159.93 61C1159.23 61 1158.9 60.8272 1158.73 60.6569C1158.56 60.4866 1158.38 60.1499 1158.38 59.456H1156.38C1156.38 60.4581 1156.63 61.3934 1157.31 62.0711C1157.99 62.7488 1158.92 63 1159.93 63V61ZM1158.38 59.456V2.672H1156.38V59.456H1158.38ZM1158.38 2.672C1158.38 1.97814 1158.56 1.64143 1158.73 1.4711C1158.9 1.30079 1159.23 1.128 1159.93 1.128V-0.872002C1158.92 -0.872002 1157.99 -0.620789 1157.31 0.0568905C1156.63 0.734571 1156.38 1.66985 1156.38 2.672H1158.38ZM1159.93 1.128H1183.06V-0.872002H1159.93V1.128ZM1183.06 1.128C1190.91 1.128 1196.38 2.92752 1199.73 6.30398L1201.15 4.89601C1197.26 0.976469 1191.15 -0.872002 1183.06 -0.872002V1.128ZM1199.73 6.3071C1203.11 9.68709 1204.91 15.1802 1204.91 23.024H1206.91C1206.91 14.9318 1205.06 8.8089 1201.15 4.89289L1199.73 6.3071ZM1204.91 23.024V39.104H1206.91V23.024H1204.91ZM1204.91 39.104C1204.91 46.9478 1203.11 52.4409 1199.73 55.8209L1201.15 57.2351C1205.06 53.3191 1206.91 47.1962 1206.91 39.104H1204.91ZM1199.73 55.824C1196.38 59.2005 1190.91 61 1183.06 61V63C1191.15 63 1197.26 61.1515 1201.15 57.232L1199.73 55.824ZM1183.06 61H1159.93V63H1183.06V61ZM1162.42 57.96H1183.06V55.96H1162.42V57.96ZM1183.06 57.96C1187.49 57.96 1191.11 57.3768 1193.88 56.1458L1193.07 54.3182C1190.66 55.3912 1187.34 55.96 1183.06 55.96V57.96ZM1193.88 56.1476C1196.73 54.8966 1198.8 52.8444 1200.06 50.0221L1198.23 49.2099C1197.18 51.5716 1195.47 53.2634 1193.08 54.3164L1193.88 56.1476ZM1200.06 50.018C1201.29 47.2182 1201.87 43.5603 1201.87 39.104H1199.87C1199.87 43.4157 1199.3 46.7658 1198.23 49.214L1200.06 50.018ZM1201.87 39.104V23.024H1199.87V39.104H1201.87ZM1201.87 23.024C1201.87 18.5994 1201.29 14.9715 1200.06 12.2019L1198.23 13.0141C1199.3 15.4285 1199.87 18.7446 1199.87 23.024H1201.87ZM1200.06 12.206C1198.81 9.35246 1196.73 7.28113 1193.88 6.02835L1193.08 7.85964C1195.47 8.91086 1197.18 10.6155 1198.23 13.01L1200.06 12.206ZM1193.89 6.0344C1191.12 4.7678 1187.49 4.168 1183.06 4.168V6.168C1187.34 6.168 1190.65 6.75219 1193.06 7.85359L1193.89 6.0344ZM1183.06 4.168H1162.42V6.168H1183.06V4.168ZM1161.42 5.168V56.96H1163.42V5.168H1161.42ZM1226.04 57.2L1226.75 56.4929L1226.04 57.2ZM1226.04 4.83199L1226.75 5.54266L1226.75 5.5391L1226.04 4.83199ZM1241.16 0.127998L1241.15 1.128H1241.16V0.127998ZM1267.95 4.928L1267.24 5.63155L1267.24 5.63511L1267.95 4.928ZM1267.95 57.2L1267.24 56.4929L1267.24 56.4965L1267.95 57.2ZM1261.56 55.52L1261.16 54.6051L1261.56 55.52ZM1266.27 50.816L1267.18 51.2196L1266.27 50.816ZM1266.27 11.36L1267.18 10.9564L1266.27 11.36ZM1261.56 6.656L1261.15 7.56598L1261.16 7.57092L1261.56 6.656ZM1241.16 5.168L1241.15 6.168H1241.16V5.168ZM1232.38 6.56L1232.78 7.47774L1232.78 7.47491L1232.38 6.56ZM1227.72 11.264L1228.64 11.6676L1228.64 11.6627L1227.72 11.264ZM1227.72 50.816L1226.81 51.2196L1227.72 50.816ZM1232.43 55.52L1232.02 56.4349L1232.43 55.52ZM1241.26 61C1234.44 61 1229.68 59.4259 1226.75 56.4929L1225.34 57.9071C1228.8 61.3741 1234.19 63 1241.26 63V61ZM1226.75 56.4929C1223.82 53.5599 1222.24 48.8016 1222.24 41.984H1220.24C1220.24 49.0544 1221.87 54.4401 1225.34 57.9071L1226.75 56.4929ZM1222.24 41.984V20.096H1220.24V41.984H1222.24ZM1222.24 20.096C1222.24 13.2102 1223.82 8.44091 1226.75 5.54264L1225.34 4.12135C1221.87 7.55908 1220.24 12.9658 1220.24 20.096H1222.24ZM1226.75 5.5391C1229.68 2.60809 1234.4 1.06517 1241.15 1.12796L1241.17 -0.871958C1234.16 -0.937174 1228.8 0.655907 1225.34 4.12489L1226.75 5.5391ZM1241.16 1.128H1252.78V-0.872002H1241.16V1.128ZM1252.78 1.128C1259.6 1.128 1264.34 2.70255 1267.24 5.63154L1268.66 4.22446C1265.22 0.753447 1259.85 -0.872002 1252.78 -0.872002V1.128ZM1267.24 5.63511C1270.17 8.56812 1271.75 13.3264 1271.75 20.144H1273.75C1273.75 13.0736 1272.12 7.68788 1268.65 4.22089L1267.24 5.63511ZM1271.75 20.144V41.984H1273.75V20.144H1271.75ZM1271.75 41.984C1271.75 48.8016 1270.17 53.5599 1267.24 56.4929L1268.65 57.9071C1272.12 54.4401 1273.75 49.0544 1273.75 41.984H1271.75ZM1267.24 56.4965C1264.34 59.4254 1259.6 61 1252.78 61V63C1259.85 63 1265.22 61.3745 1268.66 57.9035L1267.24 56.4965ZM1252.78 61H1241.26V63H1252.78V61ZM1241.26 57.96H1252.78V55.96H1241.26V57.96ZM1252.78 57.96C1256.53 57.96 1259.61 57.4732 1261.97 56.4349L1261.16 54.6051C1259.16 55.4868 1256.39 55.96 1252.78 55.96V57.96ZM1261.97 56.4349C1264.37 55.3742 1266.12 53.6239 1267.18 51.2196L1265.35 50.4124C1264.49 52.3601 1263.11 53.7458 1261.16 54.6051L1261.97 56.4349ZM1267.18 51.2196C1268.22 48.8653 1268.71 45.7653 1268.71 41.984H1266.71C1266.71 45.6267 1266.23 48.4147 1265.35 50.4124L1267.18 51.2196ZM1268.71 41.984V20.144H1266.71V41.984H1268.71ZM1268.71 20.144C1268.71 16.3933 1268.22 13.3099 1267.18 10.9564L1265.35 11.7636C1266.23 13.7621 1266.71 16.5347 1266.71 20.144H1268.71ZM1267.18 10.9564C1266.12 8.55213 1264.37 6.80177 1261.97 5.74108L1261.16 7.57092C1263.11 8.43023 1264.49 9.81587 1265.35 11.7636L1267.18 10.9564ZM1261.98 5.74609C1259.62 4.67142 1256.53 4.168 1252.78 4.168V6.168C1256.38 6.168 1259.15 6.65657 1261.15 7.56591L1261.98 5.74609ZM1252.78 4.168H1241.16V6.168H1252.78V4.168ZM1241.17 4.16804C1237.42 4.13541 1234.33 4.60508 1231.97 5.64508L1232.78 7.47491C1234.78 6.59491 1237.55 6.13659 1241.15 6.16796L1241.17 4.16804ZM1231.98 5.64227C1229.6 6.67442 1227.86 8.43246 1226.81 10.8653L1228.64 11.6627C1229.5 9.67953 1230.87 8.30157 1232.78 7.47772L1231.98 5.64227ZM1226.81 10.8604C1225.77 13.2147 1225.28 16.3147 1225.28 20.096H1227.28C1227.28 16.4533 1227.76 13.6653 1228.64 11.6676L1226.81 10.8604ZM1225.28 20.096V41.984H1227.28V20.096H1225.28ZM1225.28 41.984C1225.28 45.7653 1225.77 48.8653 1226.81 51.2196L1228.64 50.4124C1227.76 48.4147 1227.28 45.6267 1227.28 41.984H1225.28ZM1226.81 51.2196C1227.87 53.6239 1229.62 55.3742 1232.02 56.4349L1232.83 54.6051C1230.88 53.7458 1229.5 52.3601 1228.64 50.4124L1226.81 51.2196ZM1232.02 56.4349C1234.38 57.4736 1237.48 57.96 1241.26 57.96V55.96C1237.62 55.96 1234.83 55.4864 1232.83 54.6051L1232.02 56.4349ZM1301.95 61.376L1301.25 62.0831L1301.26 62.0953L1301.27 62.1071L1301.95 61.376ZM1301.28 5.12H1302.28V4.12H1301.28V5.12ZM1279.01 4.448L1278.3 5.15511L1278.32 5.16729L1278.33 5.17906L1279.01 4.448ZM1279.01 0.799995L1278.3 0.0928879V0.0928898L1279.01 0.799995ZM1328.59 0.799995L1327.86 1.48232L1327.88 1.49492L1327.89 1.5071L1328.59 0.799995ZM1328.59 4.448L1329.3 5.15511V5.15511L1328.59 4.448ZM1306.32 5.12V4.12H1305.32V5.12H1306.32ZM1305.6 61.376L1306.31 62.0831L1305.6 61.376ZM1303.83 61.048C1303.27 61.048 1302.9 60.8912 1302.64 60.6449L1301.27 62.1071C1301.97 62.7568 1302.85 63.048 1303.83 63.048V61.048ZM1302.66 60.6689C1302.44 60.447 1302.28 60.1148 1302.28 59.552H1300.28C1300.28 60.5252 1300.57 61.409 1301.25 62.0831L1302.66 60.6689ZM1302.28 59.552V5.12H1300.28V59.552H1302.28ZM1301.28 4.12H1280.88V6.12H1301.28V4.12ZM1280.88 4.12C1280.32 4.12 1279.96 3.96316 1279.69 3.71694L1278.33 5.17906C1279.02 5.82883 1279.91 6.12 1280.88 6.12V4.12ZM1279.72 3.74089C1279.5 3.519 1279.34 3.18682 1279.34 2.62399H1277.34C1277.34 3.59718 1277.63 4.481 1278.3 5.15511L1279.72 3.74089ZM1279.34 2.62399C1279.34 2.06118 1279.5 1.729 1279.72 1.5071L1278.3 0.0928898C1277.63 0.766996 1277.34 1.65082 1277.34 2.62399H1279.34ZM1279.72 1.5071C1279.98 1.23988 1280.34 1.07999 1280.88 1.07999V-0.920004C1279.89 -0.920004 1279 -0.59989 1278.3 0.0928879L1279.72 1.5071ZM1280.88 1.07999H1326.77V-0.920004H1280.88V1.07999ZM1326.77 1.07999C1327.31 1.07999 1327.64 1.23964 1327.86 1.48232L1329.33 0.117676C1328.66 -0.599646 1327.76 -0.920004 1326.77 -0.920004V1.07999ZM1327.89 1.5071C1328.11 1.729 1328.27 2.06118 1328.27 2.62399H1330.27C1330.27 1.65082 1329.98 0.766998 1329.3 0.0928917L1327.89 1.5071ZM1328.27 2.62399C1328.27 3.18682 1328.11 3.519 1327.89 3.74089L1329.3 5.15511C1329.98 4.481 1330.27 3.59717 1330.27 2.62399H1328.27ZM1327.89 3.74089C1327.67 3.96278 1327.33 4.12 1326.77 4.12V6.12C1327.74 6.12 1328.63 5.82921 1329.3 5.15511L1327.89 3.74089ZM1326.77 4.12H1306.32V6.12H1326.77V4.12ZM1305.32 5.12V59.552H1307.32V5.12H1305.32ZM1305.32 59.552C1305.32 60.0474 1305.17 60.3932 1304.9 60.6689L1306.31 62.0831C1306.99 61.3988 1307.32 60.5286 1307.32 59.552H1305.32ZM1304.9 60.6689C1304.67 60.8989 1304.34 61.048 1303.83 61.048V63.048C1304.78 63.048 1305.64 62.7491 1306.31 62.0831L1304.9 60.6689Z" fill="black"/>
</svg>
