<svg width="169" height="35" viewBox="0 0 169 35" fill="none" xmlns="http://www.w3.org/2000/svg">
<path d="M22.4 2H11.2C9.71479 2 8.29041 2.39925 7.2402 3.10991C6.19 3.82058 5.6 4.78444 5.6 5.78947V10.8421H7.46667V5.78947C7.46667 5.11945 7.86 4.47687 8.56013 4.0031C9.26027 3.52932 10.2099 3.26316 11.2 3.26316H22.4C23.3901 3.26316 24.3397 3.52932 25.0399 4.0031C25.74 4.47687 26.1333 5.11945 26.1333 5.78947V22.2105C26.1333 22.8805 25.74 23.5231 25.0399 23.9969C24.3397 24.4707 23.3901 24.7368 22.4 24.7368H11.2C10.2099 24.7368 9.26027 24.4707 8.56013 23.9969C7.86 23.5231 7.46667 22.8805 7.46667 22.2105V17.1579H5.6V22.2105C5.6 23.2156 6.19 24.1794 7.2402 24.8901C8.29041 25.6008 9.71479 26 11.2 26H22.4C23.8852 26 25.3096 25.6008 26.3598 24.8901C27.41 24.1794 28 23.2156 28 22.2105V5.78947C28 4.78444 27.41 3.82058 26.3598 3.10991C25.3096 2.39925 23.8852 2 22.4 2ZM0 13.3684H19.1333L13.0667 9.26316L14.3061 8.31579L22.7061 14L14.3061 19.6842L13.0667 18.7368L19.1333 14.6316H0V13.3684Z" fill="black"/>
<path d="M39.2273 5.54545V23H37.1136V5.54545H39.2273ZM57.3061 5.54545V23H55.2607L45.7493 9.29545H45.5788V23H43.4652V5.54545H45.5107L55.0561 19.2841H55.2266V5.54545H57.3061ZM73.4673 11C73.2798 10.4261 73.0327 9.91193 72.7259 9.45739C72.4247 8.99716 72.0639 8.60511 71.6435 8.28125C71.2287 7.95739 70.7571 7.71023 70.2287 7.53977C69.7003 7.36932 69.1207 7.28409 68.4901 7.28409C67.456 7.28409 66.5156 7.55114 65.669 8.08523C64.8224 8.61932 64.1491 9.40625 63.6491 10.446C63.1491 11.4858 62.8991 12.7614 62.8991 14.2727C62.8991 15.7841 63.152 17.0597 63.6577 18.0994C64.1634 19.1392 64.848 19.9261 65.7116 20.4602C66.5753 20.9943 67.5469 21.2614 68.6264 21.2614C69.6264 21.2614 70.5071 21.0483 71.2685 20.6222C72.0355 20.1903 72.6321 19.5824 73.0582 18.7983C73.4901 18.0085 73.706 17.0795 73.706 16.0114L74.3537 16.1477H69.1037V14.2727H75.7514V16.1477C75.7514 17.5852 75.4446 18.8352 74.831 19.8977C74.223 20.9602 73.3821 21.7841 72.3082 22.3693C71.2401 22.9489 70.0128 23.2386 68.6264 23.2386C67.081 23.2386 65.723 22.875 64.5526 22.1477C63.3878 21.4205 62.4787 20.3864 61.8253 19.0455C61.1776 17.7045 60.8537 16.1136 60.8537 14.2727C60.8537 12.892 61.0384 11.6506 61.4077 10.5483C61.7827 9.44034 62.3111 8.49716 62.9929 7.71875C63.6747 6.94034 64.4815 6.34375 65.4134 5.92898C66.3452 5.5142 67.3707 5.30682 68.4901 5.30682C69.4105 5.30682 70.2685 5.44602 71.0639 5.72443C71.8651 5.99716 72.5781 6.38636 73.2031 6.89204C73.8338 7.39204 74.3594 7.99148 74.7798 8.69034C75.2003 9.38352 75.4901 10.1534 75.6491 11H73.4673ZM79.3714 23V5.54545H85.2692C86.6328 5.54545 87.7521 5.77841 88.6271 6.24432C89.5021 6.70454 90.1499 7.33807 90.5703 8.14489C90.9908 8.9517 91.201 9.86932 91.201 10.8977C91.201 11.9261 90.9908 12.8381 90.5703 13.6335C90.1499 14.429 89.505 15.054 88.6357 15.5085C87.7663 15.9574 86.6555 16.1818 85.3033 16.1818H80.5305V14.2727H85.2351C86.1669 14.2727 86.9169 14.1364 87.4851 13.8636C88.0589 13.5909 88.4737 13.2045 88.7294 12.7045C88.9908 12.1989 89.1214 11.5966 89.1214 10.8977C89.1214 10.1989 88.9908 9.58807 88.7294 9.06534C88.468 8.54261 88.0504 8.1392 87.4766 7.85511C86.9027 7.56534 86.1442 7.42045 85.201 7.42045H81.4851V23H79.3714ZM87.5874 15.1591L91.8828 23H89.4283L85.201 15.1591H87.5874ZM94.723 23V5.54545H105.257V7.42045H96.8366V13.3182H104.712V15.1932H96.8366V21.125H105.393V23H94.723ZM118.612 9.90909C118.51 9.04545 118.095 8.375 117.368 7.89773C116.641 7.42045 115.749 7.18182 114.692 7.18182C113.919 7.18182 113.243 7.30682 112.663 7.55682C112.089 7.80682 111.641 8.15057 111.317 8.58807C110.999 9.02557 110.839 9.52273 110.839 10.0795C110.839 10.5455 110.95 10.946 111.172 11.2812C111.399 11.6108 111.689 11.8864 112.041 12.108C112.393 12.3239 112.763 12.5028 113.149 12.6449C113.536 12.7812 113.891 12.892 114.214 12.9773L115.987 13.4545C116.442 13.5739 116.947 13.7386 117.504 13.9489C118.067 14.1591 118.604 14.446 119.115 14.8097C119.632 15.1676 120.058 15.6278 120.393 16.1903C120.729 16.7528 120.896 17.4432 120.896 18.2614C120.896 19.2045 120.649 20.0568 120.155 20.8182C119.666 21.5795 118.95 22.1847 118.007 22.6335C117.07 23.0824 115.93 23.3068 114.589 23.3068C113.339 23.3068 112.257 23.1051 111.342 22.7017C110.433 22.2983 109.717 21.7358 109.195 21.0142C108.678 20.2926 108.385 19.4545 108.317 18.5H110.499C110.555 19.1591 110.777 19.7045 111.163 20.1364C111.555 20.5625 112.05 20.8807 112.646 21.0909C113.249 21.2955 113.896 21.3977 114.589 21.3977C115.396 21.3977 116.121 21.267 116.763 21.0057C117.405 20.7386 117.913 20.3693 118.288 19.8977C118.663 19.4205 118.851 18.8636 118.851 18.2273C118.851 17.6477 118.689 17.1761 118.365 16.8125C118.041 16.4489 117.615 16.1534 117.087 15.9261C116.558 15.6989 115.987 15.5 115.374 15.3295L113.226 14.7159C111.862 14.3239 110.783 13.7642 109.987 13.0369C109.192 12.3097 108.794 11.358 108.794 10.1818C108.794 9.20454 109.058 8.35227 109.587 7.625C110.121 6.89205 110.837 6.32386 111.734 5.92045C112.638 5.51136 113.646 5.30682 114.76 5.30682C115.885 5.30682 116.885 5.50852 117.76 5.91193C118.635 6.30966 119.328 6.85511 119.839 7.54829C120.357 8.24148 120.629 9.02841 120.658 9.90909H118.612ZM125.087 23H122.871L129.281 5.54545H131.462L137.871 23H135.656L130.44 8.30682H130.303L125.087 23ZM125.906 16.1818H134.837V18.0568H125.906V16.1818ZM140.59 23V5.54545H146.488C147.852 5.54545 148.971 5.77841 149.846 6.24432C150.721 6.70454 151.369 7.33807 151.789 8.14489C152.21 8.9517 152.42 9.86932 152.42 10.8977C152.42 11.9261 152.21 12.8381 151.789 13.6335C151.369 14.429 150.724 15.054 149.854 15.5085C148.985 15.9574 147.874 16.1818 146.522 16.1818H141.749V14.2727H146.454C147.386 14.2727 148.136 14.1364 148.704 13.8636C149.278 13.5909 149.692 13.2045 149.948 12.7045C150.21 12.1989 150.34 11.5966 150.34 10.8977C150.34 10.1989 150.21 9.58807 149.948 9.06534C149.687 8.54261 149.269 8.1392 148.695 7.85511C148.121 7.56534 147.363 7.42045 146.42 7.42045H142.704V23H140.59ZM148.806 15.1591L153.102 23H150.647L146.42 15.1591H148.806Z" fill="black"/>
<path d="M154.149 27.6983L160.945 34.0471C161.03 34.126 161.145 34.1707 161.266 34.1715C161.386 34.1723 161.502 34.1292 161.588 34.0516L168.471 27.7974C168.546 27.7175 168.586 27.6144 168.582 27.5087C168.579 27.4029 168.532 27.3023 168.451 27.2269C168.37 27.1515 168.262 27.1069 168.147 27.1021C168.032 27.0972 167.92 27.1324 167.832 27.2006L161.275 33.1588L154.801 27.1062C154.714 27.0368 154.602 27.0001 154.488 27.0034C154.373 27.0066 154.264 27.0497 154.182 27.124C154.1 27.1982 154.052 27.2982 154.047 27.4039C154.042 27.5096 154.08 27.6132 154.154 27.6941L154.149 27.6983Z" fill="black"/>
</svg>
