<svg width="127" height="41" viewBox="0 0 127 41" fill="none" xmlns="http://www.w3.org/2000/svg">
<path d="M55.2273 9.54545V27H53.1136V9.54545H55.2273ZM73.3061 9.54545V27H71.2607L61.7493 13.2955H61.5788V27H59.4652V9.54545H61.5107L71.0561 23.2841H71.2266V9.54545H73.3061ZM79.6491 9.54545V27H77.5355V9.54545H79.6491ZM97.9325 15H95.8189C95.6939 14.392 95.4751 13.858 95.1626 13.3977C94.8558 12.9375 94.4808 12.5511 94.0376 12.2386C93.6001 11.9205 93.1143 11.6818 92.5803 11.5227C92.0462 11.3636 91.4893 11.2841 90.9098 11.2841C89.853 11.2841 88.8956 11.5511 88.0376 12.0852C87.1854 12.6193 86.5064 13.4062 86.0007 14.446C85.5007 15.4858 85.2507 16.7614 85.2507 18.2727C85.2507 19.7841 85.5007 21.0597 86.0007 22.0994C86.5064 23.1392 87.1854 23.9261 88.0376 24.4602C88.8956 24.9943 89.853 25.2614 90.9098 25.2614C91.4893 25.2614 92.0462 25.1818 92.5803 25.0227C93.1143 24.8636 93.6001 24.6278 94.0376 24.3153C94.4808 23.9972 94.8558 23.608 95.1626 23.1477C95.4751 22.6818 95.6939 22.1477 95.8189 21.5455H97.9325C97.7734 22.4375 97.4837 23.2358 97.0632 23.9403C96.6428 24.6449 96.12 25.2443 95.495 25.7386C94.87 26.2273 94.1683 26.5994 93.3899 26.8551C92.6172 27.1108 91.7905 27.2386 90.9098 27.2386C89.4212 27.2386 88.0973 26.875 86.9382 26.1477C85.7791 25.4205 84.8672 24.3864 84.2024 23.0455C83.5376 21.7045 83.2053 20.1136 83.2053 18.2727C83.2053 16.4318 83.5376 14.8409 84.2024 13.5C84.8672 12.1591 85.7791 11.125 86.9382 10.3977C88.0973 9.67045 89.4212 9.30682 90.9098 9.30682C91.7905 9.30682 92.6172 9.43466 93.3899 9.69034C94.1683 9.94602 94.87 10.321 95.495 10.8153C96.12 11.304 96.6428 11.9006 97.0632 12.6051C97.4837 13.304 97.7734 14.1023 97.9325 15ZM103.462 9.54545V27H101.348V9.54545H103.462ZM122.427 18.2727C122.427 20.1136 122.094 21.7045 121.43 23.0455C120.765 24.3864 119.853 25.4205 118.694 26.1477C117.535 26.875 116.211 27.2386 114.722 27.2386C113.234 27.2386 111.91 26.875 110.751 26.1477C109.592 25.4205 108.68 24.3864 108.015 23.0455C107.35 21.7045 107.018 20.1136 107.018 18.2727C107.018 16.4318 107.35 14.8409 108.015 13.5C108.68 12.1591 109.592 11.125 110.751 10.3977C111.91 9.67045 113.234 9.30682 114.722 9.30682C116.211 9.30682 117.535 9.67045 118.694 10.3977C119.853 11.125 120.765 12.1591 121.43 13.5C122.094 14.8409 122.427 16.4318 122.427 18.2727ZM120.381 18.2727C120.381 16.7614 120.129 15.4858 119.623 14.446C119.123 13.4062 118.444 12.6193 117.586 12.0852C116.734 11.5511 115.779 11.2841 114.722 11.2841C113.665 11.2841 112.708 11.5511 111.85 12.0852C110.998 12.6193 110.319 13.4062 109.813 14.446C109.313 15.4858 109.063 16.7614 109.063 18.2727C109.063 19.7841 109.313 21.0597 109.813 22.0994C110.319 23.1392 110.998 23.9261 111.85 24.4602C112.708 24.9943 113.665 25.2614 114.722 25.2614C115.779 25.2614 116.734 24.9943 117.586 24.4602C118.444 23.9261 119.123 23.1392 119.623 22.0994C120.129 21.0597 120.381 19.7841 120.381 18.2727Z" fill="black"/>
<path d="M39.7253 17.9504L21.8463 2.33838C21.6229 2.14453 21.3209 2.03572 21.006 2.03572C20.6911 2.03572 20.389 2.14453 20.1656 2.33838L2.28661 17.9504C2.09134 18.1495 1.9893 18.4056 2.00089 18.6675C2.01248 18.9295 2.13683 19.178 2.34911 19.3633C2.56139 19.5487 2.84595 19.6573 3.14593 19.6674C3.44591 19.6775 3.73922 19.5884 3.96724 19.4179L21 4.54487L38.0328 19.4283C38.2608 19.5988 38.5541 19.6879 38.8541 19.6778C39.154 19.6677 39.4386 19.5591 39.6509 19.3737C39.8632 19.1884 39.9875 18.9399 39.9991 18.6779C40.0107 18.416 39.9087 18.1599 39.7134 17.9608L39.7253 17.9504Z" fill="black"/>
<path d="M32.9445 33.8751H26.9722V23.4291H15.0278V33.8751H9.05558V19.2507L6.66669 21.3399V33.8751C6.66669 34.4292 6.91837 34.9606 7.36638 35.3524C7.81438 35.7442 8.422 35.9643 9.05558 35.9643H17.4167V25.5183H24.5834V35.9643H32.9445C33.578 35.9643 34.1857 35.7442 34.6337 35.3524C35.0817 34.9606 35.3334 34.4292 35.3334 33.8751V21.0892L32.9445 19V33.8751Z" fill="black"/>
</svg>
