<svg width="164" height="31" viewBox="0 0 164 31" fill="none" xmlns="http://www.w3.org/2000/svg">
<path d="M53.9545 5.54545V23H51.9091L42.3977 9.29545H42.2273V23H40.1136V5.54545H42.1591L51.7045 19.2841H51.875V5.54545H53.9545ZM72.9112 14.2727C72.9112 16.1136 72.5788 17.7045 71.9141 19.0455C71.2493 20.3864 70.3374 21.4205 69.1783 22.1477C68.0192 22.875 66.6953 23.2386 65.2067 23.2386C63.718 23.2386 62.3942 22.875 61.2351 22.1477C60.076 21.4205 59.1641 20.3864 58.4993 19.0455C57.8345 17.7045 57.5021 16.1136 57.5021 14.2727C57.5021 12.4318 57.8345 10.8409 58.4993 9.5C59.1641 8.15909 60.076 7.125 61.2351 6.39773C62.3942 5.67045 63.718 5.30682 65.2067 5.30682C66.6953 5.30682 68.0192 5.67045 69.1783 6.39773C70.3374 7.125 71.2493 8.15909 71.9141 9.5C72.5788 10.8409 72.9112 12.4318 72.9112 14.2727ZM70.8658 14.2727C70.8658 12.7614 70.6129 11.4858 70.1072 10.446C69.6072 9.40625 68.9283 8.61932 68.0703 8.08523C67.218 7.55114 66.2635 7.28409 65.2067 7.28409C64.1499 7.28409 63.1925 7.55114 62.3345 8.08523C61.4822 8.61932 60.8033 9.40625 60.2976 10.446C59.7976 11.4858 59.5476 12.7614 59.5476 14.2727C59.5476 15.7841 59.7976 17.0597 60.2976 18.0994C60.8033 19.1392 61.4822 19.9261 62.3345 20.4602C63.1925 20.9943 64.1499 21.2614 65.2067 21.2614C66.2635 21.2614 67.218 20.9943 68.0703 20.4602C68.9283 19.9261 69.6072 19.1392 70.1072 18.0994C70.6129 17.0597 70.8658 15.7841 70.8658 14.2727ZM74.7841 7.42045V5.54545H87.875V7.42045H82.3864V23H80.2727V7.42045H74.7841ZM93.2507 5.54545V23H91.1371V5.54545H93.2507ZM111.534 11H109.42C109.295 10.392 109.077 9.85795 108.764 9.39773C108.457 8.9375 108.082 8.55114 107.639 8.23864C107.202 7.92045 106.716 7.68182 106.182 7.52273C105.648 7.36364 105.091 7.28409 104.511 7.28409C103.455 7.28409 102.497 7.55114 101.639 8.08523C100.787 8.61932 100.108 9.40625 99.6023 10.446C99.1023 11.4858 98.8523 12.7614 98.8523 14.2727C98.8523 15.7841 99.1023 17.0597 99.6023 18.0994C100.108 19.1392 100.787 19.9261 101.639 20.4602C102.497 20.9943 103.455 21.2614 104.511 21.2614C105.091 21.2614 105.648 21.1818 106.182 21.0227C106.716 20.8636 107.202 20.6278 107.639 20.3153C108.082 19.9972 108.457 19.608 108.764 19.1477C109.077 18.6818 109.295 18.1477 109.42 17.5455H111.534C111.375 18.4375 111.085 19.2358 110.665 19.9403C110.244 20.6449 109.722 21.2443 109.097 21.7386C108.472 22.2273 107.77 22.5994 106.991 22.8551C106.219 23.1108 105.392 23.2386 104.511 23.2386C103.023 23.2386 101.699 22.875 100.54 22.1477C99.3807 21.4205 98.4688 20.3864 97.804 19.0455C97.1392 17.7045 96.8068 16.1136 96.8068 14.2727C96.8068 12.4318 97.1392 10.8409 97.804 9.5C98.4688 8.15909 99.3807 7.125 100.54 6.39773C101.699 5.67045 103.023 5.30682 104.511 5.30682C105.392 5.30682 106.219 5.43466 106.991 5.69034C107.77 5.94602 108.472 6.32102 109.097 6.81534C109.722 7.30398 110.244 7.90057 110.665 8.60511C111.085 9.30398 111.375 10.1023 111.534 11ZM117.063 5.54545V23H114.95V5.54545H117.063ZM122.017 23H119.801L126.21 5.54545H128.392L134.801 23H132.585L127.369 8.30682H127.233L122.017 23ZM122.835 16.1818H131.767V18.0568H122.835V16.1818ZM147.065 9.90909C146.963 9.04545 146.548 8.375 145.821 7.89773C145.094 7.42045 144.202 7.18182 143.145 7.18182C142.372 7.18182 141.696 7.30682 141.116 7.55682C140.543 7.80682 140.094 8.15057 139.77 8.58807C139.452 9.02557 139.293 9.52273 139.293 10.0795C139.293 10.5455 139.403 10.946 139.625 11.2812C139.852 11.6108 140.142 11.8864 140.494 12.108C140.847 12.3239 141.216 12.5028 141.602 12.6449C141.989 12.7812 142.344 12.892 142.668 12.9773L144.44 13.4545C144.895 13.5739 145.401 13.7386 145.957 13.9489C146.52 14.1591 147.057 14.446 147.568 14.8097C148.085 15.1676 148.511 15.6278 148.847 16.1903C149.182 16.7528 149.349 17.4432 149.349 18.2614C149.349 19.2045 149.102 20.0568 148.608 20.8182C148.119 21.5795 147.403 22.1847 146.46 22.6335C145.523 23.0824 144.384 23.3068 143.043 23.3068C141.793 23.3068 140.71 23.1051 139.795 22.7017C138.886 22.2983 138.17 21.7358 137.648 21.0142C137.131 20.2926 136.838 19.4545 136.77 18.5H138.952C139.009 19.1591 139.23 19.7045 139.616 20.1364C140.009 20.5625 140.503 20.8807 141.099 21.0909C141.702 21.2955 142.349 21.3977 143.043 21.3977C143.849 21.3977 144.574 21.267 145.216 21.0057C145.858 20.7386 146.366 20.3693 146.741 19.8977C147.116 19.4205 147.304 18.8636 147.304 18.2273C147.304 17.6477 147.142 17.1761 146.818 16.8125C146.494 16.4489 146.068 16.1534 145.54 15.9261C145.011 15.6989 144.44 15.5 143.827 15.3295L141.679 14.7159C140.315 14.3239 139.236 13.7642 138.44 13.0369C137.645 12.3097 137.247 11.358 137.247 10.1818C137.247 9.20454 137.511 8.35227 138.04 7.625C138.574 6.89205 139.29 6.32386 140.188 5.92045C141.091 5.51136 142.099 5.30682 143.213 5.30682C144.338 5.30682 145.338 5.50852 146.213 5.91193C147.088 6.30966 147.781 6.85511 148.293 7.54829C148.81 8.24148 149.082 9.02841 149.111 9.90909H147.065Z" fill="black"/>
<path d="M22.1538 2H1.84617C1.35654 2 0.886962 2.26564 0.540741 2.73849C0.194521 3.21134 1.62306e-05 3.85266 1.62306e-05 4.52137V29.7351C-0.000923675 29.9502 0.0389734 30.162 0.115817 30.3498C0.19266 30.5376 0.303827 30.695 0.438477 30.8066C0.572045 30.9213 0.724903 30.9873 0.882461 30.9983C1.04002 31.0094 1.19702 30.9651 1.33848 30.8697L4.61539 28.6162L7.89231 30.8697C8.0219 30.9549 8.16388 30.9991 8.3077 30.9991C8.45152 30.9991 8.59349 30.9549 8.72308 30.8697L12 28.6162L15.2769 30.8697C15.407 30.9527 15.5488 30.9957 15.6923 30.9957C15.8359 30.9957 15.9776 30.9527 16.1077 30.8697L19.3846 28.6162L22.6615 30.8697C22.803 30.9651 22.96 31.0094 23.1175 30.9983C23.2751 30.9873 23.428 30.9213 23.5615 30.8066C23.6962 30.695 23.8073 30.5376 23.8842 30.3498C23.961 30.162 24.0009 29.9502 24 29.7351V4.52137C24 3.85266 23.8055 3.21134 23.4593 2.73849C23.113 2.26564 22.6435 2 22.1538 2ZM22.1538 27.7022L19.8 26.0791C19.6704 25.9939 19.5284 25.9496 19.3846 25.9496C19.2408 25.9496 19.0988 25.9939 18.9692 26.0791L15.6923 28.3325L12.4154 26.0791C12.2853 25.996 12.1435 25.953 12 25.953C11.8565 25.953 11.7147 25.996 11.5846 26.0791L8.3077 28.3325L5.03078 26.0791C4.90119 25.9939 4.75922 25.9496 4.61539 25.9496C4.47157 25.9496 4.3296 25.9939 4.20001 26.0791L1.84617 27.7022V4.52137H22.1538V27.7022ZM12.9231 13.3462C12.9231 13.0118 13.0203 12.6911 13.1934 12.4547C13.3665 12.2183 13.6013 12.0855 13.8462 12.0855H19.3846C19.6294 12.0855 19.8642 12.2183 20.0373 12.4547C20.2104 12.6911 20.3077 13.0118 20.3077 13.3462C20.3077 13.6805 20.2104 14.0012 20.0373 14.2376C19.8642 14.474 19.6294 14.6068 19.3846 14.6068H13.8462C13.6013 14.6068 13.3665 14.474 13.1934 14.2376C13.0203 14.0012 12.9231 13.6805 12.9231 13.3462ZM12.9231 18.3889C12.9231 18.0545 13.0203 17.7339 13.1934 17.4975C13.3665 17.261 13.6013 17.1282 13.8462 17.1282H19.3846C19.6294 17.1282 19.8642 17.261 20.0373 17.4975C20.2104 17.7339 20.3077 18.0545 20.3077 18.3889C20.3077 18.7232 20.2104 19.0439 20.0373 19.2803C19.8642 19.5168 19.6294 19.6496 19.3846 19.6496H13.8462C13.6013 19.6496 13.3665 19.5168 13.1934 19.2803C13.0203 19.0439 12.9231 18.7232 12.9231 18.3889ZM4.61539 22.1709H10.1538C10.3987 22.1709 10.6335 22.0381 10.8066 21.8017C10.9797 21.5653 11.0769 21.2446 11.0769 20.9103V10.8248C11.0769 10.4904 10.9797 10.1698 10.8066 9.93335C10.6335 9.69693 10.3987 9.56411 10.1538 9.56411H4.61539C4.37058 9.56411 4.13579 9.69693 3.96268 9.93335C3.78957 10.1698 3.69232 10.4904 3.69232 10.8248V20.9103C3.69232 21.2446 3.78957 21.5653 3.96268 21.8017C4.13579 22.0381 4.37058 22.1709 4.61539 22.1709ZM5.53847 12.0855H9.23077V19.6496H5.53847V12.0855Z" fill="black"/>
</svg>
