<svg width="252" height="36" viewBox="0 0 252 36" fill="none" xmlns="http://www.w3.org/2000/svg">
<path d="M237.15 27.6983L243.945 34.0471C244.03 34.1259 244.145 34.1707 244.266 34.1715C244.386 34.1723 244.502 34.1292 244.588 34.0516L251.471 27.7974C251.546 27.7175 251.586 27.6144 251.582 27.5087C251.579 27.4029 251.532 27.3023 251.451 27.2269C251.37 27.1515 251.262 27.1069 251.147 27.1021C251.032 27.0972 250.92 27.1324 250.832 27.2006L244.275 33.1587L237.801 27.1062C237.714 27.0368 237.602 27 237.488 27.0033C237.373 27.0066 237.264 27.0497 237.182 27.124C237.1 27.1982 237.052 27.2982 237.047 27.4039C237.042 27.5096 237.08 27.6132 237.154 27.6941L237.15 27.6983Z" fill="black"/>
<path d="M44.4545 18.5455H46.7727L48.7159 21.1023L49.2273 21.7841L52.125 25.6364H49.8068L47.8977 23.0795L47.4205 22.4318L44.4545 18.5455ZM52.8409 15.2727C52.8409 17.1136 52.5085 18.7045 51.8438 20.0455C51.179 21.3864 50.267 22.4205 49.108 23.1477C47.9489 23.875 46.625 24.2386 45.1364 24.2386C43.6477 24.2386 42.3239 23.875 41.1648 23.1477C40.0057 22.4205 39.0938 21.3864 38.429 20.0455C37.7642 18.7045 37.4318 17.1136 37.4318 15.2727C37.4318 13.4318 37.7642 11.8409 38.429 10.5C39.0938 9.15909 40.0057 8.125 41.1648 7.39773C42.3239 6.67045 43.6477 6.30682 45.1364 6.30682C46.625 6.30682 47.9489 6.67045 49.108 7.39773C50.267 8.125 51.179 9.15909 51.8438 10.5C52.5085 11.8409 52.8409 13.4318 52.8409 15.2727ZM50.7955 15.2727C50.7955 13.7614 50.5426 12.4858 50.0369 11.446C49.5369 10.4062 48.858 9.61932 48 9.08523C47.1477 8.55114 46.1932 8.28409 45.1364 8.28409C44.0795 8.28409 43.1222 8.55114 42.2642 9.08523C41.4119 9.61932 40.733 10.4062 40.2273 11.446C39.7273 12.4858 39.4773 13.7614 39.4773 15.2727C39.4773 16.7841 39.7273 18.0597 40.2273 19.0994C40.733 20.1392 41.4119 20.9261 42.2642 21.4602C43.1222 21.9943 44.0795 22.2614 45.1364 22.2614C46.1932 22.2614 47.1477 21.9943 48 21.4602C48.858 20.9261 49.5369 20.1392 50.0369 19.0994C50.5426 18.0597 50.7955 16.7841 50.7955 15.2727ZM67.8494 6.54545H69.9631V18.1023C69.9631 19.2955 69.6818 20.3608 69.1193 21.2983C68.5625 22.2301 67.7756 22.9659 66.7585 23.5057C65.7415 24.0398 64.5483 24.3068 63.179 24.3068C61.8097 24.3068 60.6165 24.0398 59.5994 23.5057C58.5824 22.9659 57.7926 22.2301 57.2301 21.2983C56.6733 20.3608 56.3949 19.2955 56.3949 18.1023V6.54545H58.5085V17.9318C58.5085 18.7841 58.696 19.5426 59.071 20.2074C59.446 20.8665 59.9801 21.3864 60.6733 21.767C61.3722 22.142 62.2074 22.3295 63.179 22.3295C64.1506 22.3295 64.9858 22.142 65.6847 21.767C66.3835 21.3864 66.9176 20.8665 67.2869 20.2074C67.6619 19.5426 67.8494 18.7841 67.8494 17.9318V6.54545ZM76.2976 6.54545V24H74.1839V6.54545H76.2976ZM80.5355 24V6.54545H91.0696V8.42045H82.6491V14.3182H90.5241V16.1932H82.6491V22.125H91.206V24H80.5355ZM108.72 6.54545V24H106.675L97.1634 10.2955H96.9929V24H94.8793V6.54545H96.9247L106.47 20.2841H106.641V6.54545H108.72ZM112.95 24V6.54545H123.484V8.42045H115.063V14.3182H122.938V16.1932H115.063V22.125H123.62V24H112.95ZM136.839 10.9091C136.737 10.0455 136.322 9.375 135.594 8.89773C134.867 8.42045 133.975 8.18182 132.918 8.18182C132.146 8.18182 131.469 8.30682 130.89 8.55682C130.316 8.80682 129.867 9.15057 129.543 9.58807C129.225 10.0256 129.066 10.5227 129.066 11.0795C129.066 11.5455 129.177 11.946 129.398 12.2812C129.626 12.6108 129.915 12.8864 130.268 13.108C130.62 13.3239 130.989 13.5028 131.376 13.6449C131.762 13.7812 132.117 13.892 132.441 13.9773L134.214 14.4545C134.668 14.5739 135.174 14.7386 135.731 14.9489C136.293 15.1591 136.83 15.446 137.342 15.8097C137.859 16.1676 138.285 16.6278 138.62 17.1903C138.955 17.7528 139.123 18.4432 139.123 19.2614C139.123 20.2045 138.876 21.0568 138.381 21.8182C137.893 22.5795 137.177 23.1847 136.234 23.6335C135.296 24.0824 134.157 24.3068 132.816 24.3068C131.566 24.3068 130.484 24.1051 129.569 23.7017C128.66 23.2983 127.944 22.7358 127.421 22.0142C126.904 21.2926 126.612 20.4545 126.543 19.5H128.725C128.782 20.1591 129.004 20.7045 129.39 21.1364C129.782 21.5625 130.276 21.8807 130.873 22.0909C131.475 22.2955 132.123 22.3977 132.816 22.3977C133.623 22.3977 134.347 22.267 134.989 22.0057C135.631 21.7386 136.14 21.3693 136.515 20.8977C136.89 20.4205 137.077 19.8636 137.077 19.2273C137.077 18.6477 136.915 18.1761 136.592 17.8125C136.268 17.4489 135.842 17.1534 135.313 16.9261C134.785 16.6989 134.214 16.5 133.6 16.3295L131.452 15.7159C130.089 15.3239 129.009 14.7642 128.214 14.0369C127.418 13.3097 127.021 12.358 127.021 11.1818C127.021 10.2045 127.285 9.35227 127.813 8.625C128.347 7.89205 129.063 7.32386 129.961 6.92045C130.864 6.51136 131.873 6.30682 132.987 6.30682C134.112 6.30682 135.112 6.50852 135.987 6.91193C136.862 7.30966 137.555 7.85511 138.066 8.54829C138.583 9.24148 138.856 10.0284 138.884 10.9091H136.839ZM158.893 10.9091C158.791 10.0455 158.376 9.375 157.649 8.89773C156.922 8.42045 156.03 8.18182 154.973 8.18182C154.2 8.18182 153.524 8.30682 152.945 8.55682C152.371 8.80682 151.922 9.15057 151.598 9.58807C151.28 10.0256 151.121 10.5227 151.121 11.0795C151.121 11.5455 151.232 11.946 151.453 12.2812C151.68 12.6108 151.97 12.8864 152.322 13.108C152.675 13.3239 153.044 13.5028 153.43 13.6449C153.817 13.7812 154.172 13.892 154.496 13.9773L156.268 14.4545C156.723 14.5739 157.229 14.7386 157.786 14.9489C158.348 15.1591 158.885 15.446 159.396 15.8097C159.913 16.1676 160.339 16.6278 160.675 17.1903C161.01 17.7528 161.178 18.4432 161.178 19.2614C161.178 20.2045 160.93 21.0568 160.436 21.8182C159.947 22.5795 159.232 23.1847 158.288 23.6335C157.351 24.0824 156.212 24.3068 154.871 24.3068C153.621 24.3068 152.538 24.1051 151.624 23.7017C150.714 23.2983 149.999 22.7358 149.476 22.0142C148.959 21.2926 148.666 20.4545 148.598 19.5H150.78C150.837 20.1591 151.058 20.7045 151.445 21.1364C151.837 21.5625 152.331 21.8807 152.928 22.0909C153.53 22.2955 154.178 22.3977 154.871 22.3977C155.678 22.3977 156.402 22.267 157.044 22.0057C157.686 21.7386 158.195 21.3693 158.57 20.8977C158.945 20.4205 159.132 19.8636 159.132 19.2273C159.132 18.6477 158.97 18.1761 158.646 17.8125C158.322 17.4489 157.896 17.1534 157.368 16.9261C156.839 16.6989 156.268 16.5 155.655 16.3295L153.507 15.7159C152.143 15.3239 151.064 14.7642 150.268 14.0369C149.473 13.3097 149.075 12.358 149.075 11.1818C149.075 10.2045 149.339 9.35227 149.868 8.625C150.402 7.89205 151.118 7.32386 152.016 6.92045C152.919 6.51136 153.928 6.30682 155.041 6.30682C156.166 6.30682 157.166 6.50852 158.041 6.91193C158.916 7.30966 159.609 7.85511 160.121 8.54829C160.638 9.24148 160.911 10.0284 160.939 10.9091H158.893ZM179.38 15.2727C179.38 17.1136 179.048 18.7045 178.383 20.0455C177.718 21.3864 176.806 22.4205 175.647 23.1477C174.488 23.875 173.164 24.2386 171.675 24.2386C170.187 24.2386 168.863 23.875 167.704 23.1477C166.545 22.4205 165.633 21.3864 164.968 20.0455C164.303 18.7045 163.971 17.1136 163.971 15.2727C163.971 13.4318 164.303 11.8409 164.968 10.5C165.633 9.15909 166.545 8.125 167.704 7.39773C168.863 6.67045 170.187 6.30682 171.675 6.30682C173.164 6.30682 174.488 6.67045 175.647 7.39773C176.806 8.125 177.718 9.15909 178.383 10.5C179.048 11.8409 179.38 13.4318 179.38 15.2727ZM177.335 15.2727C177.335 13.7614 177.082 12.4858 176.576 11.446C176.076 10.4062 175.397 9.61932 174.539 9.08523C173.687 8.55114 172.732 8.28409 171.675 8.28409C170.619 8.28409 169.661 8.55114 168.803 9.08523C167.951 9.61932 167.272 10.4062 166.766 11.446C166.266 12.4858 166.016 13.7614 166.016 15.2727C166.016 16.7841 166.266 18.0597 166.766 19.0994C167.272 20.1392 167.951 20.9261 168.803 21.4602C169.661 21.9943 170.619 22.2614 171.675 22.2614C172.732 22.2614 173.687 21.9943 174.539 21.4602C175.397 20.9261 176.076 20.1392 176.576 19.0994C177.082 18.0597 177.335 16.7841 177.335 15.2727ZM182.934 6.54545H185.457L191.388 21.0341H191.593L197.525 6.54545H200.048V24H198.07V10.7386H197.9L192.445 24H190.536L185.082 10.7386H184.911V24H182.934V6.54545ZM219.013 15.2727C219.013 17.1136 218.68 18.7045 218.016 20.0455C217.351 21.3864 216.439 22.4205 215.28 23.1477C214.121 23.875 212.797 24.2386 211.308 24.2386C209.82 24.2386 208.496 23.875 207.337 23.1477C206.178 22.4205 205.266 21.3864 204.601 20.0455C203.936 18.7045 203.604 17.1136 203.604 15.2727C203.604 13.4318 203.936 11.8409 204.601 10.5C205.266 9.15909 206.178 8.125 207.337 7.39773C208.496 6.67045 209.82 6.30682 211.308 6.30682C212.797 6.30682 214.121 6.67045 215.28 7.39773C216.439 8.125 217.351 9.15909 218.016 10.5C218.68 11.8409 219.013 13.4318 219.013 15.2727ZM216.967 15.2727C216.967 13.7614 216.714 12.4858 216.209 11.446C215.709 10.4062 215.03 9.61932 214.172 9.08523C213.32 8.55114 212.365 8.28409 211.308 8.28409C210.251 8.28409 209.294 8.55114 208.436 9.08523C207.584 9.61932 206.905 10.4062 206.399 11.446C205.899 12.4858 205.649 13.7614 205.649 15.2727C205.649 16.7841 205.899 18.0597 206.399 19.0994C206.905 20.1392 207.584 20.9261 208.436 21.4602C209.294 21.9943 210.251 22.2614 211.308 22.2614C212.365 22.2614 213.32 21.9943 214.172 21.4602C215.03 20.9261 215.709 20.1392 216.209 19.0994C216.714 18.0597 216.967 16.7841 216.967 15.2727ZM232.112 10.9091C232.01 10.0455 231.595 9.375 230.868 8.89773C230.141 8.42045 229.249 8.18182 228.192 8.18182C227.419 8.18182 226.743 8.30682 226.163 8.55682C225.589 8.80682 225.141 9.15057 224.817 9.58807C224.499 10.0256 224.339 10.5227 224.339 11.0795C224.339 11.5455 224.45 11.946 224.672 12.2812C224.899 12.6108 225.189 12.8864 225.541 13.108C225.893 13.3239 226.263 13.5028 226.649 13.6449C227.036 13.7812 227.391 13.892 227.714 13.9773L229.487 14.4545C229.942 14.5739 230.447 14.7386 231.004 14.9489C231.567 15.1591 232.104 15.446 232.615 15.8097C233.132 16.1676 233.558 16.6278 233.893 17.1903C234.229 17.7528 234.396 18.4432 234.396 19.2614C234.396 20.2045 234.149 21.0568 233.655 21.8182C233.166 22.5795 232.45 23.1847 231.507 23.6335C230.57 24.0824 229.43 24.3068 228.089 24.3068C226.839 24.3068 225.757 24.1051 224.842 23.7017C223.933 23.2983 223.217 22.7358 222.695 22.0142C222.178 21.2926 221.885 20.4545 221.817 19.5H223.999C224.055 20.1591 224.277 20.7045 224.663 21.1364C225.055 21.5625 225.55 21.8807 226.146 22.0909C226.749 22.2955 227.396 22.3977 228.089 22.3977C228.896 22.3977 229.621 22.267 230.263 22.0057C230.905 21.7386 231.413 21.3693 231.788 20.8977C232.163 20.4205 232.351 19.8636 232.351 19.2273C232.351 18.6477 232.189 18.1761 231.865 17.8125C231.541 17.4489 231.115 17.1534 230.587 16.9261C230.058 16.6989 229.487 16.5 228.874 16.3295L226.726 15.7159C225.362 15.3239 224.283 14.7642 223.487 14.0369C222.692 13.3097 222.294 12.358 222.294 11.1818C222.294 10.2045 222.558 9.35227 223.087 8.625C223.621 7.89205 224.337 7.32386 225.234 6.92045C226.138 6.51136 227.146 6.30682 228.26 6.30682C229.385 6.30682 230.385 6.50852 231.26 6.91193C232.135 7.30966 232.828 7.85511 233.339 8.54829C233.857 9.24148 234.129 10.0284 234.158 10.9091H232.112Z" fill="black"/>
<g clip-path="url(#clip0_41_24)">
<path d="M17.9 17.3C20.6 17.3 22.7 15.1 22.7 12.4C22.7 9.70001 20.5 7.60001 17.8 7.60001C15.1 7.60001 13 9.80001 13 12.4C13 15.1 15.2 17.3 17.9 17.3ZM17.8 9.60001C17.9 9.60001 17.9 9.60001 17.8 9.60001C19.4 9.60001 20.7 10.9 20.7 12.5C20.7 14.1 19.4 15.3 17.8 15.3C16.2 15.3 15 14 15 12.5C15 10.9 16.3 9.60001 17.8 9.60001Z" fill="black"/>
<path d="M32.7 16.7C30.8 15 28.3 14.1 25.7 14.2H24.9C24.7 15 24.4 15.7 24 16.3C24.6 16.2 25.1 16.2 25.7 16.2C27.6 16.1 29.5 16.7 31 17.8V25H33V17L32.7 16.7Z" fill="black"/>
<path d="M23.4 7.8C23.9 6.6 25.3 6 26.6 6.5C27.8 7 28.4 8.4 27.9 9.7C27.5 10.6 26.6 11.2 25.7 11.2C25.5 11.2 25.2 11.2 25 11.1C25.1 11.6 25.1 12.1 25.1 12.5V13.1C25.3 13.1 25.5 13.2 25.7 13.2C28.2 13.2 30.2 11.2 30.2 8.8C30.2 6.3 28.2 4.3 25.8 4.3C24.2 4.3 22.8 5.1 22 6.5C22.5 6.8 23 7.2 23.4 7.8Z" fill="black"/>
<path d="M12 16.4C11.6 15.8 11.3 15.1 11.1 14.3H10.3C7.7 14.2 5.2 15.1 3.3 16.7L3 17V25H5V17.8C6.6 16.7 8.4 16.1 10.3 16.2C10.9 16.2 11.5 16.3 12 16.4Z" fill="black"/>
<path d="M10.3 13.1C10.5 13.1 10.7 13.1 10.9 13V12.4C10.9 11.9 10.9 11.4 11 11C10.8 11.1 10.5 11.1 10.3 11.1C9.00001 11.1 7.90001 10 7.90001 8.70001C7.90001 7.40001 9.00001 6.30001 10.3 6.30001C11.3 6.30001 12.2 6.90001 12.6 7.80001C13 7.30001 13.6 6.80001 14.1 6.40001C12.8 4.30001 10.1 3.60001 8.00001 4.90001C5.90001 6.20001 5.20001 8.90001 6.50001 11C7.30001 12.3 8.70001 13.1 10.3 13.1Z" fill="black"/>
<path d="M26.1 22.7L25.9 22.4C23.9 20.2 21.1 18.9 18.1 19C15.1 18.9 12.2 20.2 10.2 22.4L10 22.7V30.3C10 31.2 10.7 32 11.7 32H24.5C25.4 32 26.2 31.2 26.2 30.3V22.7H26.1ZM24.1 30H12V23.4C13.6 21.8 15.8 21 18.1 21C20.3 20.9 22.5 21.8 24.1 23.4V30Z" fill="black"/>
</g>
<defs>
<clipPath id="clip0_41_24">
<rect width="36" height="36" fill="white"/>
</clipPath>
</defs>
</svg>
