<svg width="199" height="30" viewBox="0 0 199 30" fill="none" xmlns="http://www.w3.org/2000/svg">
<path d="M38.1136 7.54545H40.6364L46.5682 22.0341H46.7727L52.7045 7.54545H55.2273V25H53.25V11.7386H53.0795L47.625 25H45.7159L40.2614 11.7386H40.0909V25H38.1136V7.54545ZM60.1811 25H57.9652L64.3743 7.54545H66.5561L72.9652 25H70.7493L65.5334 10.3068H65.397L60.1811 25ZM60.9993 18.1818H69.9311V20.0568H60.9993V18.1818ZM72.6903 9.42045V7.54545H85.7812V9.42045H80.2926V25H78.179V9.42045H72.6903ZM89.0433 25V7.54545H94.9411C96.3047 7.54545 97.424 7.77841 98.299 8.24432C99.174 8.70454 99.8217 9.33807 100.242 10.1449C100.663 10.9517 100.873 11.8693 100.873 12.8977C100.873 13.9261 100.663 14.8381 100.242 15.6335C99.8217 16.429 99.1768 17.054 98.3075 17.5085C97.4382 17.9574 96.3274 18.1818 94.9751 18.1818H90.2024V16.2727H94.907C95.8388 16.2727 96.5888 16.1364 97.157 15.8636C97.7308 15.5909 98.1456 15.2045 98.4013 14.7045C98.6626 14.1989 98.7933 13.5966 98.7933 12.8977C98.7933 12.1989 98.6626 11.5881 98.4013 11.0653C98.1399 10.5426 97.7223 10.1392 97.1484 9.85511C96.5746 9.56534 95.8161 9.42045 94.8729 9.42045H91.157V25H89.0433ZM97.2592 17.1591L101.555 25H99.1001L94.8729 17.1591H97.2592ZM106.509 7.54545V25H104.395V7.54545H106.509ZM124.792 13H122.678C122.553 12.392 122.335 11.858 122.022 11.3977C121.715 10.9375 121.34 10.5511 120.897 10.2386C120.46 9.92045 119.974 9.68182 119.44 9.52273C118.906 9.36364 118.349 9.28409 117.769 9.28409C116.712 9.28409 115.755 9.55114 114.897 10.0852C114.045 10.6193 113.366 11.4062 112.86 12.446C112.36 13.4858 112.11 14.7614 112.11 16.2727C112.11 17.7841 112.36 19.0597 112.86 20.0994C113.366 21.1392 114.045 21.9261 114.897 22.4602C115.755 22.9943 116.712 23.2614 117.769 23.2614C118.349 23.2614 118.906 23.1818 119.44 23.0227C119.974 22.8636 120.46 22.6278 120.897 22.3153C121.34 21.9972 121.715 21.608 122.022 21.1477C122.335 20.6818 122.553 20.1477 122.678 19.5455H124.792C124.633 20.4375 124.343 21.2358 123.923 21.9403C123.502 22.6449 122.979 23.2443 122.354 23.7386C121.729 24.2273 121.028 24.5994 120.249 24.8551C119.477 25.1108 118.65 25.2386 117.769 25.2386C116.281 25.2386 114.957 24.875 113.798 24.1477C112.638 23.4205 111.727 22.3864 111.062 21.0455C110.397 19.7045 110.065 18.1136 110.065 16.2727C110.065 14.4318 110.397 12.8409 111.062 11.5C111.727 10.1591 112.638 9.125 113.798 8.39773C114.957 7.67045 116.281 7.30682 117.769 7.30682C118.65 7.30682 119.477 7.43466 120.249 7.69034C121.028 7.94602 121.729 8.32102 122.354 8.81534C122.979 9.30398 123.502 9.90057 123.923 10.6051C124.343 11.304 124.633 12.1023 124.792 13ZM139.662 7.54545H141.776V19.1023C141.776 20.2955 141.494 21.3608 140.932 22.2983C140.375 23.2301 139.588 23.9659 138.571 24.5057C137.554 25.0398 136.361 25.3068 134.991 25.3068C133.622 25.3068 132.429 25.0398 131.412 24.5057C130.395 23.9659 129.605 23.2301 129.043 22.2983C128.486 21.3608 128.207 20.2955 128.207 19.1023V7.54545H130.321V18.9318C130.321 19.7841 130.509 20.5426 130.884 21.2074C131.259 21.8665 131.793 22.3864 132.486 22.767C133.185 23.142 134.02 23.3295 134.991 23.3295C135.963 23.3295 136.798 23.142 137.497 22.767C138.196 22.3864 138.73 21.8665 139.099 21.2074C139.474 20.5426 139.662 19.7841 139.662 18.9318V7.54545ZM145.996 25V7.54545H148.11V23.125H156.224V25H145.996ZM161.314 25H159.098L165.507 7.54545H167.689L174.098 25H171.882L166.666 10.3068H166.53L161.314 25ZM162.132 18.1818H171.064V20.0568H162.132V18.1818ZM186.362 11.9091C186.26 11.0455 185.845 10.375 185.118 9.89773C184.391 9.42045 183.499 9.18182 182.442 9.18182C181.669 9.18182 180.993 9.30682 180.413 9.55682C179.839 9.80682 179.391 10.1506 179.067 10.5881C178.749 11.0256 178.589 11.5227 178.589 12.0795C178.589 12.5455 178.7 12.946 178.922 13.2812C179.149 13.6108 179.439 13.8864 179.791 14.108C180.143 14.3239 180.513 14.5028 180.899 14.6449C181.286 14.7812 181.641 14.892 181.964 14.9773L183.737 15.4545C184.192 15.5739 184.697 15.7386 185.254 15.9489C185.817 16.1591 186.354 16.446 186.865 16.8097C187.382 17.1676 187.808 17.6278 188.143 18.1903C188.479 18.7528 188.646 19.4432 188.646 20.2614C188.646 21.2045 188.399 22.0568 187.905 22.8182C187.416 23.5795 186.7 24.1847 185.757 24.6335C184.82 25.0824 183.68 25.3068 182.339 25.3068C181.089 25.3068 180.007 25.1051 179.092 24.7017C178.183 24.2983 177.467 23.7358 176.945 23.0142C176.428 22.2926 176.135 21.4545 176.067 20.5H178.249C178.305 21.1591 178.527 21.7045 178.913 22.1364C179.305 22.5625 179.8 22.8807 180.396 23.0909C180.999 23.2955 181.646 23.3977 182.339 23.3977C183.146 23.3977 183.871 23.267 184.513 23.0057C185.155 22.7386 185.663 22.3693 186.038 21.8977C186.413 21.4205 186.601 20.8636 186.601 20.2273C186.601 19.6477 186.439 19.1761 186.115 18.8125C185.791 18.4489 185.365 18.1534 184.837 17.9261C184.308 17.6989 183.737 17.5 183.124 17.3295L180.976 16.7159C179.612 16.3239 178.533 15.7642 177.737 15.0369C176.942 14.3097 176.544 13.358 176.544 12.1818C176.544 11.2045 176.808 10.3523 177.337 9.625C177.871 8.89205 178.587 8.32386 179.484 7.92045C180.388 7.51136 181.396 7.30682 182.51 7.30682C183.635 7.30682 184.635 7.50852 185.51 7.91193C186.385 8.30966 187.078 8.85511 187.589 9.54829C188.107 10.2415 188.379 11.0284 188.408 11.9091H186.362Z" fill="black"/>
<path d="M26.25 10C25.9975 10 20.1875 10.0363 15 12.51C9.8125 10.0363 4.0025 10 3.75 10C3.41848 10 3.10054 10.1317 2.86612 10.3661C2.6317 10.6005 2.5 10.9185 2.5 11.25V23.6037C2.5 23.7715 2.53376 23.9375 2.59926 24.0919C2.66475 24.2463 2.76066 24.3859 2.88125 24.5025C3.125 24.7375 3.48125 24.8837 3.7925 24.8525L3.95125 24.8513C4.805 24.8513 9.32125 24.9738 14.4712 27.3825C14.4913 27.3925 14.5138 27.3888 14.5337 27.3962C14.6825 27.4575 14.8387 27.5 15 27.5C15.1613 27.5 15.3175 27.4575 15.4675 27.3962C15.4875 27.3888 15.51 27.3925 15.53 27.3825C20.68 24.9725 25.1963 24.8513 26.05 24.8513L26.2087 24.8525C26.5062 24.8837 26.875 24.7375 27.12 24.5025C27.3625 24.2662 27.5 23.9412 27.5 23.6037V11.25C27.5 10.9185 27.3683 10.6005 27.1339 10.3661C26.8995 10.1317 26.5815 10 26.25 10ZM5 12.5612C6.85625 12.7 10.4763 13.1613 13.75 14.6763V24.3538C10 22.885 6.7625 22.4862 5 22.3837V12.5612ZM25 22.3837C23.2375 22.4862 20 22.885 16.25 24.3538V14.6763C19.5238 13.1613 23.1437 12.7 25 12.5612V22.3837Z" fill="black"/>
<path d="M15 10C17.0711 10 18.75 8.32107 18.75 6.25C18.75 4.17893 17.0711 2.5 15 2.5C12.9289 2.5 11.25 4.17893 11.25 6.25C11.25 8.32107 12.9289 10 15 10Z" fill="black"/>
</svg>
